<?xml version="1.0" standalone="no"?>
<!DOCTYPE svg PUBLIC "-//W3C//DTD SVG 1.1//EN" "http://www.w3.org/Graphics/SVG/1.1/DTD/svg11.dtd" >
<svg xmlns="http://www.w3.org/2000/svg" xmlns:xlink="http://www.w3.org/1999/xlink" version="1.1">
<metadata></metadata>
<defs>
<font id="motel_kingmedium" horiz-adv-x="205" >
<font-face units-per-em="2048" ascent="1638" descent="-410" />
<missing-glyph horiz-adv-x="778" />
<glyph unicode=" "  horiz-adv-x="778" />
<glyph unicode="&#x09;" horiz-adv-x="778" />
<glyph unicode="&#xa0;" horiz-adv-x="778" />
<glyph unicode="!" horiz-adv-x="670" d="M629 1389q-3 26 -17 40t-57 17q-4 0 -31 0.5t-66.5 0.5t-85.5 1t-88 1t-74 0.5t-44 0.5h-4q-29 0 -40.5 -16.5t-15.5 -40.5v-43q0 -33 0.5 -85t1 -115.5t1 -133.5t1.5 -139t1.5 -132t1 -112t1.5 -79t1 -34q3 -25 14 -39t43 -20q4 0 25 -3t51 -6.5t64 -7.5t64 -7.5t51 -6 t24 -2.5q4 -2 10 -2q29 0 45.5 14t19.5 39q0 2 4.5 41t11.5 103t16.5 144.5t19 165t19 165.5t16.5 145t11.5 104t4.5 42zM524 242q0 32 -19.5 51.5t-53.5 21.5l-283 11h-4q-31 0 -53.5 -19t-22.5 -51l-6 -182v-2q0 -31 19.5 -50.5t50.5 -21.5l286 -10h4q15 0 30 5t26.5 14.5 t18.5 22.5t7 29v181z" />
<glyph unicode="&#x22;" horiz-adv-x="1081" d="M999 1419q-3 20 -15 29.5t-44 9.5l-299 -6q-20 0 -28.5 -12.5t-10.5 -32.5q0 -6 1 -37t3 -77l4.5 -103.5t5 -116.5t5.5 -115t5 -100.5t3.5 -72.5t1.5 -31q2 -19 12 -29.5t33 -13.5h20t41.5 -0.5t52.5 -1t52.5 -1t41.5 -0.5t19 -1q26 0 39.5 11t15.5 30q0 2 2 31.5 t4.5 76.5t6.5 106.5t7.5 121.5t7.5 121.5t6.5 106.5t4.5 76.5t2 30.5zM489 1415v4q-3 20 -14 30.5t-43 8.5l-311 -8q-23 -2 -31 -14t-8 -31v-4q0 -8 1.5 -40t4 -79t5.5 -104t6 -115.5t6 -114t5.5 -99t4.5 -71t2 -30.5q3 -19 12.5 -28.5t34.5 -12.5q3 0 21 -1t44.5 -1.5 t57 -1t56.5 -1t44.5 -0.5h20.5q52 0 55 41q0 2 1 30t3 73t4.5 102.5t4.5 118t4.5 119.5t4.5 107t3 81t1 41z" />
<glyph unicode="#" horiz-adv-x="1423" d="M1341 981q0 20 -12 27.5t-31 7.5h-24h-146q13 66 20 105.5t7 41.5v8q0 20 -8 30t-31 13q-4 1 -23 5t-41 8.5t-40 8t-21 3.5q-58 0 -67 -45l-43 -180h-176q17 78 27.5 126t10.5 50q2 3 2 5.5v4.5q0 20 -11 29.5t-42 9.5h-2q-8 0 -36 -0.5t-59.5 -1.5t-57.5 -1.5t-31 -0.5 q-25 -2 -35.5 -16t-15.5 -35q-2 -5 -10.5 -51.5t-22.5 -120.5q-63 -2 -101.5 -2h-41.5q-23 -5 -37 -14.5t-23 -37.5q-1 -4 -8.5 -23t-15.5 -41t-15 -41.5t-8 -23.5q-2 -6 -3 -10.5t-1 -9.5q0 -39 39 -39l170 -8l-31 -164q-74 3 -121.5 4.5t-50.5 1.5h-2q-23 -2 -38 -14 t-21 -47q-1 -3 -3.5 -17.5t-6 -34t-7 -42t-6.5 -42t-5.5 -34t-2.5 -17.5v-10q0 -18 11.5 -24.5t31.5 -8.5h25h145q-12 -66 -19.5 -107t-7.5 -46v-6q0 -19 8 -28.5t31 -12.5q5 -1 23.5 -5t40 -9t39.5 -9t22 -4h4q54 0 66 47l41 182l176 2q-17 -80 -29 -129.5t-12 -52.5v-6 q0 -20 10.5 -30.5t42.5 -12.5h2q9 0 36.5 0.5t59 1.5t57.5 2t32 2q23 2 34.5 15t16.5 36q0 2 9 50.5t23 125.5q63 2 102 2.5t42 2.5q23 2 36.5 11.5t22.5 35.5q2 5 9 24t15.5 41t15 41.5t7.5 24.5q2 6 2 10.5v9.5q0 36 -36 39l-170 6l30 166q76 -3 123 -4.5t49 -1.5 q25 2 38.5 14t23.5 47q1 4 3 18t5 34t7 42t7 41t5 33t3 17v8zM817 743l-37 -165l-174 10l37 164z" />
<glyph unicode="$" horiz-adv-x="1407" d="M1407 889v4q-2 19 -2.5 52t-3.5 61q-4 43 -33.5 90.5t-82 88t-128.5 67t-174 26.5h-14l4 115q-3 28 -18 42.5t-56 14.5h-27q-21 0 -53.5 -0.5t-69.5 -0.5t-74.5 -1t-68.5 -1t-52 -0.5t-24 -0.5q-27 -2 -39 -18.5t-12 -41.5v-106q-44 -3 -94 -12.5t-99.5 -26t-95.5 -40.5 t-80.5 -58t-55.5 -78t-21 -100q0 -60 26.5 -106.5t67.5 -80t90.5 -54.5t95.5 -30q34 -7 92.5 -17t127 -21t139 -21.5t127.5 -18.5q21 -3 43 -9.5t40 -19t29 -31.5t11 -48q0 -28 -10.5 -45.5t-26 -28t-33.5 -15t-33 -5.5q-9 -1 -38.5 -1.5t-66.5 -1t-73.5 -1t-60.5 -0.5 q-25 0 -51 4t-47 15t-35 30.5t-15 50.5l-2 57q-2 23 -13 35t-36 12l-324 7h-2q-18 0 -26.5 -10t-8.5 -36v-6q0 -17 2 -49.5t5 -60.5q5 -43 37.5 -90.5t83 -87.5t113.5 -66t128 -27l100 -2q0 -45 0.5 -72t2.5 -30q2 -25 14 -38t41 -19q3 0 26 -2.5t56 -5.5l71.5 -6.5t71.5 -6 t56 -4.5t26 -2h4q61 0 64 53l6 129l57 2q31 1 69.5 8t77.5 21t76 36t65.5 53.5t46 72t17.5 92.5q0 122 -79.5 193.5t-251.5 97.5q-28 5 -81.5 14.5t-117.5 21.5t-131 23.5t-121 20.5q-19 3 -38.5 11t-35 22t-25.5 34.5t-10 48.5t10.5 46.5t26.5 29.5t35 16.5t35 6.5 q11 1 45.5 1.5t75 1t79 1t56.5 0.5h12q26 -1 47.5 -9.5t37.5 -23t24.5 -32.5t9.5 -38l2 -57q0 -25 13 -35t36 -12l381 -4h2q17 0 25 8.5t8 34.5z" />
<glyph unicode="%" horiz-adv-x="2324" d="M2263 225v232q0 48 -20.5 89.5t-54.5 72.5t-79 49t-94 18l-461 6h-4q-58 0 -108 -19t-87 -50.5t-58.5 -71t-22.5 -80.5l-4 -233q0 -42 21.5 -80t55.5 -66.5t76 -45t82 -17.5l465 -6q47 -1 98.5 9.5t95 34.5t71.5 63t28 95zM1935 1348q0 13 -6 21.5t-15 13.5t-20 7t-22 1 l-201 -2q-37 -2 -65 -21.5t-45 -38.5l-1092 -1216q-18 -19 -18 -45q0 -22 16.5 -33.5t36.5 -11.5h139q21 0 36 2t27 7.5t23 14.5t25 23l1159 1230q6 8 14 21t8 27zM1055 924v231q0 48 -20.5 90t-55 73t-79.5 49t-95 19l-461 5h-4q-58 0 -107.5 -19.5t-86.5 -51t-58 -71 t-22 -80.5l-5 -231q-1 -43 20.5 -81t55.5 -66.5t76 -45t82 -16.5l465 -8q47 -1 99 9.5t95.5 35t72 63.5t28.5 95zM1950 248q0 -22 -18.5 -41.5t-49.5 -18.5l-231 5q-23 2 -38.5 16t-15.5 39l2 219q0 14 6 24t15 16.5t20 9.5t21 3l229 2q29 0 42.5 -19.5t13.5 -39.5zM741 946 q0 -10 -5 -21t-14 -19.5t-22 -14t-28 -4.5l-230 6q-23 0 -39 14.5t-16 40.5l2 217q0 14 6 24.5t15.5 17.5t20.5 10.5t20 3.5l231 2q28 0 41.5 -20t13.5 -40z" />
<glyph unicode="&#x26;" horiz-adv-x="1853" d="M1853 651q0 32 -30 35q-1 0 -31 1t-78.5 3t-110 4.5t-125.5 5t-125.5 5t-110 4.5t-78.5 3t-31 1q-16 -2 -23.5 -10t-9.5 -29v-27v-158q0 -65 -35.5 -97t-101.5 -34h-5q-7 0 -23 0.5t-37 1t-45.5 1t-49.5 1.5q-58 2 -127 3q-66 2 -100.5 29.5t-34.5 90.5q0 65 39.5 91.5 t119.5 31.5l209 10q27 2 43 4t25 6.5t13 12.5t7 21q7 24 9 50.5t4 51.5q2 3 2 7v7q0 25 -14 34.5t-48 14.5l-282 37q-46 6 -74 19.5t-43 30t-20 34.5t-5 33q0 29 12 49.5t31.5 34.5t44.5 20.5t52 6.5q53 1 98 2q19 0 38.5 0.5t36.5 1t30 0.5h20h6q38 -1 72.5 -10t61 -26 t43 -41t18.5 -56q3 -48 57 -48l405 -6h2q22 0 30.5 9.5t8.5 33.5v6q-2 78 -46.5 144t-119 113.5t-174 74t-211.5 27.5l-454 4q-47 1 -104.5 -5t-116 -20.5t-114 -38.5t-98 -59.5t-68.5 -83.5t-26 -110q0 -48 18.5 -85.5t49 -66.5t70.5 -50.5t83 -37.5t85.5 -28t78.5 -21 q-98 -15 -169 -39t-117 -60t-68 -86t-22 -118q0 -69 34.5 -126.5t97.5 -98t150.5 -63t192.5 -22.5q38 0 100.5 0.5t136.5 1t153 2t150 3.5q109 2 195.5 21t147.5 62.5t96.5 115.5t42.5 179q48 0 90 0.5t74.5 0.5t52 0.5t20.5 0.5q28 4 33 29q0 3 2 23.5t5 44t5.5 43.5 t3.5 22z" />
<glyph unicode="'" horiz-adv-x="571" d="M489 1415v4q-3 20 -14 30.5t-43 8.5l-311 -8q-23 -2 -31 -14t-8 -31v-4q0 -8 1.5 -40t4 -79t5.5 -104t6 -115.5t6 -114t5.5 -99t4.5 -71t2 -30.5q3 -19 12.5 -28.5t34.5 -12.5q3 0 21 -1t44.5 -1.5t57 -1t56.5 -1t44.5 -0.5h20.5q52 0 55 41q0 2 1 30t3 73t4.5 102.5 t4.5 118t4.5 119.5t4.5 107t3 81t1 41z" />
<glyph unicode="(" horiz-adv-x="1069" d="M989 66v151q0 22 -13.5 36.5t-47.5 14.5l-88 2q-60 2 -108 25.5t-82 62.5t-52 90t-18 107q0 35 1.5 93t3.5 125t5 137t5 127.5t3.5 96t1.5 44.5q3 35 22 67t49.5 56t70 38t83.5 15l109 2q31 0 43 16t12 47v99q0 9 -1.5 19.5t-8 20t-20.5 15.5t-39 6h-5 q-129 -3 -190.5 -4.5t-71.5 -1.5q-67 -1 -135.5 -14.5t-131.5 -39t-118 -62t-95.5 -83.5t-64.5 -104t-24 -123v-54t-0.5 -115t-0.5 -148t-0.5 -153.5t-0.5 -131.5v-82v-12q1 -88 47 -167t126 -140t188.5 -97.5t232.5 -38.5q4 -2 35 -2q29 0 82.5 1t134.5 1q35 0 48 16.5 t13 41.5z" />
<glyph unicode=")" horiz-adv-x="1069" d="M989 1122v13q-1 88 -47.5 167.5t-127 140t-188.5 97t-233 39.5h-33h-217q-37 0 -49 -16.5t-12 -40.5v-152q0 -22 13.5 -36.5t47.5 -16.5l88 -2q60 -1 108.5 -24.5t82 -62.5t52 -90.5t18.5 -107.5q0 -35 -1.5 -93t-4 -125t-5.5 -136.5t-5.5 -127t-4.5 -95.5t-2 -43 q-2 -36 -21 -68.5t-49.5 -56.5t-70.5 -38.5t-84 -15.5h-109q-31 -2 -42 -18t-11 -45v-100q0 -9 1.5 -20t8 -20.5t21 -15.5t39.5 -6h4q129 3 191 4.5t71 1.5q68 2 136 15.5t131 39t117.5 62t95 83.5t64.5 104.5t25 123.5v54t0.5 114.5t0.5 147.5t0.5 153t0.5 131v82z" />
<glyph unicode="*" horiz-adv-x="1229" d="M1188 948q0 14 -12 35q-1 3 -12.5 23t-27.5 49t-34.5 62t-35 62t-28 49t-12.5 23q-11 21 -33 21q-6 0 -13 -2.5t-15 -5.5q-1 -1 -11.5 -10.5t-26.5 -24.5t-36.5 -34t-41.5 -39q-49 -47 -110 -105q30 86 53 154q10 29 19 56.5t16.5 49.5t12 35.5l4.5 13.5q-2 23 -14 35 t-46 14q-3 1 -25.5 1t-55.5 0.5t-70.5 1t-70 1t-55.5 0.5h-26q-21 0 -31 -13.5t-12 -35.5q0 -1 3 -14.5t8 -35t11.5 -48.5t13.5 -55q16 -66 36 -148q-59 68 -107 122q-20 23 -39.5 45t-34.5 39.5t-24.5 28.5l-9.5 11q-15 6 -27 6q-11 0 -21.5 -7t-23.5 -24q-1 -3 -13 -23 t-28.5 -48.5t-36 -61t-36 -61t-28 -48.5t-13.5 -22q-7 -11 -7 -21q0 -12 8.5 -21.5t20.5 -19.5q1 -1 14 -5t34 -10t47.5 -14t53.5 -16q64 -19 146 -43q-89 -18 -159 -32q-30 -6 -58.5 -12t-51 -10.5t-36.5 -7.5l-14 -3q-11 -8 -18 -17.5t-7 -21.5q0 -8 2.5 -16.5t7.5 -20.5 q2 -2 13 -22t27 -48.5t35 -61.5t35 -62t27.5 -49t12.5 -23q6 -11 14.5 -15t17.5 -4q18 0 31 9q1 0 11.5 9.5t26 24.5t35.5 34t41 39q48 47 109 106q-28 -86 -51 -155q-10 -29 -19 -57t-16 -50t-11.5 -36l-4.5 -14q2 -23 12.5 -35t44.5 -14q3 0 23 -0.5t49 -1t64 -1t67 -1 t58 -0.5h38h7q21 2 30.5 15.5t9.5 33.5q0 1 -3 14.5t-8 35.5t-11 49t-13 55q-16 66 -36 149q59 -68 107 -122q20 -23 39.5 -45t35 -39t25 -28t10.5 -11q6 -5 13 -7t14 -2q11 0 21.5 7.5t21.5 25.5q2 3 13.5 22.5t28 48t36 61t36 61t28.5 48.5t13 23q3 5 4.5 10.5t1.5 10.5 q0 21 -26 39q-1 0 -14.5 4.5t-34.5 11t-47.5 14.5t-53.5 16q-64 19 -145 44l158 32q30 6 58 11.5t50.5 10t36.5 7l14 2.5q27 17 27 39z" />
<glyph unicode="+" horiz-adv-x="1311" d="M1229 702q0 28 -13 42t-34 14l-330 16q3 70 5.5 132t4.5 108.5t3 74.5t1 29q-3 23 -14.5 35t-46.5 12h-4q-9 1 -35 1t-60 -0.5t-71.5 -1t-69.5 -1t-54.5 -1.5t-25.5 -1q-23 0 -33 -14.5t-10 -36.5v-4q0 -9 0.5 -37.5t0.5 -70.5t0.5 -95.5t0.5 -114.5q-65 3 -122 6t-99 5 t-66.5 3t-25.5 1q-25 -3 -37 -15t-12 -49v-24q0 -18 0.5 -46t0.5 -60t1 -64t1 -59t0.5 -45t0.5 -21q2 -23 15 -33t36 -10l312 2l4 -291q0 -23 11 -34.5t36 -16.5q4 0 24 -1.5t48.5 -4.5t61 -5.5t60.5 -5.5t47.5 -4.5t22.5 -1.5h4q26 0 39.5 13t15.5 34l13 322l319 2 q22 0 34 11.5t15 39.5q1 3 3 22.5t4.5 47.5t5.5 61t6 61t4.5 47.5t1.5 22.5v4z" />
<glyph unicode="," horiz-adv-x="649" d="M567 66l-4 194q0 29 -22 52.5t-60 23.5l-313 -2q-15 0 -30 -5t-27 -14t-19.5 -22.5t-7.5 -30.5q0 -4 -0.5 -26t-0.5 -50.5t-0.5 -57t-0.5 -46.5v-14q2 -32 24 -52t56 -22l168 -2q11 0 14.5 -8.5t3.5 -24.5t-4 -38.5t-11 -47t-15 -50t-17 -48.5q-2 -6 -3 -12.5t-1 -12.5 q0 -17 9.5 -26t23.5 -9q18 0 37 13q33 24 68.5 59t65 78.5t48.5 94.5t18 106z" />
<glyph unicode="-" horiz-adv-x="1313" d="M1231 694q0 26 -13 40t-34 14q-1 0 -30.5 1t-78.5 3.5t-114 5t-138 5.5t-150.5 6.5t-152 6.5t-141.5 5.5t-119.5 5t-86 3.5t-40.5 1h-2q-23 -2 -35 -14.5t-14 -47.5v-2q0 -8 0.5 -34t1 -60t1 -71.5t1 -70t1.5 -55t1 -26.5q2 -23 15 -33t34 -10h8q18 0 70 0.5t125.5 0.5 t161.5 1t177.5 1.5t174 1t150.5 1.5t107 1.5t44 0.5q23 3 34.5 13t14.5 38q1 3 3 22.5t4.5 47.5t6 61t6 61t5 47.5t2.5 22.5v6z" />
<glyph unicode="." horiz-adv-x="649" d="M567 88q0 43 -1 86t-3 86q-2 34 -26 55t-58 21l-311 -2q-15 0 -30.5 -5t-28 -14t-20 -22.5t-7.5 -30.5v-168q0 -42 15 -70t63 -30l311 -2q46 -2 71 24t25 72z" />
<glyph unicode="/" horiz-adv-x="1227" d="M1145 1403q0 -12 -6 -27q0 -1 -18 -39t-48.5 -102.5t-71 -149.5t-86 -181t-93 -197t-93 -197t-86 -181t-71 -149.5t-48.5 -102.5t-18 -40q-29 -53 -88 -53h-4q-3 0 -25 2t-53.5 4.5t-68.5 5.5t-68.5 6t-54 5.5t-25.5 2.5q-20 5 -28.5 12t-8.5 19q0 11 6 27q1 3 16.5 40.5 t42 100t61.5 144.5t74.5 174.5t81 190t81 190t75 175t62.5 145.5t43.5 101t17.5 41q12 25 31 40t45 17q3 0 29.5 0.5t64.5 1.5t82.5 1.5t85 1.5t70.5 1.5t39 0.5h4q27 -2 39 -9.5t12 -21.5z" />
<glyph unicode="0" horiz-adv-x="1972" d="M1911 768v83t-2 44q-4 88 -39.5 168t-95 141t-139.5 98t-175 39q-7 0 -45.5 0.5t-96.5 1t-131 1.5t-150 2t-152 2t-137.5 1.5t-107 1.5t-60.5 1h-9q-108 0 -198 -39t-156 -100.5t-105 -138t-44 -150.5q-1 -18 -2 -64.5t-2 -105.5t-2 -122t-1 -114v-90q2 -53 21 -101.5 t50 -91t72 -77.5t87.5 -61.5t96.5 -43t99 -22.5q12 -1 53.5 -2.5t101.5 -3t134.5 -3t151 -2.5t151 -2t135 -1.5t102.5 -1.5t54 -1h16q108 0 203.5 27.5t166.5 77.5t112.5 121.5t40.5 158.5v9q0 18 0.5 58t0.5 91t0.5 107t0.5 104zM1384 496v-32.5t-2 -21.5q-2 -32 -16 -64.5 t-38 -58t-58 -41.5t-76 -16h-4l-418 10q-68 2 -110 49.5t-46 124.5q-2 11 -2 33.5v52.5v74t0.5 81t0.5 80.5t0.5 71.5t0.5 53.5v27.5q0 41 15.5 72t40 52.5t55.5 33.5t61 14q6 1 34 1t67 0.5t85.5 1t90 1t79 0.5h54.5h14q38 -1 68.5 -16t51.5 -40t32.5 -58.5t11.5 -70.5 q0 -4 0.5 -28t1.5 -60t2 -79.5t2 -88t1.5 -86.5t0.5 -73z" />
<glyph unicode="1" horiz-adv-x="657" d="M616 1317q-3 28 -17.5 42t-55.5 15h-2q-9 0 -42 -0.5t-77.5 -1t-94 -1.5t-92 -1.5t-72 -1t-32.5 -0.5q-28 -2 -37.5 -17.5t-11.5 -39.5v-29q0 -33 0.5 -98.5t0.5 -151t1 -184t1.5 -197t1 -190t1.5 -162.5t1.5 -114.5t0.5 -47.5q5 -26 15.5 -39t41.5 -18q4 0 30.5 -2.5 t64.5 -5.5t81 -6.5t80.5 -6t63.5 -4.5t29 -2l6 -2q29 0 45 14.5t18 40.5q0 1 1.5 35.5t4 93t5.5 135.5t7 164t7.5 178t7.5 177.5t7 164t5.5 135.5t4 92.5t1.5 35.5z" />
<glyph unicode="2" horiz-adv-x="1868" d="M1837 481q0 32 -9.5 41.5t-31.5 9.5h-4l-399 -4q-59 0 -62 -57l-2 -39q-1 -24 -12 -46t-30 -39.5t-46 -28t-59 -11.5h-6q-13 0 -46.5 0.5t-76 1t-89 1t-87.5 1t-71.5 1t-39.5 1.5q-19 2 -41.5 7.5t-41.5 19t-31.5 36t-12.5 56.5q0 35 14 59t36 39t49 22.5t53 10.5l684 99 q58 8 119.5 33.5t112.5 67t83.5 99.5t32.5 131q0 84 -34.5 146t-92 106t-132 72t-153 44t-156 22t-141.5 6q-30 0 -69.5 -0.5t-83.5 -1t-91 -1t-91 -1.5q-104 -2 -216 -5q-121 -1 -215.5 -33.5t-160 -81.5t-101 -107.5t-37.5 -113.5q-1 -31 -3 -57q-2 -23 -3 -45t-2 -33v-12 q0 -31 10 -40t33 -9l469 4q63 0 63 59v72q0 24 11.5 46.5t31.5 40t47.5 28t59.5 10.5h6h46t75.5 -0.5t89.5 -1t88 -1t71.5 -0.5t39.5 -1q19 -1 42 -7.5t42.5 -21t33 -37t13.5 -57.5t-12 -60t-31.5 -42t-43.5 -26t-48 -13l-643 -97q-212 -32 -310 -121.5t-98 -240.5 q0 -96 11 -162.5t36 -108.5t64.5 -60.5t97.5 -18.5l1048 6q102 1 174 6.5t121.5 22t79.5 46t46.5 78t23 118t8.5 165.5v8z" />
<glyph unicode="3" horiz-adv-x="1815" d="M1784 1055q0 71 -29 125.5t-77.5 94.5t-111 67.5t-129 44t-132 23.5t-119.5 7q-88 0 -221 -2t-297 -4q-128 -1 -241.5 -31.5t-198.5 -84t-135 -127.5t-52 -162v-9q0 -29 10 -38t33 -9h2l463 4q62 3 65 54q2 36 20.5 64t49 47.5t70 30t82.5 11.5h4q9 0 28.5 -0.5t44.5 -1 t53.5 -1t54 -1t46.5 -1.5t31 -1q30 -1 58 -9t49.5 -23.5t34.5 -38t13 -54.5q0 -17 -5 -37t-21.5 -39t-48 -34.5t-84.5 -24.5q-106 -16 -209.5 -22.5t-202.5 -18.5q-43 -6 -55.5 -23t-12.5 -38v-11q2 -28 7 -54.5t8 -49.5q6 -37 28.5 -48.5t71.5 -11.5q42 -1 89 -2t91.5 -2.5 t83.5 -3.5t64 -4q45 -4 79 -13t56.5 -25t33.5 -41t11 -62q0 -71 -39 -102.5t-115 -36.5q-10 0 -34 -0.5t-56 -1t-67.5 -1t-67.5 -1t-57.5 -0.5h-36.5h-6q-34 0 -62.5 9.5t-48.5 25.5t-31.5 37.5t-13.5 45.5l-2 33q-3 59 -63 59l-420 7h-2q-23 0 -33 -11t-10 -45v-8 q0 -22 0.5 -56t5.5 -69q7 -66 50 -122.5t115 -98.5t168.5 -66t209.5 -26q81 -1 170 -2.5t173 -2t155 -1t116 -0.5q120 0 219.5 25.5t171 71.5t111 110.5t39.5 142.5t-25.5 136t-78 99t-133.5 68t-191 45h-7q43 9 92 21.5t98.5 30t95 41.5t80.5 57t56 76.5t21 99.5z" />
<glyph unicode="4" horiz-adv-x="1700" d="M1638 117q0 11 -0.5 66t-1.5 137.5t-2 184.5t-2 207t-2 205.5t-2 179.5t-1.5 129t-0.5 54q0 34 -18 48.5t-45 14.5q-4 1 -25 1.5t-52.5 1t-69.5 1l-76 1t-71.5 0.5h-56.5h-32q-57 -3 -60 -64v-8v-53.5t0.5 -87.5t1 -108.5t1.5 -117.5q2 -138 3 -303l-548 21 q109 158 196 286q37 54 73 107t65 96t47.5 71.5t21.5 33.5q14 20 14 39q0 24 -20.5 37.5t-54.5 15.5h-25h-57t-75 -0.5t-81 -0.5t-75 -0.5t-56.5 -0.5h-26.5q-34 -2 -56 -17.5t-38 -46.5q-4 -8 -23 -44.5t-48.5 -91.5t-65.5 -123t-74 -138t-74 -137.5t-65 -121.5t-48 -89.5 t-22 -42.5q-10 -25 -10 -41q0 -25 18 -42.5t60 -17.5l1007 -6q0 -55 1 -101q1 -39 2 -75.5t2 -48.5q2 -37 19.5 -53.5t55.5 -18.5q4 0 35.5 -0.5t76.5 -0.5t96.5 -1t96 -1t75.5 -0.5t34 -0.5h2q28 0 41.5 18t15.5 46v2z" />
<glyph unicode="5" horiz-adv-x="1747" d="M1716 428q0 72 -30 126.5t-78 93t-109 61t-123 30.5l-698 97q-34 5 -54 21t-20 50q0 3 1 13t2.5 21t2.5 20.5t2 11.5q5 43 26 60.5t69 17.5l387 -4q37 0 59.5 -21.5t22.5 -58.5l2 -56q2 -28 16 -42.5t45 -14.5l401 -6q23 0 34 11.5t9 43.5l-14 293q-5 78 -42 107.5 t-105 29.5l-1219 -2q-37 0 -62.5 -6.5t-42.5 -21t-27.5 -38t-16.5 -57.5q-3 -11 -8 -45t-10.5 -78.5t-11.5 -93.5t-11 -90.5t-8 -69.5t-3 -30q5 -29 16 -50t40 -24l909 -127q33 -4 56.5 -14.5t38 -29t21.5 -46.5t7 -68q0 -35 -13.5 -58.5t-34 -37t-43.5 -19t-42 -5.5 l-328 -7q-32 -1 -59 9.5t-46 28.5t-30 40.5t-12 46.5q-1 6 -1.5 16t-0.5 21v21v16q0 57 -62 57q-12 0 -47 1.5t-81 4.5t-97 5.5t-95.5 5.5t-75.5 4.5t-38 1.5h-4q-22 0 -30.5 -10.5t-8.5 -42.5v-9v-29.5t0.5 -43t2 -46.5t3.5 -40q6 -54 42 -112.5t100.5 -108t158 -81.5 t213.5 -34l572 -4q58 0 123.5 9t130.5 29t124.5 51.5t105 76t72.5 101.5t27 128z" />
<glyph unicode="6" horiz-adv-x="1710" d="M1669 395q0 75 -24.5 142.5t-84.5 119t-162 83t-257 32.5l-549 2q-1 40 -2 73q-1 28 -1.5 53.5t-0.5 31.5v6q1 37 14 63t32 43.5t41 25.5t40 9q10 1 32.5 1.5t51.5 1t61 1t61 1t52 1t33 0.5h6q32 -1 59.5 -10.5t47.5 -26t31 -38.5t11 -47v-60q0 -63 62 -63l399 -6h2 q22 0 31.5 12t9.5 47v6v20.5t-0.5 21t-2 25l-3.5 31.5q-7 69 -48 132.5t-108.5 112.5t-158.5 79t-199 31l-627 8q-39 0 -84 -9t-90 -27t-87.5 -46t-76.5 -65t-57 -84.5t-29 -104.5q-4 -42 -10 -105.5t-11 -132.5t-8.5 -136.5t-3.5 -119.5v-31t2 -26q5 -73 34 -147.5t85 -136 t140.5 -103t199.5 -49.5q13 0 56 -1.5t101 -3.5t124.5 -4t126.5 -4t105.5 -3t62.5 -1h22q111 0 195 17t145 46t101.5 66.5t64 79.5t33.5 84.5t10 81.5zM1157 434q0 -19 -8.5 -41.5t-26.5 -41.5t-46.5 -31.5t-69.5 -12.5h-19h-54.5h-67.5t-62 0.5t-37 1.5q-32 3 -60 10 t-49 21t-34.5 35.5t-18.5 52.5q0 2 -0.5 18t-0.5 36.5t-0.5 41t-0.5 29.5l414 -4q26 0 51 -9t45 -24.5t32.5 -36.5t12.5 -45z" />
<glyph unicode="7" horiz-adv-x="1548" d="M1569 1278q0 38 -33 56t-102 18h-109.5t-172 -0.5t-211 -0.5t-227.5 -0.5t-220.5 -1t-190.5 -1t-137.5 -1t-61.5 -1.5q-34 -2 -54.5 -12.5t-22.5 -41.5q-1 -14 -2 -32t-2 -37.5t-2 -38.5t-1 -35v-14q0 -31 12.5 -46t55.5 -18q8 -1 48.5 -3t101 -5t135 -6.5t150.5 -7.5 q180 -9 403 -19l-586 -866q-14 -20 -14 -39q0 -25 20 -40t49 -17h30.5h54.5t70.5 -0.5t77.5 -0.5q92 -1 203 -1h3q32 0 54.5 14.5t41.5 46.5q150 257 275 472q53 92 106 183t97.5 168.5t77.5 135t46 81.5q37 72 37 111z" />
<glyph unicode="8" horiz-adv-x="1739" d="M1700 408q0 65 -27.5 116t-71 90t-98 67.5t-108.5 47.5q49 18 96.5 45t84.5 63.5t60 83.5t23 105q0 51 -14 97.5t-48 86.5q-35 42 -89.5 71t-119.5 48t-136.5 30t-141 16.5t-133.5 7t-113 1.5q-47 0 -111 -1t-134 -6t-142.5 -16t-138 -30.5t-119 -49t-86.5 -71.5 q-31 -40 -42 -87t-11 -97q0 -58 21 -105t56 -83.5t81 -63.5t96 -45q-55 -19 -108 -47.5t-94 -67.5t-66 -90t-25 -116q0 -50 9 -98.5t38 -90.5q32 -48 88.5 -81t126 -54.5t147.5 -33.5t153.5 -17.5t143.5 -6.5t117 -1q52 0 120 1.5t143 7.5t152 18t146.5 34t127 54.5 t92.5 78.5q31 42 43 90t12 99zM1192 981v-35t-2 -37q-3 -24 -19.5 -39t-39 -23t-47 -10.5t-44.5 -2.5h-340q-21 0 -47 3.5t-48.5 13.5t-38 27.5t-17.5 45.5q0 14 -1 27.5t-1 27.5q0 27 15 44.5t37 28t47 14.5t46 5l342 4q20 1 47 -4t52 -16t42 -29.5t17 -44.5zM1188 453 q0 -27 -16 -44.5t-39.5 -28t-50 -14.5t-46.5 -4l-342 -4q-20 0 -45.5 4.5t-48.5 14.5t-39 27t-16 42q0 17 1 35.5t3 36.5q3 24 19 39t38.5 24t47 12t44.5 3q85 0 169.5 -1t170.5 -3q18 -1 44 -4.5t49.5 -13t40 -26t16.5 -42.5v-53z" />
<glyph unicode="9" horiz-adv-x="1651" d="M1630 889q0 104 -30.5 186.5t-88.5 142t-141 94.5t-188 42q-13 1 -54 2t-96.5 3t-118.5 4t-120 4t-101 3.5t-61 1.5h-21q-111 0 -195 -19.5t-145.5 -52.5t-102.5 -75.5t-65.5 -87.5t-34.5 -90.5t-10 -83.5q0 -75 31.5 -141.5t100.5 -117.5t178 -82t264 -36q34 -1 74 -2 t82 -1.5t84.5 -1.5t81.5 -1q92 -1 186 -2q0 -41 1 -74q1 -29 1 -53v-27q0 -37 -12.5 -60.5t-31.5 -36t-41.5 -17.5t-41.5 -7q-13 -1 -48.5 -2.5t-76 -2t-77.5 -1t-52 -0.5h-8q-65 2 -105.5 25t-42.5 75l-2 58q0 60 -61 63l-447 6h-2q-22 0 -31.5 -12t-9.5 -47v-6 q0 -23 1 -41t5 -53q6 -69 48 -131t111 -109.5t161.5 -76t200.5 -30.5q70 -1 148 -3t153 -3.5t141.5 -2.5t114.5 -1h34q58 1 128 20.5t133 59.5t108.5 102t54.5 148q3 28 7 69.5t8 90.5t8 102.5t7 105t5 99t2 84.5zM1128 803l-415 4q-25 1 -50.5 9.5t-46 25t-33 41 t-12.5 57.5q0 20 8.5 45t27.5 47t48 37t70 16h16q20 0 54 -0.5t68.5 -1t62.5 -1t37 -1.5q66 -6 109 -47t54 -106v-17.5v-37t0.5 -40.5t1.5 -30z" />
<glyph unicode=":" horiz-adv-x="649" d="M567 604q0 44 -1 86.5t-3 85.5q-2 34 -25 55t-57 21h-291q-18 0 -37 -3t-34.5 -10.5t-26 -21.5t-10.5 -37v-180q0 -38 18 -62t60 -24l311 -4q46 0 71 24.5t25 69.5zM567 88q0 43 -1 86t-3 86q-2 34 -26 55t-58 21l-311 -2q-15 0 -30.5 -5t-28 -14t-20 -22.5t-7.5 -30.5 v-168q0 -42 15 -70t63 -30l311 -2q46 -2 71 24t25 72z" />
<glyph unicode=";" horiz-adv-x="649" d="M567 604q0 44 -1 86.5t-3 85.5q-2 34 -25 55t-57 21h-291q-18 0 -37 -3t-34.5 -10.5t-26 -21.5t-10.5 -37v-180q0 -38 18 -62t60 -24l311 -4q46 0 71 24.5t25 69.5zM567 66l-4 194q0 29 -22 52.5t-60 23.5l-313 -2q-15 0 -30 -5t-27 -14t-19.5 -22.5t-7.5 -30.5 q0 -4 -0.5 -26t-0.5 -50.5t-0.5 -57t-0.5 -46.5v-14q2 -32 24 -52t56 -22l168 -2q11 0 14.5 -8.5t3.5 -24.5t-4 -38.5t-11 -47t-15 -50t-17 -48.5q-2 -6 -3 -12.5t-1 -12.5q0 -17 9.5 -26t23.5 -9q18 0 37 13q33 24 68.5 59t65 78.5t48.5 94.5t18 106z" />
<glyph unicode="&#x3c;" horiz-adv-x="1208" d="M1126 1108q0 -13 -0.5 -36.5t-0.5 -52t-1 -58.5t-1 -55.5t-0.5 -42t-0.5 -19.5q0 -22 -13.5 -40t-35.5 -26l-553 -139l576 -152q14 -6 19 -14.5t5 -19.5v-2l-8 -281q0 -23 -11 -35t-30 -12q-8 0 -16.5 2.5t-18.5 5.5l-38.5 14t-101 36.5t-143 51t-164.5 58.5t-166 59 t-147.5 52.5t-108 39t-48.5 17.5q-16 8 -26.5 23.5t-10.5 35.5l2 262q0 25 7.5 36t29.5 18l934 315q9 2 16.5 3t13.5 1q17 0 29 -8t12 -27v-10v0z" />
<glyph unicode="=" horiz-adv-x="1311" d="M1229 772q0 22 -0.5 59.5t-1.5 74.5t-1.5 65.5t-0.5 32.5q-2 23 -16 32t-35 11h-29q-31 0 -90 -0.5t-133.5 -1t-159.5 -1t-169 -1t-162 -1.5t-138 -1.5t-97 -1.5t-40 -1q-22 -3 -34.5 -13t-17.5 -36q0 -3 -1.5 -18t-4 -35.5t-5.5 -44t-5.5 -44t-4 -35t-1.5 -17.5v-4 q0 -26 12.5 -40t34.5 -16q1 0 30 -1t78 -3.5t114 -5t138 -5.5t150.5 -6.5t152 -6.5t141.5 -5.5t119.5 -5t85.5 -3.5t40 -1h2q24 2 36.5 14.5t12.5 47.5v18zM1229 463q0 26 -12.5 39.5t-32.5 15.5q-2 0 -46 2t-116 5t-163 6.5t-187 8t-189 8t-168 6.5t-124.5 5t-57.5 2h-2 q-23 -2 -35 -14t-14 -47v-4q0 -8 0.5 -29t0.5 -47.5t1 -55.5t1 -54t0.5 -42t0.5 -20q0 -23 14.5 -32t34.5 -11h10q19 0 71.5 0.5t126 1t161.5 1t177 1.5t173.5 2t150 1.5t106.5 1.5t44 1q23 2 34.5 12t14.5 35q1 4 3 19t4.5 36t5.5 45t6 44.5t4.5 35t1.5 17.5v4z" />
<glyph unicode="&#x3e;" horiz-adv-x="1208" d="M1126 498q0 -25 -8.5 -36.5t-30.5 -19.5l-933 -313q-16 -6 -31 -6q-17 0 -28 9t-13 26v10q0 13 0.5 37.5t1 53t1.5 58.5t1.5 55.5t1 42.5t0.5 19q0 22 12.5 39t34.5 25l555 141l-575 149q-14 7 -19.5 16t-5.5 21v2l6 281q2 23 13.5 34t29.5 11q17 0 33 -8q1 0 39.5 -13.5 t101 -36t143 -51t164.5 -58.5t166 -59t147.5 -52.5t108 -39t48.5 -18.5q17 -6 27.5 -22.5t8.5 -36.5v-260z" />
<glyph unicode="?" horiz-adv-x="1735" d="M1755 1032q0 71 -26.5 127t-71 98.5t-102.5 72.5t-121.5 50t-127.5 30.5t-120 14.5q-23 2 -56 2h-73q-55 0 -121.5 -0.5t-135 -2t-135.5 -2.5t-124 -3q-121 -1 -214.5 -33.5t-158 -81t-100.5 -107t-41 -112.5q-3 -17 -4 -36.5t-2 -38.5t-1 -35.5v-26.5v-6q0 -34 10 -44.5 t31 -10.5h2l469 6q29 2 44.5 15t17.5 44l2 72q1 24 12 46t30 39.5t46 28t59 11.5h7q12 0 41.5 -0.5t68 -1t80.5 -1t79 -1t65 -1t38 -1.5q18 -1 40.5 -7t42 -19.5t33 -36.5t13.5 -58q0 -36 -12 -59.5t-31 -38.5t-43 -24t-47 -17q-23 -7 -43.5 -14t-50 -16t-73 -21t-111.5 -29 q-46 -11 -96.5 -22.5t-99.5 -27t-93 -35.5t-77.5 -48.5t-53 -66t-19.5 -87.5q0 -18 3 -33.5t12 -26.5t26 -17t45 -5l351 8q11 0 25.5 3t27.5 13t22 29t9 50q0 27 5.5 42.5t19.5 25.5t38.5 17.5t63.5 16.5q38 9 98.5 22.5t126 28.5t126 29t97.5 24q42 11 87.5 33.5t83.5 57.5 t62.5 84.5t24.5 113.5zM905 66l-4 194q0 29 -21.5 52.5t-58.5 23.5l-313 -2q-15 0 -30.5 -5t-28 -14t-20 -22t-7.5 -29l-2 -196q0 -32 22 -52t56 -22l311 -2h2q43 0 68.5 23t25.5 51z" />
<glyph unicode="@" horiz-adv-x="2034" d="M1972 696v250q0 89 -35 168.5t-96 140.5t-142.5 97.5t-174.5 38.5q-8 0 -48 1t-101.5 1.5t-138.5 1.5t-158 2t-159.5 2t-144 1.5t-112 1.5t-62.5 1h-10q-108 0 -199.5 -39t-158.5 -100.5t-105 -138.5t-39 -152l-6 -496q0 -54 17.5 -104t48 -94t72 -80.5t89 -62.5 t98.5 -41t101 -15l936 -14q130 -4 238.5 34.5t181.5 106.5q20 18 27 31t7 22q0 19 -20.5 25t-48.5 8l-1241 4q-35 0 -65.5 14t-53 38.5t-35 59t-12.5 74.5l4 500q0 43 16 77t41.5 57t58 35.5t64.5 12.5l850 2q40 0 72 -15.5t54.5 -42t34.5 -61.5t13 -73q0 -7 1 -38.5 t2 -76.5t2 -99.5t1 -107.5q0 -6 1 -12t1 -12q0 -18 -2 -36t-8.5 -32.5t-20 -23.5t-36.5 -9t-37 8.5t-21.5 22t-9.5 29t-2 28.5v21q3 62 5.5 118t5 102t3.5 78t1 44v6q-7 49 -60 49l-213 -2q-5 -1 -13.5 -2t-16.5 -5.5t-13.5 -13.5t-5.5 -26v-31q-52 19 -113 35 q-52 14 -119 24.5t-141 10.5q-58 0 -106.5 -18t-83 -47.5t-54 -67t-20.5 -76.5l-2 -199q-1 -39 19 -74t51.5 -61.5t71 -42t77.5 -16.5l238 -8q25 -1 47 3t41 11.5t35.5 16.5t29.5 19q31 23 54 52q13 -39 55 -70q18 -13 44 -26t62.5 -23t84 -16t108.5 -6q122 0 199.5 26.5 t122 71t61 102.5t16.5 121zM1198 647q0 -20 -18 -37.5t-47 -17.5h-3l-253 4q-22 2 -37 15t-15 38l2 156q1 13 7 23t14.5 16.5t18 10t18.5 3.5h260q28 0 40.5 -17.5t12.5 -37.5v-156z" />
<glyph unicode="A" horiz-adv-x="1772" d="M1751 29q0 14 -6 32q-1 3 -21 56t-52 137.5t-72 191.5t-82 218.5t-82.5 218.5t-72 191l-51 136t-20.5 54q-9 23 -20.5 32t-42.5 9l-1069 -5q-23 0 -36 -11t-18 -29q-1 -5 -3 -16.5t-4.5 -25t-4.5 -26.5t-2 -21q0 -24 10 -35t29 -14l236 -26q34 -5 53.5 -24.5t19.5 -51.5 q0 -12 -2 -25.5t-8 -27.5q-1 -3 -18.5 -39t-45 -93t-63 -129.5t-73 -147.5t-73 -147t-63 -128t-45 -91t-18.5 -36q-5 -11 -8 -20t-3 -17q0 -20 14 -32.5t40 -14.5l346 -17h4q12 0 22.5 6.5t18.5 20.5q1 2 7.5 15.5t16.5 34t22 46t25 52.5q30 62 66 141l522 6l142 -326 q11 -25 31.5 -40t48.5 -15q3 0 27.5 -1t61.5 -2t80 -3t82 -3t68.5 -2t38.5 -1h2q23 0 34 12.5t11 32.5zM1059 600l-373 16l209 406z" />
<glyph unicode="B" horiz-adv-x="1968" d="M1948 467q-1 88 -36 149.5t-85 101t-105 59.5t-96 26q35 18 68.5 44t59.5 61.5t42 81t16 102.5q0 71 -28.5 134.5t-76.5 112.5t-111 80t-132 37q-14 1 -57.5 3t-108.5 4.5t-147 5t-171.5 5.5t-182.5 5.5t-180.5 5t-165.5 5t-137 4t-95.5 2.5t-40.5 1h-4q-29 2 -45 -11.5 t-18 -45.5q0 -4 -1 -42t-2 -99.5t-2 -142.5t-2.5 -171.5t-3 -185.5t-2.5 -185.5t-2 -170.5t-2 -141t-1.5 -97.5t-0.5 -38.5v-6q0 -45 18 -65.5t66 -20.5h4q372 7 674 13q129 3 254.5 5.5t229 5t173.5 5t88 3.5q67 6 130.5 36t112 78t78 111.5t28.5 135.5zM1229 1081v-4 q0 -78 -35.5 -128t-106.5 -50h-460l-17 352l449 -8q38 -1 70 -12.5t54.5 -32.5t34.5 -51t11 -66zM1368 487q0 -37 -12.5 -67t-35 -51.5t-54.5 -33t-70 -11.5l-479 -7q-2 45 -5 104.5t-6 115.5q-4 65 -6 133l527 -2q72 -2 106.5 -52t34.5 -129z" />
<glyph unicode="C" horiz-adv-x="1726" d="M1665 465v8q0 19 -14.5 37t-46.5 20q-11 0 -41 0.5t-68 1.5t-80 2.5t-78 2.5t-61 1.5t-29 0.5q-12 0 -29 -13t-20 -39q-2 -21 -3.5 -50t-4.5 -46t-11 -36t-23.5 -35.5t-38.5 -27.5t-56 -11l-334 2q-33 0 -61 13t-48 35t-30.5 51t-9.5 60l4 486q1 38 15 66t34.5 47.5 t44 30t41.5 11.5q10 1 35.5 1.5t59 1t70.5 1.5t70.5 1.5t59 1t35.5 0.5h2q33 0 59 -11.5t44.5 -30.5t28 -43.5t9.5 -50.5v-45q0 -31 13 -45t44 -16l365 -6h2q25 0 34.5 13t10.5 54v62v51q-3 58 -35 121.5t-85 117.5t-123 89t-150 36l-738 5q-39 1 -83 -11t-88 -35.5 t-85.5 -56.5t-75 -75.5t-56.5 -93t-31 -107.5q-2 -10 -6 -48.5t-9.5 -93.5t-11 -119.5t-10.5 -126.5t-8 -115.5t-3 -86.5v-8q1 -38 14 -82.5t36 -88.5t55.5 -85.5t74.5 -74t92 -52t107 -21.5l787 -18q68 -2 139 26.5t132 76.5t104 109.5t55 125.5q2 13 3.5 31.5t2.5 38 t1.5 37t0.5 28.5z" />
<glyph unicode="D" horiz-adv-x="2003" d="M1962 397v47.5t-0.5 95t-0.5 119t-0.5 119t-0.5 95v47.5q0 66 -24 123t-64.5 104t-95.5 83.5t-118 61.5t-131.5 39t-135.5 15l-1567 28h-2q-34 0 -50 -18t-16 -41l-2 -62v-4q0 -35 20 -48t60 -13l168 -4q32 -1 58.5 -9t45.5 -25t30 -43.5t11 -62.5v-12q0 -6 -0.5 -51.5 t-1 -115.5t-1 -158t-1.5 -179.5t-1.5 -178.5t-1 -156t-1 -112.5t-0.5 -47.5q0 -18 3.5 -33.5t13.5 -26.5t27.5 -17t45.5 -7h13h81t140.5 0.5t178.5 1t195.5 0.5t191.5 0.5t166.5 1t120 0.5h52.5q125 2 233 38.5t188.5 97.5t126.5 140.5t46 167.5zM1421 504v-29 q-1 -45 -19.5 -91t-51.5 -83.5t-80.5 -61.5t-108.5 -24h-481l-8 920l504 -9q44 -1 83.5 -15t70 -38t49 -56t20.5 -67q1 -5 2.5 -31.5t4 -66t5 -87l5 -95t4 -91.5t1.5 -75z" />
<glyph unicode="E" horiz-adv-x="1696" d="M2105 1217l-6 165q-2 29 -16 42.5t-49 13.5l-1874 59h-4q-60 0 -60 -63q-3 -342 -7 -620q-1 -79 -2 -157.5t-1.5 -151t-1.5 -137t-1.5 -114.5t-0.5 -83v-44v-4q1 -20 3.5 -34.5t11 -23.5t25 -13.5t44.5 -4.5l1403 -2q29 0 50 10.5t23 42.5l7 172q0 29 -13 47t-51 21 l-876 53l-4 174l542 35q25 2 41.5 16.5t16.5 38.5l-7 131q-2 22 -16 32.5t-45 12.5l-604 21l-2 315l1419 -4q58 0 55 54z" />
<glyph unicode="F" horiz-adv-x="1378" d="M2095 1290l-10 166q-3 31 -17 42t-49 11l-1876 31h-2q-59 3 -59 -61q0 -358 1 -643q0 -81 0.5 -161t0.5 -153t0.5 -136t0.5 -110.5t0.5 -76t0.5 -33.5q0 -20 3 -34.5t12.5 -23.5t27 -13.5t45.5 -4.5h6h36.5t60 0.5t74 1t79.5 1.5q93 2 205 3q18 0 33.5 4.5t26.5 14.5 t17 26.5t5 40.5l-12 436l540 44q25 2 41 16t14 39l-8 131q0 22 -14.5 32.5t-46.5 12.5l-604 12l-6 314l1419 16q26 0 41.5 14.5t13.5 40.5z" />
<glyph unicode="G" horiz-adv-x="1761" d="M1710 565v39q-2 19 -16 38.5t-43 19.5l-756 -15q-26 0 -40.5 -13.5t-14.5 -35.5l2 -117q0 -20 14.5 -33.5t42.5 -13.5h340q-2 -12 -3 -24.5t-1 -18.5q-2 -17 -10 -36t-23.5 -35.5t-38.5 -27.5t-55 -11l-336 2q-32 0 -58.5 13t-46 35t-31.5 51t-15 60v31q0 27 0.5 70t1 92 t1.5 100t1.5 92.5t1 69t0.5 31.5q2 38 16 66.5t34 48t43 29.5t42 11l332 7q32 1 58 -10.5t44.5 -30.5t28.5 -44t10 -51v-45q0 -31 14 -45t43 -16l369 -6q23 0 33 13t10 54v113q0 58 -31.5 121.5t-85 117.5t-125 89t-151.5 36l-736 5q-39 1 -86 -11t-94.5 -35.5t-93.5 -56.5 t-83.5 -75.5t-63 -93t-33.5 -107.5q-1 -10 -5.5 -49t-10 -93.5t-12 -119.5t-11 -127t-8 -115.5t-2.5 -85.5v-8q1 -38 15.5 -82.5t41.5 -88.5t64.5 -85.5t83 -74t98.5 -52t110 -21.5l787 -18q46 -1 93 11.5t92.5 36t86.5 55.5t73.5 70t54.5 80t30 85q2 11 3.5 39t2.5 63 t1.5 71t0.5 62z" />
<glyph unicode="H" horiz-adv-x="1825" d="M1743 162q0 26 -0.5 85.5t-1 140.5t-1.5 175.5t-2 190t-2 184.5t-1.5 158.5t-1 113t-0.5 47.5q0 32 -16 47t-44 15q-4 0 -30 0.5t-63.5 0.5t-81 1t-81 1t-64.5 0.5t-32 0.5q-57 -6 -57 -61v-490l-613 19q4 113 7 205q1 39 2 77.5t2 70t1.5 53t0.5 26.5v2q0 29 -14 46 t-60 17h-25h-56h-76h-83t-77 -0.5t-59 -0.5t-28 -1q-32 -2 -45 -14t-18 -47q0 -3 -2 -51.5t-5 -125.5t-6.5 -175t-7.5 -200t-7.5 -200t-6.5 -175.5t-4.5 -126t-1.5 -52.5v-6q0 -32 14 -53t56 -23l469 -6h2q38 0 52.5 20t14.5 55l10 424l492 -2q2 -97 4 -175l2 -66t1.5 -60 t1.5 -46t1 -25q2 -35 18 -51.5t54 -16.5q4 0 35 -0.5t76 -1t97 -1t97 -1t75.5 -1t33.5 -1.5h4q26 0 38.5 18t12.5 45v17z" />
<glyph unicode="I" horiz-adv-x="657" d="M616 1251q-3 25 -17.5 40.5t-55.5 15.5h-2q-9 0 -42 -0.5t-77.5 -1t-94 -1t-92 -1.5t-72 -1.5t-32.5 -1.5q-28 0 -37.5 -16t-11.5 -41v-29q0 -34 0.5 -100t0.5 -152t1 -184.5t1.5 -196.5t1 -188.5t1.5 -161t1.5 -114.5t0.5 -47q5 -25 15.5 -39t41.5 -19q4 0 30.5 -2.5 t64.5 -5.5t81 -6t80.5 -5.5t63.5 -4.5t29 -2h6q60 0 63 53q0 2 1.5 36.5t4 92.5t5.5 135t7 163.5t7.5 178t7.5 178t7 163.5t5.5 135.5t4 93t1.5 36.5z" />
<glyph unicode="J" horiz-adv-x="1675" d="M1634 1321q-2 40 -16 58.5t-45 23.5l-891 -6q-22 0 -39.5 -12.5t-17.5 -41.5v-2l2 -96q0 -31 17 -46t42 -15h2l262 4h4q38 0 67.5 -15.5t49.5 -39.5t31 -52t12 -53q1 -116 2 -220q0 -44 0.5 -90t1 -87.5t0.5 -76.5v-58q0 -16 -1 -24.5t-1 -10.5q-1 -38 -15.5 -67 t-34.5 -49t-43 -30t-42 -10l-330 -6q-31 -1 -57.5 10t-45 29.5t-29 42.5t-9.5 49l2 53q0 58 -59 58l-365 8h-2q-23 0 -34 -13.5t-11 -54.5v-112q0 -58 31.5 -122.5t85 -118t125 -88.5t151.5 -36l737 -6q59 0 127 27t129.5 76.5t106.5 120t57 157.5q1 8 3.5 52t5.5 111.5 t7 151t8 169.5t7 168t6 146t4.5 103.5t1.5 40.5z" />
<glyph unicode="K" horiz-adv-x="1741" d="M2355 -176q0 28 -17 40.5t-40 12.5q-8 0 -29 0.5t-49 1t-60 1.5t-61 2t-52 1.5t-34 1.5q-55 0 -100 8t-83.5 24t-71 40.5t-62.5 58.5q-16 18 -37.5 53.5t-45 79.5t-47.5 93t-45.5 92t-39 77t-27.5 48q-24 35 -63 68.5t-91.5 60.5t-118 44t-143.5 19l-80 2l695 496 q11 7 20 16q8 8 13.5 16.5t5.5 18.5q0 19 -12.5 31.5t-37.5 15.5q-4 1 -20 1.5t-37.5 1.5t-46 2t-45.5 1.5t-35.5 1t-17.5 0.5q-23 0 -35 -2t-23 -10q-2 -1 -39.5 -28t-99 -71t-140 -100.5t-162 -116.5t-166.5 -119.5t-152 -109.5l-5 570q0 32 -16.5 46.5t-56.5 14.5h-13 h-362q-34 0 -45.5 -17t-13.5 -40q0 -4 -1 -55.5t-3.5 -134.5t-5 -188.5t-5 -216.5t-5 -218.5t-5 -195.5t-3.5 -147t-1 -73v-4q2 -40 16 -58t45 -20q5 -1 34.5 -2.5t72 -3t91.5 -3t93 -2.5t77.5 -2t43.5 -1h2q62 0 68 65v45v71v97t-0.5 117t-1.5 131l102 -2 q88 -2 143.5 -31.5t94.5 -77.5q10 -12 34 -49t55.5 -87.5t68 -109.5t72.5 -113.5t68 -100t54 -70.5q37 -41 84 -68t101 -44t113 -25t120 -10q9 -1 50 -1.5t98 -1.5t122 -2t121.5 -2t96.5 -1.5t48 -0.5h2q17 0 29.5 6t21.5 15t14.5 19.5t6.5 19.5q5 18 8.5 38.5t3.5 49.5z " />
<glyph unicode="L" horiz-adv-x="797" d="M2107 -197q2 26 -13.5 42t-43.5 16l-1384 43q12 351 23 629q3 79 6 157t5.5 149t4.5 132t4 106.5t3 72.5t1 30v10q0 37 -20 57.5t-62 22.5q-7 0 -42 1t-83.5 2.5t-105 3.5t-105 3.5t-83.5 2.5t-42 1h-2q-28 -1 -45 -5t-26 -13t-11.5 -23.5t-3.5 -34.5v-4v-51t0.5 -97.5 t1.5 -134.5t1.5 -162t1.5 -179l2 -186q4 -329 7 -736q0 -68 64 -68l1876 -4q35 0 49 11.5t16 42.5z" />
<glyph unicode="M" horiz-adv-x="2515" d="M2474 113v4q0 5 -3 55t-8 128.5t-11.5 178t-13.5 202.5t-13.5 201.5t-12 176.5t-9 126.5t-3.5 51.5q-1 18 -8.5 29.5t-17 18t-20.5 9.5t-19 4q-5 0 -43.5 1.5t-93.5 4t-119.5 5t-122 5t-100.5 4t-56 1.5h-6q-22 0 -33.5 -7t-25.5 -26l-543 -708l-412 751q-9 19 -47 19h-2 l-901 -15q-20 0 -37.5 -12t-17.5 -41v-2l2 -96q0 -31 17 -46.5t40 -15.5h2l127 4h4q38 0 67 -15.5t49 -39.5t30.5 -52t11.5 -52v-17q0 -23 -0.5 -66.5t-1 -99t-1.5 -120t-2 -128t-2 -123t-2 -106t-2 -75.5t-1 -33v-7q0 -42 15 -63t52 -21h4h32.5t65.5 0.5t82 1t82 1t65 0.5 h32q38 0 56.5 20t18.5 51v2l-6 684q96 -170 173 -306q33 -58 64.5 -113.5t57 -100t42 -73t18.5 -31.5q8 -15 14.5 -25t14 -16t17 -9t23.5 -4q4 0 29.5 -1.5t61.5 -4t78 -5t78.5 -5t62.5 -4.5t30 -2h13q38 0 59 31l444 626q6 -202 11 -363q2 -69 4 -135.5t3.5 -120t3 -88.5 t1.5 -40q2 -10 5.5 -22t10.5 -22t18.5 -17t28.5 -7h9q6 1 38.5 3.5t79.5 6t100 6.5t99.5 6t78.5 5t36 2q55 6 55 76z" />
<glyph unicode="N" horiz-adv-x="2013" d="M1952 37q0 4 -1 43.5t-2.5 101.5t-4 139.5t-5 158.5t-5 158.5t-5 138.5t-3.5 99.5t-1 41.5q0 53 -57 59q-5 1 -30 2.5t-61 4t-77 5t-77 5t-62 4t-31 1.5q-20 0 -38.5 -14t-18.5 -39v-465l-799 779q-9 8 -17 10t-22 2l-799 -2q-32 0 -46.5 -18t-14.5 -40v-63v-21 q2 -29 20.5 -42t57.5 -13l122 -2q31 -1 56 -12t43 -30t27.5 -43t9.5 -50q0 -4 -0.5 -40t-1.5 -92t-2 -127.5t-2.5 -146t-2.5 -147t-2 -131.5t-1.5 -98t-0.5 -48v-2q0 -31 16 -46t44 -15l397 -6q29 0 46 16.5t17 50.5q0 3 -1.5 27t-4 61t-6 83.5t-7.5 94.5q-9 113 -19 253 l798 -641q13 -10 20 -13.5t27 -3.5h30t65 -0.5t86 -0.5t93.5 -0.5t87.5 -0.5h68h39q28 3 43 18t15 56z" />
<glyph unicode="O" horiz-adv-x="2056" d="M1974 614v83t-2 46q-4 88 -39 168t-95 141t-140 98t-174 38q-8 0 -48 0.5t-101.5 1t-138.5 1t-158 1.5t-159.5 2t-144 1.5t-112 1.5t-62.5 1h-10q-108 0 -197.5 -39t-155.5 -100.5t-105 -137.5t-44 -151q-1 -18 -2.5 -66t-2 -109t-1 -125.5t-0.5 -115.5v-80 q3 -81 42 -149.5t100 -120.5t135.5 -85t148.5 -42q11 -2 54.5 -3t107 -2.5t141 -2.5t158.5 -2t159 -2t142 -2t108 -1.5t56 -0.5h12q108 0 204 27t168 77.5t113.5 121.5t40.5 159v8q0 18 0.5 58t0.5 90.5t0.5 106.5t0.5 105zM1448 291q0 -34 -14 -66.5t-39.5 -58t-60.5 -41 t-77 -14.5l-464 6q-34 1 -63 14t-50 36t-32.5 55t-10.5 71v473q1 40 16.5 71.5t39.5 54t54.5 34.5t61.5 12l467 2q37 1 67 -13.5t51 -40t33 -58.5t13 -70z" />
<glyph unicode="P" horiz-adv-x="1825" d="M1825 1071q0 75 -27 138.5t-73.5 111.5t-109.5 77.5t-136 35.5q-7 1 -43.5 2.5t-96 3t-137.5 4t-168 5t-188.5 5t-197.5 5.5q-350 10 -789 20q-2 0 -2 1v1q-17 0 -28.5 -5.5t-19 -14.5t-11 -19.5t-3.5 -20.5v-84q3 -29 20.5 -42t57.5 -13l125 -2q29 -1 53.5 -12.5t42 -30 t27.5 -42.5t10 -50v-2l-12 -1120v-5q0 -45 18 -67.5t68 -22.5h4q6 0 39.5 0.5t81 1t101 1.5t100.5 1.5t80 1t38 0.5q25 0 39.5 13.5t16.5 54.5v2q0 9 -1.5 51t-3.5 103t-4 133t-4.5 139.5t-4.5 123.5t-3 85l664 -2q110 -1 198 29t150 86.5t95.5 137.5t33.5 181zM1245 1059 v-4q-1 -39 -10 -71t-27 -55.5t-45 -36.5t-63 -13l-461 -2l-14 352l446 -6q39 -1 71 -13t55 -33.5t35.5 -51.5t12.5 -66z" />
<glyph unicode="Q" horiz-adv-x="2056" d="M1974 788v82t-2 45q-4 88 -39.5 168t-94.5 141.5t-139 98t-175 37.5q-7 0 -47 1t-101.5 1.5t-138 1.5t-157.5 2t-159.5 2t-144 1.5t-112 1.5t-62.5 1h-10q-108 0 -198.5 -39t-156.5 -100.5t-104 -138.5t-43 -152q-1 -12 -2 -40.5t-2 -66.5t-1.5 -82.5l-1 -89t-1 -86 t-0.5 -73.5v-58q3 -80 42 -148t100 -120t135.5 -85t148.5 -42q14 -2 69.5 -4t135.5 -3.5t175 -3t187 -3.5q9 -28 19.5 -58t19.5 -55.5t15.5 -44t7.5 -22.5q8 -26 20.5 -39t46.5 -15h2q9 0 42.5 0.5t79 1.5t96 2t93.5 2t72.5 1.5t32.5 1.5q32 3 48 18.5t16 40.5v4 q-1 2 -3.5 19.5t-6.5 44t-8 59t-9 65.5q70 21 128 55t99 79.5t64 101t22 119.5v10q0 18 0.5 58.5t0.5 91.5t0.5 106.5t0.5 103.5zM1446 463q1 -33 -13 -65.5t-39 -58t-60 -41.5t-77 -15l-464 8q-34 0 -63 13t-50 36.5t-33 55.5t-12 69l4 473q1 37 14.5 68.5t36.5 55t54 37 t67 13.5l465 2q38 0 68 -15t51 -40t32.5 -58t12.5 -69z" />
<glyph unicode="R" horiz-adv-x="1847" d="M2482 -147q0 26 -16.5 38.5t-38.5 12.5q-8 0 -29 0.5t-49.5 1t-60.5 1.5t-61.5 2t-52.5 1.5t-34 1.5q-54 1 -98.5 9t-83 23.5t-71.5 40t-64 58.5q-15 18 -36.5 53.5t-45 79.5t-47.5 92.5t-46 92t-39.5 77t-27.5 47.5q-32 47 -90 89.5t-139 70.5h96q70 0 134 26t113 71.5 t78 107.5t29 133q0 72 -29.5 135t-77.5 111t-110.5 78t-128.5 36q-14 1 -58 3t-109 4.5t-147 5.5t-171.5 5.5t-182.5 5.5t-180.5 5.5t-165.5 4.5t-137 3.5t-95 2.5t-40 1h-4q-31 0 -46.5 -12.5t-17.5 -44.5q0 -4 -1 -41.5t-2 -98t-2.5 -139.5t-2.5 -167.5t-2.5 -181.5 t-3 -181.5t-2.5 -167t-2 -137.5t-1.5 -95t-0.5 -38v-6q0 -44 18.5 -65t63.5 -19h8q6 0 43.5 1.5t90 4t112.5 5.5t112.5 5.5t89 4t42.5 1.5q12 1 22 4t16.5 10.5t10.5 20t4 33.5v2q0 8 -1 32t-2 59t-3 77t-3.5 86t-3.5 86.5t-4 77.5l156 -2q44 -1 79 -9t63.5 -22t52 -34 t43.5 -44q10 -12 33.5 -49t55 -88t68 -109t72.5 -113t68 -100.5t55 -70.5q38 -40 85 -67.5t101 -45t112.5 -26.5t119.5 -11q9 0 50.5 -0.5t98.5 -1.5t122 -2t121.5 -2t96.5 -1.5t47 -0.5h2q16 0 29 6t22 15.5t14.5 20t6.5 19.5q3 19 6.5 39t3.5 49v3zM1221 969v-4 q-1 -39 -10 -72t-26.5 -57t-43.5 -37t-62 -13h-463l-16 351l451 -7q38 -1 69.5 -13t54 -33t34.5 -50.5t12 -64.5z" />
<glyph unicode="S" horiz-adv-x="1782" d="M1761 895l-6 149q-3 53 -38.5 111.5t-101 108t-160 81.5t-216.5 33l-594 6q-57 1 -122.5 -8.5t-129.5 -30t-123.5 -52t-104.5 -75.5t-72 -100.5t-27 -126.5q0 -73 32.5 -130t83.5 -98t112.5 -66.5t119.5 -37.5q42 -8 114.5 -20.5t156.5 -26t170.5 -27t156.5 -22.5 q26 -4 53 -12t48.5 -23.5t35.5 -39.5t14 -60q0 -34 -12.5 -56t-31.5 -35.5t-41.5 -19t-41.5 -6.5l-329 -4q-33 -1 -60.5 9.5t-47 27.5t-30.5 39.5t-12 46.5l-2 74q0 54 -59 57l-402 4h-2q-22 0 -31.5 -10.5t-9.5 -42.5v-6q0 -11 0.5 -27.5t1.5 -35t2.5 -38t3.5 -36.5 q7 -65 42.5 -126t94 -107.5t137.5 -74.5t173 -28l737 -4q39 0 86 8t95 25.5t93.5 45.5t81 66.5t57 89.5t21.5 115q0 149 -98.5 237.5t-310.5 122.5q-34 6 -100 18t-145.5 26t-162 28.5t-149.5 24.5q-25 4 -48.5 13.5t-42.5 26.5t-30.5 42.5t-11.5 60.5t13 58t32.5 36.5 t42 19.5t41.5 7q10 1 34.5 1t57 0.5t68.5 1t69 1t59 0.5h37h4q33 0 60.5 -10.5t47 -27.5t30.5 -39t12 -46q1 -5 1 -15v-20.5v-20.5t1 -16q0 -56 61 -59l469 -4q28 0 36.5 12t6.5 37z" />
<glyph unicode="T" horiz-adv-x="819" d="M1802 1468q0 15 -1 36t-2.5 41.5t-3 36.5t-1.5 20q-5 23 -19 33t-49 12l-2295 45h-2q-26 0 -43 -16.5t-19 -41.5q0 -5 -0.5 -21.5t-0.5 -37t-0.5 -42.5t-0.5 -38v-27q2 -26 13.5 -43t37.5 -20q4 0 29.5 -1t64 -2t87 -3t99 -4t99.5 -3.5t89 -3t66.5 -3t33.5 -1.5 q38 -3 70.5 -18.5t56.5 -39.5t37 -54t12 -62q0 -16 -2 -62t-5 -109.5t-7 -139.5t-8 -153.5t-8 -150.5t-7 -130.5t-5.5 -94t-2.5 -40.5v-11q0 -27 14 -41t39 -14h4q13 0 50.5 0.5t86 1t102 1.5t99 1.5t77 1t36.5 0.5q32 2 47 16t18 54q0 3 1 50.5t2 122.5t2.5 170t2.5 194 q3 231 6 524q133 0 269 -1q58 0 122 -0.5t129 -0.5h129.5h123.5h108h87.5t60 0.5t24.5 1.5q19 2 32 16t15 45v6z" />
<glyph unicode="U" horiz-adv-x="1964" d="M1905 373l-4 577q0 29 -15.5 40t-46.5 11q-4 0 -35 0.5t-75.5 1.5t-96 2.5t-96 2.5t-76 1.5t-35.5 0.5q-6 0 -14.5 -2.5t-17 -8.5t-14 -17t-5.5 -28q1 -87 2 -170q0 -35 0.5 -73t1 -75.5t0.5 -72v-63.5v-82q-2 -33 -16.5 -65t-39 -57.5t-58.5 -41.5t-76 -16h-2l-393 8 q-33 0 -61 13t-49 36t-33.5 55t-14.5 70v20q0 25 0.5 71.5t1.5 105t2 124.5l2 132q3 154 6 333q0 62 -72 62h-29.5t-66 0.5t-86.5 0.5t-91.5 0.5t-82 0.5h-57.5h-19q-26 -2 -42.5 -14.5t-16.5 -49.5l-2 -805q0 -54 18 -102.5t49 -90t73 -76t89 -60.5t97.5 -43t99.5 -23 q11 -1 51.5 -2.5t99 -3t130 -3t146 -2.5t146.5 -2t131 -1.5t100 -1t54 -0.5h12q108 0 203.5 27t167.5 77.5t114 121t42 157.5z" />
<glyph unicode="V" horiz-adv-x="1681" d="M1702 1153q0 -8 -1.5 -17t-6.5 -18q-1 -3 -22.5 -47t-57 -114t-80 -158.5t-91.5 -180t-91.5 -180t-80 -157.5t-57 -111.5t-22.5 -44.5q-11 -23 -25 -31t-43 -8q-2 0 -34 0.5t-83.5 1.5t-116.5 2t-132.5 2.5t-132 3t-115.5 2.5q-26 2 -44.5 13.5t-25.5 29.5q-3 5 -17.5 39 t-38 88t-54 124t-64 147.5t-69 159t-68.5 158.5t-62.5 145t-51.5 119t-35 81t-13 31q-8 16 -8 35q0 21 14 34t43 13h392q14 0 25 -7t18 -24l358 -891l338 758q11 23 32 37t46 14h4q3 -1 34.5 -1t77.5 -0.5t99.5 -1t100.5 -1t80.5 -1t39.5 -1.5q41 -3 41 -43z" />
<glyph unicode="W" horiz-adv-x="2163" d="M2183 1278q0 72 -57 78q-4 1 -31.5 2t-66.5 3t-84 4t-84.5 4t-68 3.5t-34.5 1.5q-4 2 -10 2q-16 0 -27 -6t-18 -15.5t-10 -20t-4 -19.5q0 -5 -5.5 -45t-14.5 -101.5t-20.5 -138.5t-23.5 -157q-28 -187 -63 -420q-61 212 -109 380q-21 72 -40.5 141t-35 123.5t-25.5 89.5 t-10 38q-8 18 -26 28.5t-41 10.5h-4l-338 -11q-28 0 -45.5 -12t-22.5 -35q-1 -3 -11 -38t-25 -89t-33.5 -122.5t-38.5 -139.5q-46 -166 -103 -375q-20 210 -38 382q-7 74 -14.5 146.5t-13.5 133.5t-10 105t-6 59q-3 31 -19 50.5t-56 22.5q-2 0 -31.5 1t-76 2t-105.5 3 t-120.5 3.5t-120.5 3.5t-105.5 3t-75 2t-29.5 1q-22 0 -39.5 -11t-17.5 -40v-2l2 -82q0 -31 17.5 -45.5t43.5 -16.5h115q48 -1 78 -14.5t47.5 -36t25.5 -51t13 -60.5q3 -20 10 -72t16.5 -123t21 -155t22.5 -168.5t21.5 -164t18.5 -140.5q2 -18 5.5 -33t11 -26t21 -17.5 t34.5 -7.5q93 -4 181 -6.5t157.5 -4t113 -2.5t46.5 -1q31 0 46 13.5t21 33.5l223 743l273 -759q6 -19 19.5 -27t39.5 -8l482 2q8 0 19 2.5t21 8.5t17 17t8 29q0 3 9.5 52.5t25 128.5t35 180t40 206t39.5 206.5t34.5 182t24.5 131.5t9 56z" />
<glyph unicode="X" horiz-adv-x="1876" d="M1855 1108q0 -16 -8.5 -31t-21.5 -27.5t-26.5 -22.5t-24.5 -17l-508 -353l522 -368q25 -19 40 -38.5t15 -45.5q0 -15 -6 -26.5t-15 -19t-19.5 -11t-18.5 -3.5l-447 13q-17 1 -34 7t-30 14q-15 9 -28 20l-323 223l-326 -223q-12 -11 -27 -20q-13 -8 -29 -14t-34 -7 l-449 -13q-7 0 -17 3.5t-19 11t-15 19t-6 26.5q0 26 15.5 45.5t39.5 38.5l523 368l-508 353q-11 7 -23 15.5t-22.5 19.5t-17.5 24.5t-7 30.5q0 34 17.5 49.5t43.5 17.5h5q12 0 49 -0.5t85.5 -1t102 -1.5t99 -1.5t77 -1t35.5 -0.5q19 0 38.5 -7.5t36.5 -17.5q19 -11 38 -26 l295 -209l295 209q19 15 38 26q17 10 36.5 17.5t37.5 7.5q4 0 36 0.5t79 1t101.5 1.5t104 1.5t87 1t49.5 0.5h4q26 -1 45.5 -12.5t19.5 -46.5z" />
<glyph unicode="Y" horiz-adv-x="1679" d="M1720 1165q0 20 -17 32.5t-48 12.5h-457q-26 0 -50 -8t-50 -39q-6 -7 -21.5 -26.5t-36.5 -46t-46 -57.5t-49 -63q-57 -74 -126 -163q-79 97 -143 176q-27 34 -54.5 67l-50 60t-38.5 46t-21 24q-19 21 -47 33t-64 12h-29.5t-49 -0.5t-62 -1t-66.5 -1.5q-78 -2 -171 -3 q-28 -4 -46 -19t-18 -37q0 -12 6 -25.5t19 -27.5l577 -651q1 -48 1.5 -100.5t1.5 -104t2 -99t2 -84t1.5 -59.5t1.5 -26q3 -26 14 -39.5t42 -18.5q3 -1 29.5 -3t64 -5t81.5 -6t81.5 -5.5t64 -4.5t29.5 -2h4q60 0 63 51l37 493l621 680q18 23 18 39z" />
<glyph unicode="Z" horiz-adv-x="1739" d="M1759 1106q0 28 -17 51t-59 23h-2q-433 -10 -774 -18q-97 -2 -192.5 -4.5t-182.5 -4.5t-161.5 -4t-130 -3.5t-88 -3t-35.5 -1.5q-25 -5 -41.5 -18t-16.5 -38l7 -131q2 -21 16 -32t45 -13q5 0 40.5 -0.5t89.5 -2t121.5 -2.5t137.5 -3q164 -4 369 -8l-832 -717 q-33 -30 -33 -65q0 -18 7 -34.5t18.5 -29t26.5 -20t30 -7.5h2l1383 52q37 2 50 13t15 42l9 166q0 52 -58 55h-20h-66t-98 -0.5t-117 -1t-124 -0.5q-144 -1 -312 -2l971 709q11 8 16.5 22.5t5.5 30.5z" />
<glyph unicode="[" horiz-adv-x="1137" d="M1055 1343l-6 166q-2 29 -16.5 41.5t-49.5 14.5q-7 0 -46 2t-98.5 5t-132.5 6.5t-148 7.5q-176 9 -396 20h-6q-58 0 -58 -64q-4 -412 -8 -746q-1 -95 -2 -189t-2 -181t-1.5 -163.5t-1 -136t-1 -98.5t-0.5 -51v-4q1 -20 3.5 -34t11.5 -23t26 -13t45 -5h14q21 0 63.5 0.5 t98 1.5t119.5 2.5l128 3t125 2.5t109.5 2.5t80.5 2.5t40 1q29 1 51 11t23 42l4 170q2 31 -10.5 47t-52.5 19q-7 1 -25.5 2t-43.5 2.5t-54.5 3.5t-58.5 4q-69 4 -152 8l-21 1053q98 3 180 6q35 1 69.5 2t63.5 2t50 1.5t28 0.5q28 2 44 15.5t14 39.5z" />
<glyph unicode="\" horiz-adv-x="1227" d="M1145 41q0 -12 -8.5 -19t-28.5 -12q-3 0 -25.5 -2.5t-54.5 -5.5t-68.5 -6t-68.5 -5.5t-53.5 -4.5t-24.5 -2h-4q-61 0 -88 53q-1 1 -19 39.5t-48.5 103t-71 150t-86 181t-93 196.5t-93 197t-86 181t-71 149.5t-48.5 102.5t-19 39q-2 8 -3 14.5t-1 12.5q0 14 11 21.5 t40 9.5h4q9 0 39 -0.5t70 -1.5t84 -1.5t82 -1.5t64.5 -1.5t29.5 -0.5q28 -2 45.5 -17t30.5 -40q2 -3 18.5 -41t43.5 -101t62.5 -145.5t75 -175t81 -190t81 -190t74.5 -174.5t61.5 -144.5t42.5 -100t17 -40.5q6 -16 6 -27z" />
<glyph unicode="]" horiz-adv-x="1137" d="M1055 1526v4q0 20 -3 33.5t-12 22.5t-26 14t-45 6h-15q-21 0 -63 -0.5t-97 -1.5t-119 -2.5t-128.5 -3t-125 -3t-109 -3t-80.5 -2.5t-39 -1q-31 -1 -52.5 -11t-21.5 -42l-6 -170q-2 -31 10.5 -47t52.5 -21q8 0 26.5 -1t43 -2.5t54 -3t58.5 -3.5q69 -4 152 -8l20 -1053 q-98 -3 -180 -6q-35 -1 -69.5 -2t-63 -2t-49.5 -1.5t-29 -0.5q-26 -2 -42.5 -15.5t-14.5 -39.5l8 -166q0 -29 14 -41t50 -14q8 0 47.5 -2t98.5 -5t132.5 -6.5t148.5 -7.5q177 -9 396 -20h6q29 0 42 15.5t13 47.5q5 413 9 747q1 95 2 189t2 181t1.5 163.5t1 135.5t1 98 t0.5 51z" />
<glyph unicode="^" horiz-adv-x="1686" d="M1604 530q0 -15 -8.5 -26.5t-26.5 -11.5l-375 8q-46 0 -66 45l-274 655l-350 -833q-8 -14 -17.5 -19.5t-21.5 -5.5h-2l-334 8q-23 0 -35 11t-12 28q0 6 1.5 14.5t6.5 16.5q0 1 19 43t50.5 111t71 157t81 180.5t82 182t72.5 161t53 117t24 51.5q8 16 23.5 26.5t37.5 10.5 l526 -4q26 0 37 -7.5t19 -27.5q1 -1 18.5 -38t46.5 -97t65.5 -136.5t74.5 -156.5t74.5 -156.5t65.5 -137.5t47 -99t19 -41q7 -14 7 -29z" />
<glyph unicode="_" horiz-adv-x="1911" d="M1985 319q0 25 -13 39.5t-35 14.5q-1 0 -55 1t-146 3.5t-214.5 5t-260.5 5.5t-284 6.5t-285 6.5t-264 5.5t-220 5t-154 3.5t-66 1h-2q-23 -2 -35 -14.5t-14 -47.5v-2q0 -8 0.5 -34t1 -60t1 -71.5t1 -70t1.5 -55.5t1 -26q2 -23 14.5 -33t34.5 -10h8h76t157 0.5t217.5 1 t257.5 1t275.5 1t273.5 1t250.5 1t206.5 1t141.5 1t55.5 0.5q21 3 32.5 13t16.5 38q0 3 1.5 22.5t4 47.5t5.5 61t6 61t5 48t3 22v6z" />
<glyph unicode="`" horiz-adv-x="2056" d="M1348 1116q0 -14 -10 -24.5t-25 -12.5q-3 0 -30 -0.5t-59 -0.5t-59 -0.5t-30 -0.5h-5q-23 0 -48.5 10t-39.5 27q-5 6 -30 35.5t-60 71t-75.5 89t-75.5 88.5t-59 70t-27 33q-6 9 -6 19q0 14 9.5 25t29.5 11h2q6 0 25.5 -0.5t45 -0.5t54 -1t53 -1t42 -0.5t19.5 -0.5 q19 -2 41.5 -11.5t36.5 -29.5q4 -6 24.5 -34.5t49 -68t62 -84t62.5 -84.5t50 -68.5t26 -36.5q7 -10 7 -19z" />
<glyph unicode="a" horiz-adv-x="1751" d="M1751 29q0 14 -6 32q-1 3 -21 56t-52 137.5t-72 191.5t-82 218.5t-82.5 218.5t-72 191l-51 136t-20.5 54q-9 23 -20.5 32t-42.5 9l-1069 -5q-23 0 -36 -11t-18 -29q-1 -5 -3 -16.5t-4.5 -25t-4.5 -26.5t-2 -21q0 -24 10 -35t29 -14l236 -26q34 -5 53.5 -24.5t19.5 -51.5 q0 -12 -2 -25.5t-8 -27.5q-1 -3 -18.5 -39t-45 -93t-63 -129.5t-73 -147.5t-73 -147t-63 -128t-45 -91t-18.5 -36q-5 -11 -8 -20t-3 -17q0 -20 14 -32.5t40 -14.5l346 -17h4q12 0 22.5 6.5t18.5 20.5q1 2 7.5 15.5t16.5 34t22 46t25 52.5q30 62 66 141l522 6l142 -326 q11 -25 31.5 -40t48.5 -15q3 0 27.5 -1t61.5 -2t80 -3t82 -3t68.5 -2t38.5 -1h2q23 0 34 12.5t11 32.5zM1059 600l-373 16l209 406z" />
<glyph unicode="b" horiz-adv-x="1968" d="M1948 467q-1 88 -36 149.5t-85 101t-105 59.5t-96 26q35 18 68.5 44t59.5 61.5t42 81t16 102.5q0 71 -28.5 134.5t-76.5 112.5t-111 80t-132 37q-14 1 -57.5 3t-108.5 4.5t-147 5t-171.5 5.5t-182.5 5.5t-180.5 5t-165.5 5t-137 4t-95.5 2.5t-40.5 1h-4q-29 2 -45 -11.5 t-18 -45.5q0 -4 -1 -42t-2 -99.5t-2 -142.5t-2.5 -171.5t-3 -185.5t-2.5 -185.5t-2 -170.5t-2 -141t-1.5 -97.5t-0.5 -38.5v-6q0 -45 18 -65.5t66 -20.5h4q372 7 674 13q129 3 254.5 5.5t229 5t173.5 5t88 3.5q67 6 130.5 36t112 78t78 111.5t28.5 135.5zM1229 1081v-4 q0 -78 -35.5 -128t-106.5 -50h-460l-17 352l449 -8q38 -1 70 -12.5t54.5 -32.5t34.5 -51t11 -66zM1368 487q0 -37 -12.5 -67t-35 -51.5t-54.5 -33t-70 -11.5l-479 -7q-2 45 -5 104.5t-6 115.5q-4 65 -6 133l527 -2q72 -2 106.5 -52t34.5 -129z" />
<glyph unicode="c" horiz-adv-x="1726" d="M1665 465v8q0 19 -14.5 37t-46.5 20q-11 0 -41 0.5t-68 1.5t-80 2.5t-78 2.5t-61 1.5t-29 0.5q-12 0 -29 -13t-20 -39q-2 -21 -3.5 -50t-4.5 -46t-11 -36t-23.5 -35.5t-38.5 -27.5t-56 -11l-334 2q-33 0 -61 13t-48 35t-30.5 51t-9.5 60l4 486q1 38 15 66t34.5 47.5 t44 30t41.5 11.5q10 1 35.5 1.5t59 1t70.5 1.5t70.5 1.5t59 1t35.5 0.5h2q33 0 59 -11.5t44.5 -30.5t28 -43.5t9.5 -50.5v-45q0 -31 13 -45t44 -16l365 -6h2q25 0 34.5 13t10.5 54v62v51q-3 58 -35 121.5t-85 117.5t-123 89t-150 36l-738 5q-39 1 -83 -11t-88 -35.5 t-85.5 -56.5t-75 -75.5t-56.5 -93t-31 -107.5q-2 -10 -6 -48.5t-9.5 -93.5t-11 -119.5t-10.5 -126.5t-8 -115.5t-3 -86.5v-8q1 -38 14 -82.5t36 -88.5t55.5 -85.5t74.5 -74t92 -52t107 -21.5l787 -18q68 -2 139 26.5t132 76.5t104 109.5t55 125.5q2 13 3.5 31.5t2.5 38 t1.5 37t0.5 28.5z" />
<glyph unicode="d" horiz-adv-x="2003" d="M1962 397v47.5t-0.5 95t-0.5 119t-0.5 119t-0.5 95v47.5q0 66 -24 123t-64.5 104t-95.5 83.5t-118 61.5t-131.5 39t-135.5 15l-1567 28h-2q-34 0 -50 -18t-16 -41l-2 -62v-4q0 -35 20 -48t60 -13l168 -4q32 -1 58.5 -9t45.5 -25t30 -43.5t11 -62.5v-12q0 -6 -0.5 -51.5 t-1 -115.5t-1 -158t-1.5 -179.5t-1.5 -178.5t-1 -156t-1 -112.5t-0.5 -47.5q0 -18 3.5 -33.5t13.5 -26.5t27.5 -17t45.5 -7h13h81t140.5 0.5t178.5 1t195.5 0.5t191.5 0.5t166.5 1t120 0.5h52.5q125 2 233 38.5t188.5 97.5t126.5 140.5t46 167.5zM1421 504v-29 q-1 -45 -19.5 -91t-51.5 -83.5t-80.5 -61.5t-108.5 -24h-481l-8 920l504 -9q44 -1 83.5 -15t70 -38t49 -56t20.5 -67q1 -5 2.5 -31.5t4 -66t5 -87l5 -95t4 -91.5t1.5 -75z" />
<glyph unicode="e" horiz-adv-x="1851" d="M1913 -41l-2 111q0 26 -13.5 38.5t-50.5 12.5l-1112 18l6 131q228 3 408 7q77 2 151 3t133 2t96 2t40 1q21 2 37 14t16 43v6q0 10 -1.5 28.5t-3 38.5t-3.5 37.5t-4 24.5q-3 7 -7 15t-11.5 15t-19.5 11.5t-30 5.5q-2 0 -43 1.5t-106.5 4t-148.5 5t-170 5.5q-203 7 -460 15 l11 133q256 0 470 1q91 0 182 0.5t168.5 0.5h134.5h81h16h2q26 0 43 16t15 42v133q-2 26 -20 36t-46 13q-2 0 -45 1.5t-115 3.5t-167 5t-202 6.5t-220 7t-220.5 7t-203.5 6.5t-169 5t-117 3.5t-48 1.5q-32 0 -50 -13t-18 -49q0 -5 -0.5 -46.5t-1 -106.5t-0.5 -146.5 t-0.5 -167t-0.5 -167.5t-0.5 -148t-0.5 -108.5v-49.5v-4q0 -37 18 -57t64 -20h4h68.5t138 0.5t190.5 1t224.5 1.5t240 1.5t238 1t217.5 1.5t179 1.5t122 1t47 0.5q35 3 52.5 16t17.5 39z" />
<glyph unicode="f" horiz-adv-x="1649" d="M1649 1251l-7 168q-2 34 -22 45t-51 13q-6 0 -45.5 1t-104 2.5t-148.5 3t-179 3.5t-195 4t-197 3.5t-185 3t-158.5 3t-118.5 2t-64 0.5h-6q-28 -1 -45 -5t-26 -13t-11.5 -22.5t-3.5 -32.5v-5v-44t0.5 -83t1.5 -114.5t1.5 -137t1.5 -151t2 -157.5q4 -278 7 -621 q0 -64 62 -64h2q107 0 194 1q37 0 73.5 0.5t67 1t52 1t28.5 0.5q28 2 40.5 17t15.5 47q1 5 1.5 41t0.5 86.5v108v106.5v117l606 10q58 0 61 43l7 129q0 25 -16.5 39.5t-41.5 17.5q-4 1 -30 3t-65 5.5t-87 7.5t-98 8q-117 10 -262 21l4 285q234 9 422 17q80 3 158 6.5 t141 5.5t104.5 4t48.5 2q38 3 51 19t13 48z" />
<glyph unicode="g" horiz-adv-x="1868" d="M1806 422q0 28 -1 56t-1 36q-3 16 -18.5 31.5t-46.5 17.5h-4q-13 0 -55.5 -0.5t-103.5 -1.5t-134.5 -2t-149 -2t-146.5 -2.5t-126 -2.5t-89 -2t-36 -1q-26 0 -40.5 -11.5t-14.5 -29.5q0 -7 0.5 -21.5t2 -29.5t3 -28.5t2.5 -18.5q5 -17 19 -28t42 -11h348v-37 q-2 -15 -9.5 -31.5t-22.5 -30.5t-37.5 -23t-54.5 -9l-345 4q-34 0 -62 11t-49 29.5t-34 42.5t-18 50q-1 5 -3 36t-4.5 75t-4.5 94.5t-4 94t-3.5 74t-1.5 35.5v2q0 32 13.5 56t33 40.5t42.5 25.5t42 10q10 1 35.5 1.5t59 1t71 1t71.5 1t60 0t37 -0.5h6q33 0 60.5 -9.5 t47.5 -25.5t31.5 -37t12.5 -43q1 -4 1 -13v-19v-19t1 -15q0 -53 61 -53l447 -6h2q23 0 33 11t10 40v6q0 9 -0.5 24t-2 32.5t-2.5 35.5t-3 33q-6 57 -47 112.5t-107 99t-153 70.5t-185 28l-758 4q-38 1 -84 -7.5t-93.5 -25.5t-93 -43t-82 -62t-61 -82t-30.5 -102 q-1 -7 -3 -32t-4 -61.5t-4 -81t-4 -90.5t-3 -90.5t-1 -80.5v-39.5t2 -30.5q5 -54 39 -113.5t92.5 -109t138 -82.5t175.5 -35l596 -14q138 -3 259 20t214 71t152.5 120t74.5 166q2 8 2 20.5v26.5z" />
<glyph unicode="h" horiz-adv-x="1825" d="M1743 162q0 26 -0.5 85.5t-1 140.5t-1.5 175.5t-2 190t-2 184.5t-1.5 158.5t-1 113t-0.5 47.5q0 32 -16 47t-44 15q-4 0 -30 0.5t-63.5 0.5t-81 1t-81 1t-64.5 0.5t-32 0.5q-57 -6 -57 -61v-490l-613 19q4 113 7 205q1 39 2 77.5t2 70t1.5 53t0.5 26.5v2q0 29 -14 46 t-60 17h-25h-56h-76h-83t-77 -0.5t-59 -0.5t-28 -1q-32 -2 -45 -14t-18 -47q0 -3 -2 -51.5t-5 -125.5t-6.5 -175t-7.5 -200t-7.5 -200t-6.5 -175.5t-4.5 -126t-1.5 -52.5v-6q0 -32 14 -53t56 -23l469 -6h2q38 0 52.5 20t14.5 55l10 424l492 -2q2 -97 4 -175l2 -66t1.5 -60 t1.5 -46t1 -25q2 -35 18 -51.5t54 -16.5q4 0 35 -0.5t76 -1t97 -1t97 -1t75.5 -1t33.5 -1.5h4q26 0 38.5 18t12.5 45v17z" />
<glyph unicode="i" horiz-adv-x="692" d="M631 1204q0 60 -76 60q-3 1 -30.5 1.5t-67.5 1t-87 1t-90.5 1t-77.5 1t-48 0.5h-7q-27 -2 -44 -17t-17 -53l-4 -883q0 -32 16 -44.5t52 -12.5q4 0 34 -1.5t73.5 -2.5t94 -2.5t94.5 -2.5t74.5 -2t34.5 -1q7 0 16 2.5t17.5 9t15.5 18t8 29.5q0 4 1 44t2.5 102.5t3.5 141.5 t3.5 160.5t3 160t3 140.5t2 101.5t0.5 42.5v4z" />
<glyph unicode="j" horiz-adv-x="1651" d="M1620 1221q-3 40 -18 58t-46 21q-4 1 -33.5 2.5t-71.5 3t-91 3t-93 3t-77.5 2.5t-44.5 1h-2q-31 -2 -48.5 -18t-17.5 -50v-4q0 -11 0.5 -53.5t2 -104.5t3.5 -137.5t4.5 -153.5t4.5 -153t3.5 -135t2 -100t0.5 -48v-2q0 -37 -14 -66t-34.5 -48.5t-44 -29.5t-42.5 -11 q-9 0 -33.5 -1t-57 -1.5t-69.5 -1t-70 -1t-59 -1t-37 -0.5h-4q-33 0 -59 11.5t-44.5 30.5t-28 43.5t-9.5 49.5v43q0 63 -58 63l-368 6q-23 2 -33.5 -11.5t-12.5 -53.5v-35q0 -17 0.5 -36t2.5 -44q2 -38 17 -79.5t41 -81.5t61.5 -76.5t78.5 -64t92.5 -43.5t102.5 -17l737 -9 q59 -1 126.5 26.5t128.5 77.5t106 120.5t57 156.5q1 8 4 52.5t6.5 112.5t7.5 152t8.5 170.5t8.5 168.5t7 146.5t5 104.5t2 42z" />
<glyph unicode="k" horiz-adv-x="1741" d="M2355 -176q0 28 -17 40.5t-40 12.5q-8 0 -29 0.5t-49 1t-60 1.5t-61 2t-52 1.5t-34 1.5q-55 0 -100 8t-83.5 24t-71 40.5t-62.5 58.5q-16 18 -37.5 53.5t-45 79.5t-47.5 93t-45.5 92t-39 77t-27.5 48q-24 35 -63 68.5t-91.5 60.5t-118 44t-143.5 19l-80 2l695 496 q11 7 20 16q8 8 13.5 16.5t5.5 18.5q0 19 -12.5 31.5t-37.5 15.5q-4 1 -20 1.5t-37.5 1.5t-46 2t-45.5 1.5t-35.5 1t-17.5 0.5q-23 0 -35 -2t-23 -10q-2 -1 -39.5 -28t-99 -71t-140 -100.5t-162 -116.5t-166.5 -119.5t-152 -109.5l-5 570q0 32 -16.5 46.5t-56.5 14.5h-13 h-362q-34 0 -45.5 -17t-13.5 -40q0 -4 -1 -55.5t-3.5 -134.5t-5 -188.5t-5 -216.5t-5 -218.5t-5 -195.5t-3.5 -147t-1 -73v-4q2 -40 16 -58t45 -20q5 -1 34.5 -2.5t72 -3t91.5 -3t93 -2.5t77.5 -2t43.5 -1h2q62 0 68 65v45v71v97t-0.5 117t-1.5 131l102 -2 q88 -2 143.5 -31.5t94.5 -77.5q10 -12 34 -49t55.5 -87.5t68 -109.5t72.5 -113.5t68 -100t54 -70.5q37 -41 84 -68t101 -44t113 -25t120 -10q9 -1 50 -1.5t98 -1.5t122 -2t121.5 -2t96.5 -1.5t48 -0.5h2q17 0 29.5 6t21.5 15t14.5 19.5t6.5 19.5q5 18 8.5 38.5t3.5 49.5z " />
<glyph unicode="l" horiz-adv-x="1591" d="M1591 184v15q-2 26 -16.5 40.5t-42.5 16.5q-7 0 -48.5 2t-104 5t-139.5 7t-156 8q-186 10 -418 21l47 1034v8q0 77 -82 80q-7 1 -42.5 2t-85.5 2.5t-107 3.5t-106 3.5t-83 2.5t-39 1q-28 0 -45 -4t-26 -12.5t-12 -22t-3 -33.5v-33t0.5 -76.5t1.5 -110.5t1.5 -136 t1.5 -152.5t2 -160.5q4 -284 7 -642q0 -65 64 -65l1356 -8h2q35 0 47.5 12t15.5 43q3 29 6.5 70t3.5 79z" />
<glyph unicode="m" horiz-adv-x="2515" d="M2474 113v4q0 5 -3 55t-8 128.5t-11.5 178t-13.5 202.5t-13.5 201.5t-12 176.5t-9 126.5t-3.5 51.5q-1 18 -8.5 29.5t-17 18t-20.5 9.5t-19 4q-5 0 -43.5 1.5t-93.5 4t-119.5 5t-122 5t-100.5 4t-56 1.5h-6q-22 0 -33.5 -7t-25.5 -26l-543 -708l-412 751q-9 19 -47 19h-2 l-901 -15q-20 0 -37.5 -12t-17.5 -41v-2l2 -96q0 -31 17 -46.5t40 -15.5h2l127 4h4q38 0 67 -15.5t49 -39.5t30.5 -52t11.5 -52v-17q0 -23 -0.5 -66.5t-1 -99t-1.5 -120t-2 -128t-2 -123t-2 -106t-2 -75.5t-1 -33v-7q0 -42 15 -63t52 -21h4h32.5t65.5 0.5t82 1t82 1t65 0.5 h32q38 0 56.5 20t18.5 51v2l-6 684q96 -170 173 -306q33 -58 64.5 -113.5t57 -100t42 -73t18.5 -31.5q8 -15 14.5 -25t14 -16t17 -9t23.5 -4q4 0 29.5 -1.5t61.5 -4t78 -5t78.5 -5t62.5 -4.5t30 -2h13q38 0 59 31l444 626q6 -202 11 -363q2 -69 4 -135.5t3.5 -120t3 -88.5 t1.5 -40q2 -10 5.5 -22t10.5 -22t18.5 -17t28.5 -7h9q6 1 38.5 3.5t79.5 6t100 6.5t99.5 6t78.5 5t36 2q55 6 55 76z" />
<glyph unicode="n" horiz-adv-x="1872" d="M1810 96v4q0 6 -2 42.5t-4.5 95t-6 135t-7.5 162t-8.5 175t-8.5 174.5t-7.5 160.5t-6 133.5t-4.5 93.5t-2 39.5q-2 23 -14 39t-47 22q-10 2 -37.5 4.5t-64 6t-77 7.5t-77 7.5t-65 6t-40.5 3.5q-2 0 -4.5 1t-5.5 1q-26 0 -42.5 -14.5t-18.5 -42.5q0 -8 -1.5 -47t-4 -97 t-5 -129.5t-5.5 -144.5q-6 -172 -13 -385l-486 463q-3 3 -9 5.5t-17 2.5l-561 4q-34 0 -48 -17.5t-16 -43.5q0 -5 -2 -45.5t-4 -103.5t-5 -141.5t-6 -161t-6 -161.5t-5 -143t-3.5 -106t-1.5 -50q0 -32 13 -45.5t47 -15.5q11 -1 42.5 -2t72.5 -2.5t86.5 -3t86 -2.5t70.5 -2 t39 -1h2q28 0 47 13.5t19 44.5q0 8 -0.5 37t-1 71.5t-1.5 94t-2 103.5q-3 123 -6 275q167 -161 300 -289q57 -55 111.5 -108t98.5 -95t72.5 -69t32.5 -30q12 -10 18 -12.5t17 -2.5q7 0 45 1.5t93 3t118 4t119.5 4.5t98 4t52.5 2q29 2 44 17t15 50z" />
<glyph unicode="o" horiz-adv-x="2028" d="M1987 457v379q0 74 -31 139.5t-87.5 115t-134.5 79t-171 30.5l-1112 23h-9q-77 0 -142 -28t-112 -70.5t-73.5 -92t-28.5 -92.5l-14 -467q-2 -67 27.5 -123.5t80.5 -99.5t118.5 -70t141.5 -35q11 -1 64 -3.5t133 -5.5t178.5 -6t201 -6.5t201.5 -6.5t179 -5.5t134 -4 t66 -1.5h7q76 0 145 26.5t122 73.5t84.5 111.5t31.5 139.5zM1436 469q0 -19 -8 -40.5t-23 -40t-37 -30.5t-51 -12h-4l-541 12q-35 1 -58.5 13.5t-38 31t-20.5 40t-6 40.5v406q0 27 10.5 48.5t27 37t36.5 23.5t39 8l538 2q26 0 50 -11.5t43.5 -30t31 -42.5t11.5 -50v-405z " />
<glyph unicode="p" horiz-adv-x="1800" d="M1802 1032q0 28 -7 64t-23 74t-42 74.5t-65 67t-91 52t-120 27.5q-14 2 -57.5 4t-108.5 4.5t-147 5.5t-171.5 5.5t-182.5 5.5t-180.5 5.5t-165.5 5t-137 4t-95.5 2.5t-40.5 1q-31 0 -48 -13t-20 -47q0 -4 -1 -40.5t-2 -96.5t-2 -139.5t-2 -168t-2.5 -181.5t-2.5 -181 t-2.5 -167t-2 -138.5t-1 -95.5t-0.5 -39v-4q0 -43 17 -64.5t61 -21.5h10q6 1 41 2.5t83.5 4.5t104.5 6t104.5 5.5t82.5 4t39 1.5q26 0 40.5 13.5t14.5 54.5v2q0 8 -1 37t-2.5 71t-4 92.5t-4.5 99.5t-3.5 93t-2.5 74l661 -4q104 0 191.5 28t151 83t99.5 137t37 190z M1219 1016v-2q-2 -79 -35.5 -127.5t-106.5 -50.5l-461 -2l-16 354l449 -8q77 -2 123.5 -46t46.5 -118z" />
<glyph unicode="q" horiz-adv-x="2017" d="M1966 670l-2 379q-1 73 -32 138t-86.5 114.5t-133 79t-172.5 30.5l-1110 23h-8q-78 0 -142.5 -28t-111.5 -70.5t-73.5 -92t-28.5 -92.5l-15 -467q-2 -64 27 -120.5t80 -99.5t118.5 -70.5t141.5 -35.5q7 -1 31.5 -2t63 -2.5t89.5 -3.5t109 -4q4 -48 9.5 -112.5 t11.5 -124.5t10.5 -104t5.5 -50q3 -28 16 -40t45 -17q3 -1 34 -3.5t76 -7t97.5 -9t97.5 -9t76.5 -7.5t34.5 -3h4q32 0 47.5 15.5t15.5 43.5q1 1 1.5 21.5t1 53t1.5 74.5t1.5 87t1.5 89.5t1 82.5l277 -9h12q75 0 143 27t120 74.5t83 112t31 139.5zM1415 682q0 -20 -8 -42 t-23 -40.5t-37 -30.5t-51 -12h-4l-542 12q-36 1 -59 13.5t-37 31t-19.5 40t-5.5 40.5v408q0 27 10.5 48.5t27 36t36.5 22.5t38 8l537 2q26 0 51 -11.5t44 -30t30.5 -42t11.5 -48.5v-405z" />
<glyph unicode="r" horiz-adv-x="1847" d="M2482 -147q0 26 -16.5 38.5t-38.5 12.5q-8 0 -29 0.5t-49.5 1t-60.5 1.5t-61.5 2t-52.5 1.5t-34 1.5q-54 1 -98.5 9t-83 23.5t-71.5 40t-64 58.5q-15 18 -36.5 53.5t-45 79.5t-47.5 92.5t-46 92t-39.5 77t-27.5 47.5q-32 47 -90 89.5t-139 70.5h96q70 0 134 26t113 71.5 t78 107.5t29 133q0 72 -29.5 135t-77.5 111t-110.5 78t-128.5 36q-14 1 -58 3t-109 4.5t-147 5.5t-171.5 5.5t-182.5 5.5t-180.5 5.5t-165.5 4.5t-137 3.5t-95 2.5t-40 1h-4q-31 0 -46.5 -12.5t-17.5 -44.5q0 -4 -1 -41.5t-2 -98t-2.5 -139.5t-2.5 -167.5t-2.5 -181.5 t-3 -181.5t-2.5 -167t-2 -137.5t-1.5 -95t-0.5 -38v-6q0 -44 18.5 -65t63.5 -19h8q6 0 43.5 1.5t90 4t112.5 5.5t112.5 5.5t89 4t42.5 1.5q12 1 22 4t16.5 10.5t10.5 20t4 33.5v2q0 8 -1 32t-2 59t-3 77t-3.5 86t-3.5 86.5t-4 77.5l156 -2q44 -1 79 -9t63.5 -22t52 -34 t43.5 -44q10 -12 33.5 -49t55 -88t68 -109t72.5 -113t68 -100.5t55 -70.5q38 -40 85 -67.5t101 -45t112.5 -26.5t119.5 -11q9 0 50.5 -0.5t98.5 -1.5t122 -2t121.5 -2t96.5 -1.5t47 -0.5h2q16 0 29 6t22 15.5t14.5 20t6.5 19.5q3 19 6.5 39t3.5 49v3zM1221 969v-4 q-1 -39 -10 -72t-26.5 -57t-43.5 -37t-62 -13h-463l-16 351l451 -7q38 -1 69.5 -13t54 -33t34.5 -50.5t12 -64.5z" />
<glyph unicode="s" horiz-adv-x="1731" d="M1751 797l-6 131q-4 57 -46 110.5t-112 95t-162 67t-196 26.5l-594 2q-50 1 -112 -6.5t-126.5 -24t-126 -43.5t-109.5 -65.5t-77 -89.5t-29 -117t33 -116.5t84 -87.5t112.5 -59.5t118.5 -33.5q28 -5 70 -12t92.5 -14.5t107.5 -16t114 -16t112 -15t102 -12.5q26 -3 53 -10 t49 -20.5t36 -34.5t14 -52t-12.5 -51t-31.5 -32t-41.5 -16.5t-41.5 -4.5l-330 -7q-33 -1 -60 8.5t-46.5 25.5t-30.5 37t-12 42l-2 64q0 24 -14.5 37.5t-45.5 13.5l-401 4h-2q-22 0 -31.5 -9t-9.5 -38q0 -32 1.5 -64.5t6.5 -64.5q7 -61 42.5 -115.5t94 -95t137.5 -64 t173 -24.5l737 -2q38 0 85 6.5t95.5 22t94 40t81 59.5t57 80.5t21.5 102.5q0 67 -24.5 119.5t-74.5 92t-127.5 66.5t-183.5 43q-22 3 -60 9t-85 13.5t-100.5 16t-107.5 17t-106.5 16t-97.5 14.5q-24 3 -48 11.5t-43 23.5t-30.5 37t-11.5 53q0 32 13.5 52.5t33 33t42 17.5 t40.5 6l330 4q34 0 61.5 -9t47 -24.5t30.5 -35.5t11 -42l2 -63q2 -26 16 -38.5t45 -12.5l471 -6q22 0 32.5 8.5t8.5 36.5z" />
<glyph unicode="t" horiz-adv-x="1434" d="M1556 1276q0 6 -0.5 25t-1.5 40.5t-1.5 40t-0.5 23.5q-2 25 -13.5 37t-37.5 12h-4h-4q-11 0 -60 0.5t-125.5 1t-174.5 1t-206 1.5t-221 2t-219.5 2t-201 1.5t-166 1t-114 1t-44.5 0.5q-23 0 -43 -12t-20 -41v-143q0 -35 14.5 -50t56.5 -18q5 0 22.5 -1.5t41.5 -3.5 t51.5 -4t52.5 -4t43.5 -3.5t24.5 -1.5q115 -5 173 -49.5t58 -147.5v-852q0 -40 15 -57t55 -17h4l393 9q37 2 48.5 18t11.5 51v2l-5 1055q147 9 265 15q50 3 98.5 5.5t87.5 4.5t64 3t28 1q28 0 41.5 17.5t13.5 33.5z" />
<glyph unicode="u" horiz-adv-x="1964" d="M1915 449l-6 835q0 31 -15.5 42t-46.5 11l-411 6q-7 0 -16.5 -2.5t-17.5 -8.5t-14 -16.5t-6 -27.5l4 -796q0 -32 -13.5 -64.5t-38 -58.5t-58.5 -42t-76 -16h-4l-393 11q-68 2 -111.5 49t-46.5 125v18q0 20 0.5 51t1 69t1.5 80t2 82q3 95 5 203v2q3 58 -71 58 q-3 0 -29.5 0.5t-65.5 0.5t-86 1t-92 1t-83 0.5t-58 0.5h-18q-25 -2 -41.5 -15t-16.5 -49l-2 -524q0 -53 18 -101.5t49 -90.5t72.5 -77t89 -61t98 -43t99.5 -22q12 -1 52 -3t98.5 -3.5t130.5 -2.5t146 -2.5t146 -2.5t130.5 -1.5t99.5 -1t53 -0.5h17q107 -1 202.5 26t167 78 t113 122.5t41.5 159.5z" />
<glyph unicode="v" horiz-adv-x="1735" d="M1776 1327q0 -17 -11 -37q0 -1 -14.5 -33t-39.5 -87t-57.5 -128t-70 -155.5t-76.5 -170t-77 -170.5t-71.5 -158.5t-59.5 -133t-42.5 -93.5t-19.5 -42q-8 -17 -27 -28t-45 -11l-614 2q-29 0 -42 8t-24 33q0 1 -13.5 29t-36.5 76t-53.5 111.5t-64.5 135t-70 147 t-70.5 147.5t-65 136t-53.5 113t-37 78.5t-15 31.5q-6 20 -6 35q0 17 10.5 29t30.5 14h18q18 0 50.5 -0.5t72 -1t82.5 -1.5t81.5 -1.5t69.5 -1t46 -0.5h12q26 0 48.5 -14t31.5 -37l321 -768l410 973q14 28 43 28l393 -10q56 -3 56 -45z" />
<glyph unicode="w" horiz-adv-x="2198" d="M2425 1149q0 26 -16.5 37.5t-36.5 11.5q-1 0 -30 1.5t-75 3.5t-104.5 5t-119.5 5.5t-119.5 5.5t-105 5t-75.5 3.5t-31 1.5q-37 -2 -51 -20t-21 -46q-1 -5 -5.5 -35.5t-11.5 -76.5t-15 -103t-16 -116q-19 -138 -44 -310q-64 150 -115 269q-22 51 -43 100t-38 88t-28 64 t-13 28q-8 12 -14 20.5t-13 13.5t-16 7.5t-23 3.5q-3 1 -21.5 2t-45 2.5t-57 3.5t-58 4t-47.5 4t-25 3h-10q-36 0 -55 -29q-1 -2 -13 -28t-30.5 -66.5t-41.5 -92t-47 -105.5q-56 -126 -126 -284q-39 181 -71 327q-13 62 -26.5 122.5t-24 109.5t-17.5 82t-9 39 q-6 32 -25.5 50t-54.5 18h-12q-6 0 -35.5 -2.5t-69.5 -5t-86 -5.5t-85.5 -6t-67 -4.5t-31.5 -1.5q-53 -6 -53 -71q0 -5 9.5 -48.5t25.5 -112.5t36 -156t41.5 -177.5t42 -177.5t37 -157t27.5 -115t12 -52q7 -32 24 -47.5t42 -17.5q5 0 40.5 -1.5t86.5 -3.5t109.5 -4t109 -4 t85 -3t38.5 -1q20 0 32.5 7t24.5 24q3 3 16 32t32.5 74t44 101.5t49.5 115.5q59 138 133 312q74 -182 132 -326q25 -61 48.5 -120t42.5 -105.5t30.5 -75.5t12.5 -30q9 -19 45 -19l479 -2q41 0 58.5 23t23.5 55q1 8 6.5 38.5t13.5 76t18.5 102t21 115.5t21 117.5t19.5 107.5 t15.5 86t9.5 53q6 32 17 59t28.5 46.5t43 30t61.5 10.5h2l118 -2q25 0 40.5 13.5t17.5 39.5z" />
<glyph unicode="x" horiz-adv-x="1876" d="M1855 1108q0 -16 -8.5 -31t-21.5 -27.5t-26.5 -22.5t-24.5 -17l-508 -353l522 -368q25 -19 40 -38.5t15 -45.5q0 -15 -6 -26.5t-15 -19t-19.5 -11t-18.5 -3.5l-447 13q-17 1 -34 7t-30 14q-15 9 -28 20l-323 223l-326 -223q-12 -11 -27 -20q-13 -8 -29 -14t-34 -7 l-449 -13q-7 0 -17 3.5t-19 11t-15 19t-6 26.5q0 26 15.5 45.5t39.5 38.5l523 368l-508 353q-11 7 -23 15.5t-22.5 19.5t-17.5 24.5t-7 30.5q0 34 17.5 49.5t43.5 17.5h5q12 0 49 -0.5t85.5 -1t102 -1.5t99 -1.5t77 -1t35.5 -0.5q19 0 38.5 -7.5t36.5 -17.5q19 -11 38 -26 l295 -209l295 209q19 15 38 26q17 10 36.5 17.5t37.5 7.5q4 0 36 0.5t79 1t101.5 1.5t104 1.5t87 1t49.5 0.5h4q26 -1 45.5 -12.5t19.5 -46.5z" />
<glyph unicode="y" horiz-adv-x="1679" d="M1720 1165q0 20 -17 32.5t-48 12.5h-457q-26 0 -50 -8t-50 -39q-6 -7 -21.5 -26.5t-36.5 -46t-46 -57.5t-49 -63q-57 -74 -126 -163q-79 97 -143 176q-27 34 -54.5 67l-50 60t-38.5 46t-21 24q-19 21 -47 33t-64 12h-29.5t-49 -0.5t-62 -1t-66.5 -1.5q-78 -2 -171 -3 q-28 -4 -46 -19t-18 -37q0 -12 6 -25.5t19 -27.5l577 -651q1 -48 1.5 -100.5t1.5 -104t2 -99t2 -84t1.5 -59.5t1.5 -26q3 -26 14 -39.5t42 -18.5q3 -1 29.5 -3t64 -5t81.5 -6t81.5 -5.5t64 -4.5t29.5 -2h4q60 0 63 51l37 493l621 680q18 23 18 39z" />
<glyph unicode="z" horiz-adv-x="1739" d="M1759 1106q0 28 -17 51t-59 23h-2q-433 -10 -774 -18q-97 -2 -192.5 -4.5t-182.5 -4.5t-161.5 -4t-130 -3.5t-88 -3t-35.5 -1.5q-25 -5 -41.5 -18t-16.5 -38l7 -131q2 -21 16 -32t45 -13q5 0 40.5 -0.5t89.5 -2t121.5 -2.5t137.5 -3q164 -4 369 -8l-832 -717 q-33 -30 -33 -65q0 -18 7 -34.5t18.5 -29t26.5 -20t30 -7.5h2l1383 52q37 2 50 13t15 42l9 166q0 52 -58 55h-20h-66t-98 -0.5t-117 -1t-124 -0.5q-144 -1 -312 -2l971 709q11 8 16.5 22.5t5.5 30.5z" />
<glyph unicode="{" horiz-adv-x="1296" d="M1214 1343l-8 166q-2 29 -16 41.5t-49 14.5q-7 0 -41.5 1.5t-87 4t-118 6t-134.5 7t-137 7t-125 6.5h-21q-46 0 -84.5 -11.5t-66.5 -36.5t-43.5 -63t-16.5 -91q-2 -66 -2 -156.5v-194.5q0 -29 -7.5 -56t-20.5 -51t-29.5 -45.5t-33.5 -39.5q-40 -42 -91 -76q49 -30 88 -70 q33 -35 60.5 -84.5t27.5 -113.5v-214t-2 -171v-6q0 -102 57.5 -159.5t175.5 -57.5h9q54 1 118 2.5t129 2.5t126.5 2.5t110.5 3t82 2t40 1.5q31 1 52 11t22 42l6 170q0 31 -13 47t-51 19q-7 1 -25.5 2t-43.5 2.5t-54.5 3.5t-59.5 4q-70 4 -153 8q-1 57 -2 115 q-1 50 -1.5 106.5t-0.5 104.5q0 24 -8 46t-21 41.5t-29.5 36t-33.5 30.5q-40 33 -92 57q49 22 88 54q33 27 60.5 67t27.5 94t-0.5 107.5t-2.5 96.5q-2 50 -3 97q98 3 179 6q35 1 69 2t63 2t50 1.5t28 0.5q28 2 43.5 15.5t15.5 39.5z" />
<glyph unicode="|" horiz-adv-x="653" d="M571 1376q-2 28 -15 42t-56 16h-2q-9 0 -39 -0.5t-69.5 -1.5t-83.5 -1.5t-82 -1.5t-64 -1.5t-29 -0.5q-28 -2 -37.5 -17t-11.5 -40v-27q0 -34 0.5 -106t1 -167t1 -205.5t1.5 -220.5t1.5 -212.5t1 -182t1 -129t0.5 -52.5q3 -25 14.5 -38.5t42.5 -19.5q4 0 27 -2.5 t56.5 -5.5t71.5 -6t71 -5.5t56 -4.5t26 -2h4q60 0 63 53q0 2 1.5 38.5t4 99.5t6 146t7 176.5t7 193t7 194.5t6.5 180.5t5 152t3.5 108.5t1.5 50z" />
<glyph unicode="}" horiz-adv-x="1296" d="M1214 719q-49 31 -89 71q-17 17 -33 38.5t-28.5 46t-20 53t-7.5 59.5q0 115 1 214t1 173v6q0 100 -56 158.5t-175 58.5h-10q-54 -1 -117.5 -2.5t-128.5 -2.5t-126.5 -2.5t-110.5 -3t-81.5 -2t-39.5 -1.5q-32 -1 -53 -11t-21 -44l-6 -168q-2 -31 10.5 -47t52.5 -21 q8 -1 26.5 -2t43 -2.5t54 -2.5t58.5 -3q69 -4 152 -8q1 -58 3 -116q2 -50 2.5 -106.5t0.5 -105.5q0 -24 8 -45.5t21 -41t29.5 -36t33.5 -30.5q40 -33 92 -58q-49 -21 -88 -52q-33 -26 -60.5 -66.5t-27.5 -94.5t0.5 -107.5t1.5 -96.5q1 -50 2 -97q-98 -3 -179 -6 q-34 -1 -68.5 -2.5t-63 -2.5t-49.5 -2t-29 -1q-26 0 -42.5 -13.5t-14.5 -39.5l8 -166q0 -29 14 -42.5t50 -13.5q7 -1 41.5 -2.5t87 -4t118 -5.5t134.5 -6.5t137 -7t125 -6.5h22q45 0 83.5 11.5t66.5 36t44 62.5t17 92q2 66 2 155.5v193.5q0 30 8 57t20.5 51.5t29 45.5 t33.5 39q40 41 91 75z" />
<glyph unicode="~" horiz-adv-x="1554" d="M1473 768q0 15 -9.5 21.5t-17.5 11.5l-62 24q-15 6 -26 6q-18 0 -29 -22l-29 -68q-18 -46 -56 -73t-79 -27q-26 0 -75 19t-110 48t-129.5 62t-134 62t-123 48t-97.5 19q-57 0 -104 -19.5t-85.5 -52.5t-70 -76t-57.5 -90.5t-47.5 -96t-41.5 -91.5q-8 -16 -8 -29 q0 -15 9.5 -22t17.5 -10l61 -29q8 -2 13 -4t12 -2q18 0 30 24l31 68q20 46 58.5 73t78.5 27q27 0 76 -19t109.5 -47.5t128 -61.5t132 -61.5t122.5 -47.5t98 -19q58 0 105 19t85.5 51.5t69.5 75.5t56.5 90t47.5 95.5t41 92.5q9 20 9 31z" />
<glyph unicode="&#xa1;" horiz-adv-x="670" d="M82 51q0 2 4.5 41.5t11.5 103.5t16 145t19 165.5t19 165.5t16 144.5t11.5 103t4.5 41.5q3 24 20 38.5t46 14.5h8q3 0 24 -3t51 -6.5t64.5 -8t64.5 -8t51.5 -6t25.5 -3.5q32 -6 43 -20.5t14 -38.5q0 -4 0.5 -34t1.5 -79t1.5 -112t1 -132t1.5 -139t1 -133.5t0.5 -115.5 t0.5 -85q0 -18 -1 -29.5t-1 -13.5q-2 -25 -13.5 -41t-39.5 -16h-4q-12 0 -44 0.5t-74 0.5t-88 1t-85.5 1t-66.5 0.5t-31 0.5q-43 3 -57 17t-17 40zM186 1378q0 32 25 52t57 20h2l287 -10q32 -2 52 -21.5t20 -50.5v-2l-6 -182q-2 -32 -23.5 -51t-52.5 -19h-4l-285 10 q-32 2 -52 22t-20 54v178z" />
<glyph unicode="&#xa2;" horiz-adv-x="1362" d="M1341 535v8q0 15 -12 30t-37 17q-9 0 -33 0.5t-55 1t-65 1.5t-63 1.5t-49 1t-23 0.5q-11 0 -25 -9.5t-16 -31.5q-1 -7 -2 -18t-1.5 -22t-1.5 -21.5t-2 -16.5q-2 -14 -8.5 -29.5t-18.5 -29t-31 -22.5t-46 -9l-272 4q-25 0 -47.5 10.5t-38.5 28t-25.5 40.5t-9.5 48l6 393 q0 31 11 54.5t27.5 39t35.5 24t34 9.5l265 6q22 0 43.5 -7.5t38 -21.5t26.5 -33.5t10 -43.5v-4l-2 -35v-4q0 -47 50 -47l294 -6h2q19 0 28 11t9 42v94q0 47 -25.5 98t-69.5 94t-101.5 72t-122.5 31h-57l4 109q-3 28 -17 42.5t-57 14.5l-369 -4q-28 0 -38.5 -17.5 t-10.5 -42.5v-98h-53q-48 0 -103 -22t-104.5 -62.5t-86 -97t-46.5 -125.5q-1 -9 -4.5 -40t-7.5 -75.5t-9 -96.5t-9 -102t-6.5 -93t-2.5 -70v-10q2 -45 24 -100t61.5 -103.5t95.5 -82.5t126 -38q9 -2 44 -2t89 -2q2 -37 2 -58v-24q2 -25 14.5 -38.5t41.5 -18.5q4 0 27 -2.5 t56 -5.5t71 -6.5t71 -6t56 -4.5t26 -2h4q60 0 63 53l5 105l63 -2h8q55 0 112.5 23t106.5 61.5t83.5 87.5t43.5 100q2 10 3 25t1.5 30t1 29t0.5 23z" />
<glyph unicode="&#xa3;" horiz-adv-x="1540" d="M1499 526q0 28 -7 36.5t-24 8.5h-2l-303 -4q-23 0 -33 -10.5t-12 -32.5l-2 -28q-1 -18 -9 -34.5t-22.5 -30t-34.5 -21.5t-44 -9h-2q-6 0 -32 0.5t-63.5 1t-83.5 1t-93 1.5q-110 2 -245 3q22 21 44 46q19 21 39.5 49.5t35.5 61.5l367 -8q12 2 18 8t6 25v4q0 8 -0.5 28 t-0.5 41.5t-0.5 38.5t-0.5 19q0 12 -7.5 17t-18.5 5h-340q-4 32 -10 57t-11.5 49t-9.5 48.5t-4 54.5q0 27 10 44.5t24.5 28t31.5 14.5t32 5q12 0 36.5 0.5t50.5 1t48 1t29 0.5q25 0 45.5 -8t35 -21.5t22.5 -30t8 -33.5l2 -55q3 -43 47 -43l354 -6q17 0 25 9.5t8 37.5 q0 8 -0.5 20.5t-1 26.5t-1.5 28.5t-3 26.5q-4 41 -31 85t-76 81t-119.5 62t-160.5 26l-365 2q-40 1 -88 -4t-96.5 -16.5t-93.5 -31t-79.5 -48.5t-55.5 -69t-21 -93q0 -34 6.5 -65t15 -61t17.5 -60.5t14 -65.5q-80 -2 -131 -2h-53q-11 -2 -18 -7t-9 -19q-1 -2 -3 -17.5 t-4 -34t-3.5 -34t-1.5 -17.5v-4q0 -23 25 -26l186 -5q-15 -39 -37.5 -80.5t-48 -81t-51 -74.5t-45.5 -60q-17 -23 -17 -43q0 -17 14.5 -30t43.5 -13l1046 4q82 0 137.5 4.5t91 17t55.5 35t30.5 59t16 89t11.5 124.5z" />
<glyph unicode="&#xa4;" horiz-adv-x="1655" d="M1573 547q0 15 -12.5 30t-36.5 17l-291 6q-9 0 -22.5 -9.5t-16.5 -31.5q-2 -18 -3 -42t-3 -38q-2 -13 -9 -28.5t-19.5 -28.5t-31.5 -22t-45 -9l-272 2q-48 0 -78 32t-41 79q52 1 98 1.5t80.5 1t54.5 1t21 0.5h6q10 0 15 3.5t10 14.5q1 2 7 16.5t12.5 31.5t12.5 31.5 t7 17.5q2 4 2 12q0 16 -19 22q-1 0 -25.5 1t-66.5 2t-97.5 3t-117.5 3v88l330 -9h10q8 0 13 6t10 21q1 2 5.5 20.5t9.5 41t9.5 42t5.5 21.5q2 2 2 4v4q0 14 -20 21q-1 1 -32 1.5t-82 0.5h-117.5h-139.5q4 27 16 47.5t28 35t33 22.5t32 9q8 0 28 0.5t46.5 1t56 1t56.5 1 t47.5 1t29.5 0.5h4q26 0 47.5 -9.5t36.5 -24.5t23 -34.5t8 -40.5v-37q0 -48 45 -51l297 -4h2q18 0 26.5 10.5t8.5 42.5v92q0 48 -25.5 100t-69 95.5t-102 71.5t-123.5 28l-596 6q-47 1 -103 -21t-106.5 -62.5t-87 -97.5t-43.5 -128l-6 -55q-80 0 -131 -1t-53 -1 q-11 -2 -17.5 -6.5t-9.5 -18.5q-1 -3 -3 -18.5t-4 -33.5t-3.5 -33t-1.5 -17v-4q0 -13 6.5 -19t17.5 -8l183 -4l-6 -90l-177 4q-12 -2 -18 -9t-6 -24q0 -2 0.5 -22t0.5 -43.5t0.5 -43.5t0.5 -22q3 -22 27 -22l161 2q3 -45 25.5 -99t62 -102t95.5 -82t125 -39q7 0 36 -1 t71.5 -2t95 -2t107.5 -2t108.5 -2t98 -2t75.5 -2t42 -1h5q55 0 115.5 23t111.5 61t85 87t36 101z" />
<glyph unicode="&#xa5;" horiz-adv-x="1427" d="M1448 1214q0 16 -14.5 26.5t-38.5 10.5h-369q-22 0 -42 -7t-42 -32q-5 -6 -17.5 -22t-29.5 -37.5t-36.5 -46.5t-39.5 -51q-47 -60 -102 -131q-63 78 -115 141q-22 27 -44 53.5t-40 49t-31 38t-18 19.5q-15 18 -38.5 27.5t-51.5 9.5h-24t-40 -0.5t-50 -1t-54 -1.5 q-63 -2 -139 -4q-22 -2 -37 -14t-15 -29q0 -16 19 -43l340 -381h-133q-13 -3 -19 -8.5t-8 -19.5q0 -1 -2 -14.5t-5 -29t-5 -29t-2 -15.5q0 -31 26 -31l277 -6l2 -117l-279 6q-12 -2 -18 -7t-8 -25v-3q0 -7 0.5 -25.5t1 -37.5t1 -34t1.5 -17q0 -14 6.5 -18.5t17.5 -4.5h281 q0 -40 1 -65.5t1 -28.5q3 -20 11.5 -31t33.5 -16q3 0 24 -2t52 -4.5t66.5 -5t66.5 -5t52 -4t24 -2.5h4q23 0 35 12t14 33l10 119q54 1 104 1.5t88.5 0.5h62h24.5q12 3 17.5 9t8.5 20q0 2 2 15t4.5 28.5t4.5 29t2 15.5q0 28 -25 31l-280 6l4 115l276 -5q13 2 19 7.5t6 25.5 v117q-2 14 -10 18.5t-19 4.5h-123l359 391q14 17 14 32z" />
<glyph unicode="&#xa6;" horiz-adv-x="653" d="M571 1380q0 25 -14.5 39.5t-52.5 14.5h-2l-371 -7q-28 0 -38.5 -16t-10.5 -41l2 -530q0 -64 53 -64h361q31 0 43 14t14 48l16 538v4zM541 547q0 17 -5.5 26.5t-14 14.5t-19.5 6.5t-23 1.5h-334q-27 0 -42 -20.5t-15 -45.5l2 -462q2 -25 14.5 -40t45.5 -18l305 -26h10 q23 0 39 12.5t18 40.5l19 506v4z" />
<glyph unicode="&#xa7;" horiz-adv-x="1798" d="M1778 1116v4q-1 10 -1.5 25t-1 32l-1 34t-2.5 32q-4 33 -24.5 68t-55 68t-81 62t-102.5 51t-120.5 35t-133.5 13l-596 6q-50 1 -112.5 -6.5t-126.5 -24.5t-125 -44t-108.5 -66.5t-76 -91t-28.5 -117.5q0 -72 39.5 -126t101.5 -91q-52 -40 -84.5 -92.5t-32.5 -120.5 q0 -66 33 -116.5t84 -87t113.5 -59t120.5 -32.5q27 -5 68.5 -11.5t92.5 -14.5t107.5 -16t114 -16.5t112 -16t101.5 -13.5q26 -3 53 -10t49.5 -20t36.5 -34t14 -53q0 -30 -13 -49.5t-32.5 -31t-42 -16.5t-41.5 -7q-9 0 -33 -0.5t-56 -1t-68.5 -1t-69.5 -1t-59 -0.5h-37h-6 q-32 0 -59 9t-46.5 24t-30.5 34.5t-12 40.5q-1 5 -1.5 14t-0.5 18.5v18.5v15q0 26 -15 37.5t-46 13.5l-400 4h-2q-22 0 -31.5 -9t-9.5 -38v-6v-24t0.5 -31.5t1.5 -33.5t2 -32q7 -55 41 -108.5t91.5 -96t137.5 -68.5t179 -26l737 -4q39 0 86 7t95 22.5t93.5 40t81 58.5t57 79 t21.5 102q0 78 -31 135t-96 99q45 37 73 85.5t28 114.5q0 134 -98 211.5t-310 108.5q-23 4 -61 10t-85 14t-100.5 16.5t-107.5 17.5t-106 16.5t-97 13.5q-24 3 -47.5 11.5t-42.5 23.5t-31 37t-12 53q0 32 13 52.5t32.5 32.5t42 17t41.5 6q9 1 34 1t58 0.5t70 1t70 1t59 0.5 h37h4q32 0 59 -9t46 -24.5t30 -35.5t12 -41v-12.5v-18t0.5 -18.5t1.5 -15q3 -51 62 -51l469 -4q23 0 33 9t10 38zM1180 698q0 -30 -12.5 -50t-31.5 -32t-41.5 -17t-41.5 -5q-76 0 -151 12t-150 23q-24 4 -48 12t-43 23t-31 37.5t-12 54.5q0 24 9 42t23 30t31.5 19t35.5 11 q80 -11 162.5 -22t148.5 -19q26 -4 53 -11t49 -20.5t36 -34.5t14 -53z" />
<glyph unicode="&#xa8;" horiz-adv-x="2056" d="M1497 1225l-4 194q-1 15 -7 29.5t-16.5 25t-25.5 16.5t-33 5h-231q-16 -1 -31 -6t-27 -14.5t-19.5 -23t-8.5 -30.5l-2 -194q0 -31 22.5 -51.5t56.5 -20.5l230 -4h2q43 0 68.5 23t25.5 51zM965 1225l-4 194q-1 15 -7 29.5t-16.5 25t-25.5 16.5t-33 5h-232q-16 -1 -31 -6 t-27 -14.5t-19.5 -23t-8.5 -30.5l-2 -194q0 -31 23 -51.5t57 -20.5l229 -4h2q44 0 69.5 23t25.5 51z" />
<glyph unicode="&#xa9;" horiz-adv-x="1370" d="M1309 739v373q0 66 -26.5 126t-72 106.5t-106.5 74.5t-131 29l-508 6q-82 2 -151.5 -27t-120 -75t-79 -103.5t-28.5 -113.5l-4 -375q-1 -60 28 -113.5t75 -94.5t103 -65t113 -26l502 -10q43 -1 90 5t92 20.5t85.5 37.5t71.5 55.5t49 74.5t18 95zM1112 739 q1 -34 -12.5 -63.5t-37 -51.5t-54.5 -34t-66 -12l-522 8q-29 1 -55 12.5t-44.5 32t-29.5 48.5t-10 62l4 418q0 34 11 63t31.5 50t48 33t60.5 12l525 4q34 0 61 -13.5t45.5 -36t29 -52.5t11.5 -62zM1008 850q-2 11 -10 22t-23 11q-37 1 -67 2q-26 1 -46.5 1.5t-21.5 0.5 q-19 0 -24 -15.5t-7 -29.5v-12t-2 -11q0 -3 -7 -15t-32 -16q-29 -3 -61.5 -1.5t-61.5 1.5q-20 4 -33.5 17t-11.5 35v180q2 25 17 36.5t24 12.5q6 0 25 0.5t40.5 0.5t39 0.5t20.5 0.5q15 0 28 -11t13 -30v-16q0 -29 33 -35l135 -2h2q18 0 23.5 11.5t5.5 25.5q2 11 1 21.5 t-1 21.5q-2 24 -15 50t-34.5 47.5t-50 35.5t-60.5 14l-277 2q-23 0 -50 -10.5t-52 -30t-43 -47.5t-23 -63q-1 -6 -4 -35t-6 -65t-5.5 -71t-2.5 -55v-2q0 -23 11 -50t31 -51t48.5 -41t63.5 -19q5 0 26.5 -1t52.5 -2t66 -2t66 -2t53.5 -1.5t27.5 -0.5h2q29 0 57.5 11.5t53 31 t41.5 44.5t23 51q2 11 2 30.5v24.5z" />
<glyph unicode="&#xaa;" horiz-adv-x="1161" d="M1100 758l-2 69q0 11 -1 18t-5 12t-10.5 10t-18.5 12q-22 12 -28.5 37t-4.5 47l14 387q2 24 -15.5 36.5t-43.5 14.5h-2q-5 0 -22 -0.5t-40 -0.5t-49 -1t-48 -1t-37 -0.5t-17 -0.5q-4 0 -12 -1t-15.5 -5.5t-13.5 -14t-8 -26.5l2 -33q-53 20 -114 36q-52 14 -119 25 t-142 11q-57 0 -105 -18.5t-82.5 -48t-54 -67t-20.5 -75.5l-4 -219q-1 -40 19 -74t52.5 -60t72 -42t77.5 -21q9 -1 32.5 -2t56.5 -2t71.5 -1.5t77.5 -0.5q50 0 88.5 15.5t64.5 35.5q31 23 54 51q11 -36 46 -66q15 -13 37 -25.5t52 -23.5t70 -19t91 -11h7q27 0 38 14.5 t11 28.5zM1067 565q0 32 -31 35q-1 0 -39 1t-99.5 3.5t-140 5t-160.5 5t-161 5t-140.5 5t-100 3.5t-39.5 1q-16 -2 -23.5 -10t-9.5 -31v-2q0 -9 0.5 -36.5t1.5 -58t1.5 -55.5t0.5 -28q2 -16 10.5 -21.5t24.5 -7.5h39.5t97.5 0.5t136.5 1t155.5 0.5t155.5 0.5t136.5 1 t97.5 0.5h39.5q14 3 21.5 9.5t9.5 25.5q1 3 3.5 24.5t5.5 47t5 47t2 24.5v4zM725 991q0 -21 -18 -38t-45 -17h-3l-253 2q-23 2 -36.5 16t-13.5 37v180q0 26 19.5 38t38.5 14h2q7 0 27 -0.5t47.5 -1.5t58 -2.5t57 -2.5t45.5 -1.5t23 -0.5q26 0 38.5 -17.5t12.5 -37.5v-168z " />
<glyph unicode="&#xab;" horiz-adv-x="1163" d="M1081 291v-16.5t-0.5 -35.5t-0.5 -44.5t-0.5 -44.5t-0.5 -35.5v-16.5q-2 -18 -13.5 -28.5t-25.5 -10.5q-10 0 -18 7q-9 5 -40.5 27.5t-74.5 54t-91.5 67.5t-91 67.5t-73 54.5t-37.5 28q-21 14 -31 38t-10 46v284q0 57 41 86q7 5 37.5 27.5t73 53.5t91 67t91.5 68t74.5 55 t40.5 28q5 2 9 3t9 1q14 0 25.5 -10t13.5 -27v-17.5t0.5 -35.5t0.5 -44.5t0.5 -44t0.5 -34.5v-16v-6q0 -23 -9 -51t-28 -43q-5 -4 -28 -23t-56 -47t-73 -62t-80 -69q40 -34 80 -68.5t73 -63t56 -47.5t28 -24q19 -15 28 -42t9 -52v-4zM549 291v-16.5t-0.5 -35.5t-0.5 -44.5 t-0.5 -44.5t-0.5 -35.5v-16.5q-2 -18 -13.5 -28.5t-25.5 -10.5q-9 0 -19 7q-8 5 -39.5 27.5t-74.5 54t-91.5 67.5t-91 67.5t-73 54.5t-37.5 28q-22 14 -31.5 38t-9.5 46v284q0 28 9.5 49.5t31.5 36.5q5 4 24 17.5t47 34t61.5 45.5t69 51t69.5 51.5t62 46t48 35t26 18.5 q5 2 9.5 3t9.5 1q14 0 25.5 -10t13.5 -27v-17.5t0.5 -35.5t0.5 -44.5t0.5 -44t0.5 -34.5v-16v-6q0 -23 -9 -51t-28 -43q-5 -4 -28 -23t-56 -47t-73.5 -62t-80.5 -69q40 -34 80.5 -68.5t73.5 -63t56 -47.5t28 -24q19 -15 28 -42t9 -52v-4z" />
<glyph unicode="&#xac;" />
<glyph unicode="&#xae;" horiz-adv-x="1370" d="M1309 739v373q0 66 -26.5 126t-72 106.5t-106.5 74.5t-131 29l-502 6h-6q-82 1 -151.5 -28t-120 -75t-79 -103t-28.5 -113l-4 -375q-1 -60 28 -111.5t75.5 -91t103.5 -64.5t112 -32q11 -1 49.5 -2t90 -2t110 -2.5t110.5 -2t91 -1t51 -0.5h8q82 -1 154.5 19.5t126.5 58 t85.5 91t31.5 119.5zM827 1047q0 -28 -12.5 -45.5t-40.5 -20.5h-174l-4 133l168 -4q29 0 46 -17t17 -46zM1112 739q2 -18 -3 -35t-13 -34q-11 6 -22 13.5t-19 18.5q-9 10 -22 34t-26.5 50.5t-25.5 50t-18 31.5q-13 17 -34 33.5t-50 26.5h34q13 0 35 6t44 20.5t38 39t17 61.5 q0 27 -11 50.5t-29 42t-42 30.5t-50 14q-8 1 -46 2t-90.5 2.5t-112 3t-110.5 3l-85 2.5t-37 1q-23 0 -26 -22q0 -2 -0.5 -37t-1.5 -86.5t-1.5 -111t-1.5 -111t-1.5 -86.5t-0.5 -37q0 -17 6 -26t23 -7h4l182 8q11 0 17 5.5t6 19.5q0 4 -1 21.5t-2.5 41t-2.5 49.5t-2 47l59 -2 q34 -2 54.5 -11.5t35.5 -26.5q6 -7 22.5 -34t37 -59.5t40.5 -63t33 -44.5q16 -19 37 -30t47 -17q-12 -3 -25.5 -5.5t-27.5 -2.5h-2l-522 8q-30 1 -55.5 12.5t-44.5 32t-29.5 48.5t-9.5 62l4 418q0 34 11 62t30.5 49t47 33.5t60.5 13.5q6 1 41 1t85.5 0.5t110 1t114.5 1 t99 0.5h64h13q34 0 61 -13.5t45.5 -36t29 -52.5t11.5 -62z" />
<glyph unicode="&#xaf;" horiz-adv-x="2056" d="M1399 1391q0 21 -9 32t-24 11l-674 30h-2q-15 0 -24 -9.5t-9 -35.5v-19t0.5 -42t0.5 -53.5t0.5 -53.5t0.5 -42v-19q0 -17 10 -24t27 -7l650 4q31 3 34 37q1 4 4 33t6.5 63.5t6 63t2.5 31.5z" />
<glyph unicode="&#xb0;" horiz-adv-x="877" d="M795 1231v168q0 35 -14.5 64.5t-39.5 52t-57 35.5t-68 14l-331 4q-43 0 -80 -14t-64 -37t-42 -52t-15 -59l-2 -168q0 -30 15.5 -56.5t39.5 -47t54 -32.5t59 -13l336 -5q34 -1 71 6.5t67.5 25t50.5 45.5t20 69zM569 1247q2 -17 -12.5 -29t-36.5 -12l-166 2q-17 0 -28 10.5 t-11 30.5l2 156q0 22 15.5 30.5t27.5 8.5l166 2q22 0 30.5 -14.5t10.5 -28.5z" />
<glyph unicode="&#xb1;" />
<glyph unicode="&#xb2;" horiz-adv-x="1190" d="M1108 864q0 22 -9.5 34.5t-31.5 12.5h-18l-203 -2q-45 0 -51 -47q0 -20 -17.5 -36.5t-48.5 -16.5l-231 4q-7 0 -16.5 2t-18.5 7t-15 14t-6 24q0 7 2 17t9.5 20t22 17.5t38.5 9.5q24 3 53 7t60.5 8t63 8.5t61.5 8.5q70 10 143 19q39 5 76 20t65.5 39t46 55.5t17.5 69.5 q0 60 -33.5 102.5t-83.5 69t-108 39t-107 12.5h-18l-363 -4q-56 -1 -110.5 -14.5t-98 -43t-70 -75t-26.5 -110.5q0 -20 8 -34t31 -14h12l248 3q49 3 49 45v16q0 20 18.5 36.5t49.5 16.5h20.5t40.5 -0.5t51.5 -1t51.5 -1t42 -0.5t23 -1q7 0 17 -1.5t19.5 -7t16 -15t6.5 -25.5 q0 -17 -6.5 -29.5t-15.5 -20.5t-19.5 -12.5t-19.5 -5.5l-356 -53q-124 -17 -182 -63.5t-58 -132.5q0 -46 5 -83t19.5 -63.5t40 -40.5t66.5 -14l580 2q82 0 130.5 5.5t76 28t40 68.5t21.5 127z" />
<glyph unicode="&#xb3;" horiz-adv-x="1139" d="M1098 1186q0 43 -17 76t-46 57.5t-66 41t-76.5 26.5t-79 14t-72.5 4l-286 -2q-79 -1 -146.5 -20t-117.5 -51t-78.5 -75t-30.5 -94q0 -2 -1 -4t1 -2q0 -23 12 -38t37 -15l260 4q20 1 32 7.5t18 15t8 17.5t2 13q1 14 9.5 24.5t22.5 17.5t31 10.5t35 3.5l143 -3 q23 0 42.5 -12t19.5 -37q0 -20 -16 -35t-50 -18l-170 -14q-12 -1 -23.5 -2.5t-20 -6t-13 -13t-2.5 -23.5l8 -70q2 -16 8 -25t16.5 -13t24.5 -5t31 -2l121 -6q27 -1 42 -7t23 -14t10 -18t2 -19t-2 -17.5t-8 -15t-18 -10.5t-33 -4l-178 -4q-26 0 -43 11t-19 28l-2 17 q-3 26 -17 40.5t-42 16.5l-231 2h-2q-17 0 -27.5 -5t-16.5 -14t-7.5 -21t-0.5 -26l4 -63q3 -41 29 -75.5t69.5 -59.5t102 -39t125.5 -14l340 -3q48 0 105.5 10t107 34.5t82.5 65t33 101.5q0 41 -11.5 71t-32 52t-48.5 37t-60 25q29 11 57 26t49.5 35.5t34.5 47.5t13 63z" />
<glyph unicode="&#xb4;" horiz-adv-x="2056" d="M1348 1520q0 -11 -7 -19q-3 -4 -27 -33t-59 -70t-75.5 -88.5t-75.5 -89t-60 -71t-30 -35.5q-14 -17 -39.5 -27t-48.5 -10h-4q-3 0 -30.5 0.5t-59 0.5t-59 0.5t-30.5 0.5q-15 2 -24.5 12.5t-9.5 24.5q0 9 6 19q5 8 26 36.5t50 68.5t62.5 84.5t62 84t49 68t24.5 34.5 q14 20 36.5 29.5t41.5 11.5q2 0 19.5 0.5t42 0.5t53 1t54.5 1t45.5 0.5t25.5 0.5h2q20 0 29.5 -11t9.5 -25z" />
<glyph unicode="&#xb5;" />
<glyph unicode="&#xb6;" horiz-adv-x="1686" d="M1624 98q0 3 -1 38.5t-2 95t-2 138t-2.5 166.5t-2.5 181t-2.5 181.5t-2.5 167.5t-2 139t-2 97t-1 41q-4 35 -20.5 47.5t-47.5 12.5q-5 0 -53.5 -1.5t-125 -4t-173 -5.5t-198.5 -6.5t-201.5 -7.5t-182 -7t-140 -6t-75.5 -5q-68 -6 -120 -27.5t-90.5 -52t-64.5 -67 t-42 -74.5t-22.5 -74t-6.5 -64q1 -107 36.5 -189t98.5 -137.5t150 -84t190 -27.5h358q0 -93 1 -177.5t1.5 -150t1.5 -105.5t1 -44q5 -25 15.5 -38.5t41.5 -18.5q5 -1 24.5 -2.5t41.5 -3t41.5 -3t23.5 -2.5h4q31 0 46.5 14.5t15.5 39.5l20 493h166q-1 -29 -3.5 -72t-4.5 -91 t-4.5 -96.5t-4.5 -89.5t-3 -70t-1 -37v-3q2 -40 19 -55t45 -20q8 -1 32 -5t52 -8t53 -7t35 -3q4 -2 10 -2q45 0 62.5 23t17.5 69zM1362 1155l-16 -352h-185l15 350zM872 803h-108q-71 11 -106 56.5t-37 123.5q0 39 13 69.5t36 51.5t55 32.5t70 12.5h75z" />
<glyph unicode="&#xb7;" horiz-adv-x="649" d="M567 662q0 43 -1 85.5t-3 86.5q-2 34 -26 54.5t-58 20.5l-311 -2q-15 0 -30.5 -5t-28 -14t-20 -22t-7.5 -30v-168q0 -21 3 -39t12 -31.5t24 -21.5t39 -9l311 -2q46 -2 71 24t25 73z" />
<glyph unicode="&#xb8;" horiz-adv-x="2056" d="M1452 -342q0 55 -17 95t-45.5 68t-66 46.5t-78.5 31.5t-83.5 22t-80.5 18q5 27 14 67.5t17 75.5h-215q-11 -21 -26.5 -50t-29.5 -60.5t-24 -61.5t-10 -53q0 -47 35.5 -75t115.5 -28q19 0 50.5 -1.5t62 -8t54 -20.5t26.5 -39q4 -28 -20 -44t-57.5 -24.5t-67.5 -11 t-50 -2.5q-36 0 -65.5 1t-57.5 3.5t-57.5 6.5t-64.5 11q-4 2 -15 2t-24.5 -4t-26 -14t-23 -27.5t-16.5 -44.5q-2 -8 -2 -14v-12q0 -24 7.5 -40.5t20 -27t28.5 -17t32 -10.5q37 -8 66 -12.5t60 -7t68 -3.5t91 -1q36 0 85.5 6t102 19t104 34t92.5 50.5t66 68.5t25 88z" />
<glyph unicode="&#xb9;" horiz-adv-x="498" d="M416 1325q0 29 -18 43t-46 14l-219 -4q-5 0 -13.5 -1.5t-17 -7.5t-14.5 -17.5t-6 -30.5v-37v-88.5t0.5 -119.5t1 -130t1 -120t1.5 -89.5t2 -38.5q3 -46 49 -55q52 -3 93 -7q18 -1 35 -2.5t31.5 -2.5t24 -1.5t11.5 -0.5q25 0 40.5 14t18.5 39q0 1 1 27t3 69t4 97.5 t4.5 112.5t4.5 115t4 103.5t3 78.5t1 40z" />
<glyph unicode="&#xba;" horiz-adv-x="1137" d="M1075 932v231q0 48 -20.5 89.5t-55 73t-79.5 50t-95 19.5l-458 6q-48 0 -97.5 -15.5t-90 -44.5t-66.5 -70.5t-27 -92.5l-4 -234q-1 -41 20.5 -78.5t55 -65.5t76 -45t83.5 -18l463 -8q47 -1 99 9t95.5 34.5t72 64t28.5 95.5zM1071 414q0 8 -0.5 35.5t-1.5 58t-1.5 55.5 t-0.5 29q0 15 -9 22t-22 7h-45h-85t-115 -0.5t-132.5 -1t-137.5 -1t-129.5 -1t-109 -1.5t-76 -1.5t-30.5 -0.5q-15 -2 -22.5 -8t-10.5 -24q-1 -3 -3.5 -25t-5.5 -47.5t-5 -47.5t-2 -24v-4q0 -15 8.5 -25t22.5 -10q1 0 39.5 -1.5t100 -4t140.5 -5t161 -5t160.5 -5.5t140 -5 t99.5 -3t39 -1q16 3 23.5 11.5t9.5 31.5v2zM762 954q0 -25 -22 -42t-48 -17l-229 4q-23 0 -38 15.5t-15 39.5v220q0 13 6.5 23t16 16.5t20 10t18.5 3.5l231 2q28 0 42 -20t14 -40z" />
<glyph unicode="&#xbb;" horiz-adv-x="1163" d="M1122 449q0 -28 -9.5 -49t-31.5 -35q-7 -5 -37.5 -28t-72.5 -54.5t-90.5 -67.5t-91.5 -67.5t-74.5 -54t-40.5 -27.5q-8 -7 -19 -7q-14 0 -25.5 10.5t-13.5 28.5v16.5t-0.5 35.5t-0.5 44.5t-0.5 44.5t-0.5 35.5v16.5v4q0 25 10.5 52t28.5 42q5 5 27.5 24t55.5 47.5t73 63 t80 68.5q-40 35 -80 69t-73 62t-55.5 47t-27.5 23q-18 15 -28.5 43t-10.5 51v6v16t0.5 34.5t0.5 44t0.5 44.5t0.5 36v17q2 17 13.5 27t25.5 10q5 0 9.5 -1t9.5 -3q7 -4 26.5 -18.5t48 -35t62.5 -46t69 -51.5t69 -51t61.5 -45.5t46.5 -34t24 -17.5q22 -15 31.5 -39.5 t9.5 -46.5v-284v0zM590 449q0 -28 -9.5 -49t-31.5 -35q-7 -5 -37.5 -28t-73 -54.5t-91 -67.5t-91.5 -67.5t-74.5 -54t-40.5 -27.5q-8 -7 -18 -7q-14 0 -25.5 10.5t-13.5 28.5v16.5t-0.5 35.5t-0.5 44.5t-0.5 44.5t-0.5 35.5v16.5v4q0 25 10 52t29 42q5 5 27 24l55 47.5 t73 63t80 68.5q-40 35 -80 69t-73 62t-55 47t-27 23q-19 15 -29 43t-10 51v6v16t0.5 34.5t0.5 44t0.5 44.5t0.5 36v17q2 17 13.5 27t25.5 10q5 0 9 -1t9 -3q9 -6 40.5 -28.5t74.5 -54.5t91.5 -68t91 -67t73 -53.5t37.5 -27.5q22 -15 31.5 -39.5t9.5 -46.5v-284v0z" />
<glyph unicode="&#xbc;" horiz-adv-x="1855" d="M1774 166v34.5t-0.5 71t-1 94.5t-1.5 105q-2 125 -4 281q0 27 -15.5 43t-41.5 16l-211 2q-26 0 -41.5 -16.5t-15.5 -42.5v-279l-271 8q17 27 41.5 64t47.5 71t40 59.5t19 29.5q6 9 8 17.5t2 16.5q0 28 -19.5 40t-45.5 12h-217q-25 0 -43 -13.5t-29 -36.5l-39 -71 q-38 -73 -64.5 -123t-43 -83.5t-25.5 -53t-13 -30t-4.5 -14.5t-1.5 -8q0 -31 18.5 -48t49.5 -19l569 -2l6 -141q0 -10 3 -20.5t10 -19.5t19.5 -15t31.5 -7l225 -4h2q23 0 39.5 18t16.5 41v23zM1300 1374q0 26 -21 36.5t-44 10.5l-203 -6q-57 -3 -100 -61q-3 -3 -24.5 -35 t-57 -84t-82.5 -121.5t-100.5 -148.5t-111 -163.5t-113.5 -168t-109 -161.5t-97.5 -143.5t-77.5 -115t-50 -74.5q-11 -19 -11 -37q0 -26 17.5 -39.5t42.5 -13.5h139q41 0 61 10.5t39 38.5q8 12 38 53.5t75 104t102 141.5t119.5 166t128 177t126.5 175t115 160t95 131.5 t65 89.5t25 35q3 6 8.5 17.5t5.5 25.5zM416 1325q0 29 -18 43t-46 14l-219 -4q-5 0 -13.5 -1.5t-17 -7.5t-14.5 -17.5t-6 -30.5v-37v-88.5t0.5 -119.5t1 -130t1 -120t1.5 -89.5t2 -38.5q3 -46 49 -55q52 -3 93 -7q18 -1 35 -2.5t31.5 -2.5t24 -1.5t11.5 -0.5q25 0 40.5 14 t18.5 39q0 1 1 27t3 69t4 97.5t4.5 112.5t4.5 115t4 103.5t3 78.5t1 40z" />
<glyph unicode="&#xbd;" horiz-adv-x="1972" d="M1931 311q0 20 -9 33.5t-32 13.5h-16l-203 -2q-45 0 -51 -49q0 -18 -18 -34.5t-50 -16.5l-229 4q-7 0 -17 2t-18 7t-14 14t-6 24q0 7 2 17t9 20t21.5 17.5t38.5 9.5q48 6 112 15t124 17q70 10 143 19q40 5 77.5 20t66 39t46 55.5t17.5 69.5q0 40 -15.5 72t-42 57 t-60.5 42.5t-70.5 29t-74 17t-69.5 5.5h-20l-363 -4q-55 -1 -109.5 -14.5t-97.5 -43t-69.5 -75t-26.5 -110.5q0 -20 7 -35t30 -15h14l248 5q47 0 47 45v16q0 20 19.5 36.5t50.5 16.5h20.5t40.5 -0.5t51.5 -1t51.5 -1t42 -1t23 -0.5q6 0 16.5 -2t20 -7t16.5 -15t7 -25 q0 -17 -6.5 -29.5t-16.5 -20.5t-20.5 -12.5t-18.5 -5.5l-358 -53q-123 -18 -181.5 -64.5t-58.5 -133.5q0 -45 5.5 -82t20 -63t40.5 -40t67 -14l580 2q82 0 130.5 5.5t75.5 28t39 68.5t21 127zM1321 1374q0 13 -6 22t-15.5 14.5t-21 8t-23.5 2.5l-202 -6q-58 -3 -101 -61 q-2 -3 -23.5 -35t-57 -84t-82.5 -121.5t-100.5 -148.5t-111 -163.5t-114 -168t-109 -161.5t-97 -143.5t-78 -115t-50.5 -74.5q-10 -20 -10 -37q0 -26 17 -39.5t42 -13.5h139q21 0 35.5 2.5t26 8t20.5 15t19 23.5q8 12 38 53.5t75 104t102 141.5t119.5 166t127.5 177t126 175 t115.5 160t95 131.5t65 89.5t25.5 35q3 6 8.5 17.5t5.5 25.5zM436 1325q0 29 -17.5 43t-45.5 14l-219 -4q-6 0 -14.5 -1.5t-17 -7.5t-14.5 -17.5t-6 -30.5v-37v-88.5t0.5 -119.5t1 -130t1.5 -120t2 -89.5t2 -38.5q3 -46 49 -55q52 -3 93 -7q18 -1 35 -2.5t31 -2.5t23.5 -1.5 t11.5 -0.5q25 0 41 14t19 39q0 1 1 27t2.5 69t4 97.5t4.5 112.5t4.5 115t4 103.5t2.5 78.5t1 40z" />
<glyph unicode="&#xbe;" horiz-adv-x="2456" d="M2396 166q0 6 -0.5 34.5t-1 71t-1 94.5t-1.5 105q-2 125 -4 281q0 27 -15 43t-42 16l-211 2q-26 0 -41 -16.5t-15 -42.5v-279l-272 8q18 27 42 64t46.5 71t39.5 59.5t19 29.5q7 9 9 17.5t2 16.5q0 28 -19.5 40t-44.5 12h-219q-25 0 -42 -13.5t-30 -36.5l-39 -71 q-38 -73 -63.5 -123t-42 -83.5t-25.5 -53t-13 -30t-4.5 -14.5t-0.5 -8q0 -31 17.5 -48t48.5 -19l569 -2l6 -141q0 -10 2.5 -20.5t10 -19.5t20.5 -15t33 -7l225 -4q23 0 40 18t17 41v23zM1921 1374q0 26 -21 36.5t-42 10.5l-205 -6q-58 -3 -101 -61q-2 -3 -23.5 -35t-57 -84 t-82.5 -121.5t-100.5 -148.5t-110.5 -163.5t-113.5 -168t-109.5 -161.5t-97 -143.5t-77 -115t-50 -74.5q-12 -18 -12 -37q0 -26 17 -39.5t42 -13.5h140q21 0 35 2.5t25.5 8t20.5 15t19 23.5q9 12 39 53.5t75 104t102 141.5t120 166t128 177t126 175t115 160t94.5 131.5 t64.5 89.5t25 35q3 6 8.5 17.5t5.5 25.5zM1077 1186q0 43 -17 76t-45.5 57.5t-65.5 41t-76.5 26.5t-79 14t-72.5 4l-287 -2q-79 -1 -146.5 -20t-117 -51t-78.5 -75t-31 -94q0 -2 -1 -4t1 -2q0 -23 12.5 -38t37.5 -15l260 4q20 1 31.5 7.5t17.5 15t8 17.5t2 13q1 14 9.5 24.5 t22.5 17.5t31 10.5t35 3.5l144 -3q23 0 42 -12t19 -37q0 -20 -15.5 -35t-49.5 -18l-170 -14q-12 -1 -23.5 -2.5t-20.5 -6t-13.5 -13t-2.5 -23.5l8 -70q2 -16 8.5 -25t16.5 -13t24 -5t31 -2l121 -6q27 -1 42.5 -7t23.5 -14t10 -18t2 -19t-2 -17.5t-8 -15t-18 -10.5t-33 -4 l-179 -4q-26 0 -42.5 11t-18.5 28l-2 17q-3 26 -17.5 40.5t-42.5 16.5l-231 2h-2q-34 0 -43.5 -19t-7.5 -47l4 -63q2 -41 28 -75.5t69.5 -59.5t102 -39t126.5 -14l340 -3q48 0 105.5 10t106.5 34.5t82 65t33 101.5q0 41 -11.5 71t-31.5 52t-48 37t-60 25q29 11 56.5 26 t49 35.5t34.5 47.5t13 63z" />
<glyph unicode="&#xbf;" horiz-adv-x="1735" d="M20 387q0 65 25 114t63 84t83.5 57.5t87.5 33.5q24 7 60 15.5t77.5 18t86 19.5t86 19.5t77.5 17.5t61 14q38 9 63 16t39 17t19.5 26t5.5 44q0 32 9 50.5t21.5 28t27 12.5t26.5 3l350 8q29 1 46 -5t26 -17t11.5 -26.5t2.5 -33.5q0 -50 -19.5 -87.5t-53 -65.5t-77.5 -48.5 t-92.5 -36.5t-98 -28t-95.5 -23q-69 -16 -113 -27.5t-73.5 -20.5t-50.5 -15.5t-44 -13.5q-23 -8 -46.5 -17t-43 -24.5t-31.5 -39t-12 -59.5q0 -35 13.5 -58t33 -36.5t42 -19.5t40.5 -7q10 -1 38 -1.5t65.5 -1t79.5 -1t80 -1t68 -1t42 -0.5h6q32 1 59.5 11.5t47 28t30.5 39.5 t11 46l2 72q2 31 17 44t44 13l469 8h2q22 0 31.5 -10.5t9.5 -44.5v-6v-26.5t-0.5 -35.5t-2 -38.5t-3.5 -36.5q-5 -54 -41 -112.5t-101 -107.5t-158.5 -81.5t-213.5 -34.5q-57 -1 -124 -2t-136 -2t-135 -1.5t-121 -0.5h-72.5t-54.5 2q-57 4 -121.5 14.5t-128 30t-122 49.5 t-103 72.5t-71 98.5t-26.5 128zM870 1354q0 28 25.5 50.5t69.5 22.5h2l311 -2q34 -2 56 -21.5t22 -51.5l-2 -197q0 -16 -7.5 -29t-20 -22t-28 -14t-30.5 -5l-314 -2q-35 0 -57.5 23.5t-22.5 52.5l-4 195v0z" />
<glyph unicode="&#xc0;" horiz-adv-x="1772" d="M1751 29q0 14 -6 32q-1 3 -21 56t-52 137.5t-72 191.5t-82 218.5t-82.5 218.5t-72 191l-51 136t-20.5 54q-9 23 -20.5 32t-42.5 9l-1069 -5q-23 0 -36 -11t-18 -29q-1 -5 -3 -16.5t-4.5 -25t-4.5 -26.5t-2 -21q0 -24 10 -35t29 -14l236 -26q34 -5 53.5 -24.5t19.5 -51.5 q0 -12 -2 -25.5t-8 -27.5q-1 -3 -18.5 -39t-45 -93t-63 -129.5t-73 -147.5t-73 -147t-63 -128t-45 -91t-18.5 -36q-5 -11 -8 -20t-3 -17q0 -20 14 -32.5t40 -14.5l346 -17h4q12 0 22.5 6.5t18.5 20.5q1 2 7.5 15.5t16.5 34t22 46t25 52.5q30 62 66 141l522 6l142 -326 q11 -25 31.5 -40t48.5 -15q3 0 27.5 -1t61.5 -2t80 -3t82 -3t68.5 -2t38.5 -1h2q23 0 34 12.5t11 32.5zM1059 600l-373 16l209 406zM1001 1464q0 -14 -10 -24.5t-25 -12.5q-3 0 -30 -0.5t-59 -0.5t-59 -0.5t-30 -0.5h-5q-23 0 -48.5 10t-39.5 27q-5 6 -30 35.5t-60 71 t-75.5 89t-75.5 88.5t-59 70t-27 33q-6 9 -6 19q0 14 9.5 25t29.5 11h2q6 0 25.5 -0.5t45 -0.5t54 -1t53 -1t42 -0.5t19.5 -0.5q19 -2 41.5 -11.5t36.5 -29.5q4 -6 24.5 -34.5t49 -68t62 -84t62.5 -84.5t50 -68.5t26 -36.5q7 -10 7 -19z" />
<glyph unicode="&#xc1;" horiz-adv-x="1772" d="M1751 29q0 14 -6 32q-1 3 -21 56t-52 137.5t-72 191.5t-82 218.5t-82.5 218.5t-72 191l-51 136t-20.5 54q-9 23 -20.5 32t-42.5 9l-1069 -5q-23 0 -36 -11t-18 -29q-1 -5 -3 -16.5t-4.5 -25t-4.5 -26.5t-2 -21q0 -24 10 -35t29 -14l236 -26q34 -5 53.5 -24.5t19.5 -51.5 q0 -12 -2 -25.5t-8 -27.5q-1 -3 -18.5 -39t-45 -93t-63 -129.5t-73 -147.5t-73 -147t-63 -128t-45 -91t-18.5 -36q-5 -11 -8 -20t-3 -17q0 -20 14 -32.5t40 -14.5l346 -17h4q12 0 22.5 6.5t18.5 20.5q1 2 7.5 15.5t16.5 34t22 46t25 52.5q30 62 66 141l522 6l142 -326 q11 -25 31.5 -40t48.5 -15q3 0 27.5 -1t61.5 -2t80 -3t82 -3t68.5 -2t38.5 -1h2q23 0 34 12.5t11 32.5zM1059 600l-373 16l209 406zM1226 1889q0 -11 -7 -19q-3 -4 -27 -33t-59 -70t-75.5 -88.5t-75.5 -89t-60 -71t-30 -35.5q-14 -17 -39.5 -27t-48.5 -10h-4q-3 0 -30.5 0.5 t-59 0.5t-59 0.5t-30.5 0.5q-15 2 -24.5 12.5t-9.5 24.5q0 9 6 19q5 8 26 36.5t50 68.5t62.5 84.5t62 84t49 68t24.5 34.5q14 20 36.5 29.5t41.5 11.5q2 0 19.5 0.5t42 0.5t53 1t54.5 1t45.5 0.5t25.5 0.5h2q20 0 29.5 -11t9.5 -25z" />
<glyph unicode="&#xc2;" horiz-adv-x="1772" d="M1751 29q0 14 -6 32q-1 3 -21 56t-52 137.5t-72 191.5t-82 218.5t-82.5 218.5t-72 191l-51 136t-20.5 54q-9 23 -20.5 32t-42.5 9l-1069 -5q-23 0 -36 -11t-18 -29q-1 -5 -3 -16.5t-4.5 -25t-4.5 -26.5t-2 -21q0 -24 10 -35t29 -14l236 -26q34 -5 53.5 -24.5t19.5 -51.5 q0 -12 -2 -25.5t-8 -27.5q-1 -3 -18.5 -39t-45 -93t-63 -129.5t-73 -147.5t-73 -147t-63 -128t-45 -91t-18.5 -36q-5 -11 -8 -20t-3 -17q0 -20 14 -32.5t40 -14.5l346 -17h4q12 0 22.5 6.5t18.5 20.5q1 2 7.5 15.5t16.5 34t22 46t25 52.5q30 62 66 141l522 6l142 -326 q11 -25 31.5 -40t48.5 -15q3 0 27.5 -1t61.5 -2t80 -3t82 -3t68.5 -2t38.5 -1h2q23 0 34 12.5t11 32.5zM1059 600l-373 16l209 406zM1341 1509q0 -12 -9 -22.5t-24 -10.5q-3 -1 -28 -1.5t-55 -1t-55 -1t-28 -0.5q-20 0 -45 8.5t-39 26.5q-4 4 -20 23l-40 47.5t-53.5 63.5 t-58.5 69q-29 -34 -58.5 -69t-53.5 -63.5t-40.5 -47.5t-19.5 -23q-14 -18 -39 -26.5t-47 -8.5q-2 0 -27 0.5t-54.5 1t-55 1t-29.5 1.5q-14 0 -22.5 10.5t-8.5 22.5q0 7 5 15q5 7 24.5 34.5t46.5 64.5t57.5 79t57.5 78.5t46.5 63t23.5 32.5q12 18 33 27.5t38 9.5h244 q17 0 37.5 -7t36.5 -30q4 -6 23 -32.5t46 -63t58 -78.5t58 -79t46.5 -64t24.5 -35q4 -10 4 -15z" />
<glyph unicode="&#xc3;" horiz-adv-x="1772" d="M1751 29q0 14 -6 32q-1 3 -21 56t-52 137.5t-72 191.5t-82 218.5t-82.5 218.5t-72 191l-51 136t-20.5 54q-9 23 -20.5 32t-42.5 9l-1069 -5q-23 0 -36 -11t-18 -29q-1 -5 -3 -16.5t-4.5 -25t-4.5 -26.5t-2 -21q0 -24 10 -35t29 -14l236 -26q34 -5 53.5 -24.5t19.5 -51.5 q0 -12 -2 -25.5t-8 -27.5q-1 -3 -18.5 -39t-45 -93t-63 -129.5t-73 -147.5t-73 -147t-63 -128t-45 -91t-18.5 -36q-5 -11 -8 -20t-3 -17q0 -20 14 -32.5t40 -14.5l346 -17h4q12 0 22.5 6.5t18.5 20.5q1 2 7.5 15.5t16.5 34t22 46t25 52.5q30 62 66 141l522 6l142 -326 q11 -25 31.5 -40t48.5 -15q3 0 27.5 -1t61.5 -2t80 -3t82 -3t68.5 -2t38.5 -1h2q23 0 34 12.5t11 32.5zM1059 600l-373 16l209 406zM1326 1773q0 11 -7 16.5t-13 8.5l-45 18q-14 7 -19 7q-14 0 -24 -19l-23 -49q-15 -35 -44 -55.5t-60 -20.5q-15 0 -49.5 14.5t-79 35.5 t-96 46.5t-101.5 46.5t-95 35.5t-77 14.5q-43 0 -78 -15t-64 -40t-52.5 -57.5t-43 -68t-36 -71.5t-31.5 -68q-6 -12 -6 -22q0 -11 7 -16.5t13 -8.5l47 -18q11 -6 19 -6q13 0 22 18l23 49q15 35 44 55.5t60 20.5q15 0 49 -14t79 -35.5t97.5 -46t103 -46t95.5 -35.5t76 -14 q64 0 111 31.5t82.5 78.5t62 103t47.5 105q6 15 6 22z" />
<glyph unicode="&#xc4;" horiz-adv-x="1772" d="M1751 29q0 14 -6 32q-1 3 -21 56t-52 137.5t-72 191.5t-82 218.5t-82.5 218.5t-72 191l-51 136t-20.5 54q-9 23 -20.5 32t-42.5 9l-1069 -5q-23 0 -36 -11t-18 -29q-1 -5 -3 -16.5t-4.5 -25t-4.5 -26.5t-2 -21q0 -24 10 -35t29 -14l236 -26q34 -5 53.5 -24.5t19.5 -51.5 q0 -12 -2 -25.5t-8 -27.5q-1 -3 -18.5 -39t-45 -93t-63 -129.5t-73 -147.5t-73 -147t-63 -128t-45 -91t-18.5 -36q-5 -11 -8 -20t-3 -17q0 -20 14 -32.5t40 -14.5l346 -17h4q12 0 22.5 6.5t18.5 20.5q1 2 7.5 15.5t16.5 34t22 46t25 52.5q30 62 66 141l522 6l142 -326 q11 -25 31.5 -40t48.5 -15q3 0 27.5 -1t61.5 -2t80 -3t82 -3t68.5 -2t38.5 -1h2q23 0 34 12.5t11 32.5zM1059 600l-373 16l209 406zM1334 1512l-4 194q-1 15 -7 29.5t-16.5 25t-25.5 16.5t-33 5h-231q-16 -1 -31 -6t-27 -14.5t-19.5 -23t-8.5 -30.5l-2 -194 q0 -31 22.5 -51.5t56.5 -20.5l230 -4h2q43 0 68.5 23t25.5 51zM802 1512l-4 194q-1 15 -7 29.5t-16.5 25t-25.5 16.5t-33 5h-232q-16 -1 -31 -6t-27 -14.5t-19.5 -23t-8.5 -30.5l-2 -194q0 -31 23 -51.5t57 -20.5l229 -4h2q44 0 69.5 23t25.5 51z" />
<glyph unicode="&#xc5;" horiz-adv-x="1772" d="M1751 29q0 14 -6 32q-1 3 -21 56t-52 137.5t-72 191.5t-82 218.5t-82.5 218.5t-72 191l-51 136t-20.5 54q-9 23 -20.5 32t-42.5 9h-72q6 18 6 38v168q0 35 -14.5 65t-39 52.5t-57 35.5t-67.5 13l-332 4q-43 0 -79.5 -14t-63.5 -36.5t-42 -51t-15 -57.5l-2 -168 q0 -14 2.5 -26.5t7.5 -24.5l-301 -3q-23 0 -36 -11t-18 -29q-1 -5 -3 -16.5t-4.5 -25t-4.5 -26.5t-2 -21q0 -24 10 -35t29 -14l236 -26q34 -5 53.5 -24.5t19.5 -51.5q0 -12 -2 -25.5t-8 -27.5q-1 -3 -18.5 -39t-45 -93t-63 -129.5t-73 -147.5t-73 -147t-63 -128t-45 -91 t-18.5 -36q-5 -11 -8 -20t-3 -17q0 -20 14 -32.5t40 -14.5l346 -17h4q12 0 22.5 6.5t18.5 20.5q1 2 7.5 15.5t16.5 34t22 46t25 52.5q30 62 66 141l522 6l142 -326q11 -25 31.5 -40t48.5 -15q3 0 27.5 -1t61.5 -2t80 -3t82 -3t68.5 -2t38.5 -1h2q23 0 34 12.5t11 32.5z M938 1360q0 -16 -13.5 -28.5t-35.5 -12.5l-166 2q-17 0 -28 11t-11 30l2 158q0 20 14.5 28t28.5 8l166 3q20 0 29.5 -14t9.5 -29zM1059 600l-373 16l209 406z" />
<glyph unicode="&#xc6;" horiz-adv-x="2859" d="M2859 225v4q0 6 -0.5 23t-0.5 36t-0.5 36t-0.5 22q0 28 -14 42.5t-56 14.5l-1026 21l4 143q196 3 352 6q66 1 130.5 2t115.5 2t83.5 2t35.5 1q25 3 42.5 17t19.5 46v2q0 9 -1.5 30t-4 44t-5.5 43t-6 29q-2 8 -6 17t-12 16.5t-21 13.5t-34 8q-2 0 -37 1.5t-90 4t-125 5.5 t-142 6q-170 7 -385 16l8 141q233 1 424 3q81 1 161.5 1.5t147.5 1t115 0.5h64h6h4q26 0 44 17t20 44v11q0 12 -0.5 33t-1 42.5t-1 38.5t-0.5 21q-6 50 -69 53q-2 0 -66.5 3.5t-174 9t-254 13t-307.5 16t-334.5 17t-334 16.5t-307.5 15.5t-254 13t-173 8.5t-66 3 q-50 -3 -56 -47q-1 -5 -2.5 -16.5t-3 -25.5t-2 -27.5t-0.5 -22.5v-5q2 -26 14.5 -38.5t32.5 -14.5q4 0 28 -2.5t57.5 -5.5t71.5 -6t71 -6t56.5 -5t27.5 -3q31 -4 48 -20t17 -42q0 -17 -6.5 -37t-22.5 -45q-1 -2 -20 -27.5t-50.5 -68.5t-73.5 -99.5t-88.5 -119.5 t-95.5 -129.5t-96 -129.5t-88.5 -119t-73 -98.5t-50 -67.5t-19.5 -26q-22 -31 -22 -53q0 -17 12 -27t37 -12l374 -16h3q14 0 27 6.5t26 22.5q1 2 11.5 16.5t26.5 37t36.5 50.5t41.5 57q49 69 111 154l512 4v-143q0 -44 18.5 -67t69.5 -23q3 0 47 0.5t116.5 1t167.5 1t202 1 t219 1.5t218.5 1.5t201.5 1t166.5 1t114 1t44.5 0.5q40 2 58 17.5t18 43.5zM1200 639l-358 14l358 455v-469z" />
<glyph unicode="&#xc7;" horiz-adv-x="1726" d="M1665 465v8q0 19 -14.5 37t-46.5 20q-11 0 -41 0.5t-68 1.5t-80 2.5t-78 2.5t-61 1.5t-29 0.5q-12 0 -29 -13t-20 -39q-2 -21 -3.5 -50t-4.5 -46t-11 -36t-23.5 -35.5t-38.5 -27.5t-56 -11l-334 2q-33 0 -61 13t-48 35t-30.5 51t-9.5 60l4 486q1 38 15 66t34.5 47.5 t44 30t41.5 11.5q10 1 35.5 1.5t59 1.5t70.5 2t70.5 1.5t59 0.5h35.5h2q33 0 59 -11.5t44.5 -30.5t28 -43.5t9.5 -50.5v-45q0 -31 13 -45t44 -16l365 -6h2q25 0 34.5 13t10.5 54v62v51q-3 58 -35 121.5t-85 117.5t-123 89t-150 36l-738 5q-39 1 -83 -11t-88 -35.5 t-85.5 -56.5t-75 -75.5t-56.5 -93t-31 -107.5q-2 -10 -6 -48.5t-9.5 -93.5t-11.5 -119.5t-11 -126.5t-8 -115.5t-2 -86.5v-8q1 -38 13 -82.5t35 -88.5t56 -85.5t75 -74t92.5 -52t107.5 -21.5l254 -6q-20 -38 -35.5 -78t-15.5 -69q0 -47 35.5 -75t116.5 -28q18 0 49.5 -1.5 t62 -8t54 -20.5t26.5 -39q4 -28 -20 -44t-57 -24.5t-67 -11t-50 -2.5q-36 0 -66 1t-58 3.5t-57.5 6.5t-64.5 11q-4 2 -15 2t-24.5 -4t-26 -14t-23 -27.5t-16.5 -44.5q-2 -8 -2 -14v-12q0 -24 7.5 -40.5t20 -27t28.5 -17t32 -10.5q37 -8 66 -12.5t60 -7t68 -3.5t91 -1 q36 0 85.5 6t102 19t104 34t92.5 50.5t66 68.5t25 88q0 55 -17 95t-45.5 68t-66 46.5t-78.5 31.5t-83 22t-80 18q2 12 5.5 28t6.5 33l297 -8q68 -2 139 26.5t132 76.5t104 109.5t55 125.5q2 13 4 31.5t3 38t1.5 37t-0.5 28.5z" />
<glyph unicode="&#xc8;" horiz-adv-x="1696" d="M2105 1217l-6 165q-2 29 -16 42.5t-49 13.5l-1874 59h-4q-60 0 -60 -63q-3 -342 -7 -620q-1 -79 -2 -157.5t-1.5 -151t-1.5 -137t-1.5 -114.5t-0.5 -83v-44v-4q1 -20 3.5 -34.5t11 -23.5t25 -13.5t44.5 -4.5l1403 -2q29 0 50 10.5t23 42.5l7 172q0 29 -13 47t-51 21 l-876 53l-4 174l542 35q25 2 41.5 16.5t16.5 38.5l-7 131q-2 22 -16 32.5t-45 12.5l-604 21l-2 315l1419 -4q58 0 55 54zM1288 1669q0 -14 -10 -24.5t-25 -12.5q-3 0 -30 -0.5t-59 -0.5t-59 -0.5t-30 -0.5h-5q-23 0 -48.5 10t-39.5 27q-5 6 -30 35.5t-60 71t-75.5 89 t-75.5 88.5t-59 70t-27 33q-6 9 -6 19q0 14 9.5 25t29.5 11h2q6 0 25.5 -0.5t45 -0.5t54 -1t53 -1t42 -0.5t19.5 -0.5q19 -2 41.5 -11.5t36.5 -29.5q4 -6 24.5 -34.5t49 -68t62 -84t62.5 -84.5t50 -68.5t26 -36.5q7 -10 7 -19z" />
<glyph unicode="&#xc9;" horiz-adv-x="1696" d="M2105 1217l-6 165q-2 29 -16 42.5t-49 13.5l-1874 59h-4q-60 0 -60 -63q-3 -342 -7 -620q-1 -79 -2 -157.5t-1.5 -151t-1.5 -137t-1.5 -114.5t-0.5 -83v-44v-4q1 -20 3.5 -34.5t11 -23.5t25 -13.5t44.5 -4.5l1403 -2q29 0 50 10.5t23 42.5l7 172q0 29 -13 47t-51 21 l-876 53l-4 174l542 35q25 2 41.5 16.5t16.5 38.5l-7 131q-2 22 -16 32.5t-45 12.5l-604 21l-2 315l1419 -4q58 0 55 54zM1512 2032q0 -11 -7 -19q-3 -4 -27 -33t-59 -70t-75.5 -88.5t-75.5 -89t-60 -71t-30 -35.5q-14 -17 -39.5 -27t-48.5 -10h-4q-3 0 -30.5 0.5t-59 0.5 t-59 0.5t-30.5 0.5q-15 2 -24.5 12.5t-9.5 24.5q0 9 6 19q5 8 26 36.5t50 68.5t62.5 84.5t62 84t49 68t24.5 34.5q14 20 36.5 29.5t41.5 11.5q2 0 19.5 0.5t42 0.5t53 1t54.5 1t45.5 0.5t25.5 0.5h2q20 0 29.5 -11t9.5 -25z" />
<glyph unicode="&#xca;" horiz-adv-x="1696" d="M2105 1217l-6 165q-2 29 -16 42.5t-49 13.5l-1874 59h-4q-60 0 -60 -63q-3 -342 -7 -620q-1 -79 -2 -157.5t-1.5 -151t-1.5 -137t-1.5 -114.5t-0.5 -83v-44v-4q1 -20 3.5 -34.5t11 -23.5t25 -13.5t44.5 -4.5l1403 -2q29 0 50 10.5t23 42.5l7 172q0 29 -13 47t-51 21 l-876 53l-4 174l542 35q25 2 41.5 16.5t16.5 38.5l-7 131q-2 22 -16 32.5t-45 12.5l-604 21l-2 315l1419 -4q58 0 55 54zM1544 1652q0 -12 -9 -22.5t-24 -10.5q-3 -1 -28 -1.5t-55 -1t-55 -1t-28 -0.5q-20 0 -45 8.5t-39 26.5q-4 4 -20 23l-40 47.5t-53.5 63.5t-58.5 69 q-29 -34 -58.5 -69t-53.5 -63.5t-40.5 -47.5t-19.5 -23q-14 -18 -39 -26.5t-47 -8.5q-2 0 -27 0.5t-54.5 1t-55 1t-29.5 1.5q-14 0 -22.5 10.5t-8.5 22.5q0 7 5 15q5 7 24.5 34.5t46.5 64.5t57.5 79t57.5 78.5t46.5 63t23.5 32.5q12 18 33 27.5t38 9.5h244q17 0 37.5 -7 t36.5 -30q4 -6 23 -32.5t46 -63t58 -78.5t58 -79t46.5 -64t24.5 -35q4 -10 4 -15z" />
<glyph unicode="&#xcb;" horiz-adv-x="1696" d="M2105 1217l-6 165q-2 29 -16 42.5t-49 13.5l-1874 59h-4q-60 0 -60 -63q-3 -342 -7 -620q-1 -79 -2 -157.5t-1.5 -151t-1.5 -137t-1.5 -114.5t-0.5 -83v-44v-4q1 -20 3.5 -34.5t11 -23.5t25 -13.5t44.5 -4.5l1403 -2q29 0 50 10.5t23 42.5l7 172q0 29 -13 47t-51 21 l-876 53l-4 174l542 35q25 2 41.5 16.5t16.5 38.5l-7 131q-2 22 -16 32.5t-45 12.5l-604 21l-2 315l1419 -4q58 0 55 54zM1558 1676l-4 194q-1 15 -7 29.5t-16.5 25t-25.5 16.5t-33 5h-231q-16 -1 -31 -6t-27 -14.5t-19.5 -23t-8.5 -30.5l-2 -194q0 -31 22.5 -51.5 t56.5 -20.5l230 -4h2q43 0 68.5 23t25.5 51zM1026 1676l-4 194q-1 15 -7 29.5t-16.5 25t-25.5 16.5t-33 5h-232q-16 -1 -31 -6t-27 -14.5t-19.5 -23t-8.5 -30.5l-2 -194q0 -31 23 -51.5t57 -20.5l229 -4h2q44 0 69.5 23t25.5 51z" />
<glyph unicode="&#xcc;" horiz-adv-x="657" d="M616 1251q-3 25 -17.5 40.5t-55.5 15.5h-2q-9 0 -42 -0.5t-77.5 -1t-94 -1t-92 -1.5t-72 -1.5t-32.5 -1.5q-28 0 -37.5 -16t-11.5 -41v-29q0 -34 0.5 -100t0.5 -152t1 -184.5t1.5 -196.5t1 -188.5t1.5 -161t1.5 -114.5t0.5 -47q5 -25 15.5 -39t41.5 -19q4 0 30.5 -2.5 t64.5 -5.5t81 -6t80.5 -5.5t63.5 -4.5t29 -2h6q60 0 63 53q0 2 1.5 36.5t4 92.5t5.5 135t7 163.5t7.5 178t7.5 178t7 163.5t5.5 135.5t4 93t1.5 36.5zM489 1505q0 -14 -10 -24.5t-25 -12.5q-3 0 -30 -0.5t-59 -0.5t-59 -0.5t-30 -0.5h-5q-23 0 -48.5 10t-39.5 27 q-5 6 -30 35.5t-60 71t-75.5 89t-75.5 88.5t-59 70t-27 33q-6 9 -6 19q0 14 9.5 25t29.5 11h2q6 0 25.5 -0.5t45 -0.5t54 -1t53 -1t42 -0.5t19.5 -0.5q19 -2 41.5 -11.5t36.5 -29.5q4 -6 24.5 -34.5t49 -68t62 -84t62.5 -84.5t50 -68.5t26 -36.5q7 -10 7 -19z" />
<glyph unicode="&#xcd;" horiz-adv-x="657" d="M616 1251q-3 25 -17.5 40.5t-55.5 15.5h-2q-9 0 -42 -0.5t-77.5 -1t-94 -1t-92 -1.5t-72 -1.5t-32.5 -1.5q-28 0 -37.5 -16t-11.5 -41v-29q0 -34 0.5 -100t0.5 -152t1 -184.5t1.5 -196.5t1 -188.5t1.5 -161t1.5 -114.5t0.5 -47q5 -25 15.5 -39t41.5 -19q4 0 30.5 -2.5 t64.5 -5.5t81 -6t80.5 -5.5t63.5 -4.5t29 -2h6q60 0 63 53q0 2 1.5 36.5t4 92.5t5.5 135t7 163.5t7.5 178t7.5 178t7 163.5t5.5 135.5t4 93t1.5 36.5zM857 1889q0 -11 -7 -19q-3 -4 -27 -33t-59 -70t-75.5 -88.5t-75.5 -89t-60 -71t-30 -35.5q-14 -17 -39.5 -27t-48.5 -10 h-4q-3 0 -30.5 0.5t-59 0.5t-59 0.5t-30.5 0.5q-15 2 -24.5 12.5t-9.5 24.5q0 9 6 19q5 8 26 36.5t50 68.5t62.5 84.5t62 84t49 68t24.5 34.5q14 20 36.5 29.5t41.5 11.5q2 0 19.5 0.5t42 0.5t53 1t54.5 1t45.5 0.5t25.5 0.5h2q20 0 29.5 -11t9.5 -25z" />
<glyph unicode="&#xce;" horiz-adv-x="657" d="M616 1251q-3 25 -17.5 40.5t-55.5 15.5h-2q-9 0 -42 -0.5t-77.5 -1t-94 -1t-92 -1.5t-72 -1.5t-32.5 -1.5q-28 0 -37.5 -16t-11.5 -41v-29q0 -34 0.5 -100t0.5 -152t1 -184.5t1.5 -196.5t1 -188.5t1.5 -161t1.5 -114.5t0.5 -47q5 -25 15.5 -39t41.5 -19q4 0 30.5 -2.5 t64.5 -5.5t81 -6t80.5 -5.5t63.5 -4.5t29 -2h6q60 0 63 53q0 2 1.5 36.5t4 92.5t5.5 135t7 163.5t7.5 178t7.5 178t7 163.5t5.5 135.5t4 93t1.5 36.5zM808 1530q0 -12 -9 -22.5t-24 -10.5q-3 -1 -28 -1.5t-55 -1t-55 -1t-28 -0.5q-20 0 -45 8.5t-39 26.5q-4 4 -20 23 l-40 47.5t-53.5 63.5t-58.5 69q-29 -34 -58.5 -69t-53.5 -63.5t-40.5 -47.5t-19.5 -23q-14 -18 -39 -26.5t-47 -8.5q-2 0 -27 0.5t-54.5 1t-55 1t-29.5 1.5q-14 0 -22.5 10.5t-8.5 22.5q0 7 5 15q5 7 24.5 34.5t46.5 64.5t57.5 79t57.5 78.5t46.5 63t23.5 32.5 q12 18 33 27.5t38 9.5h244q17 0 37.5 -7t36.5 -30q4 -6 23 -32.5t46 -63t58 -78.5t58 -79t46.5 -64t24.5 -35q4 -10 4 -15z" />
<glyph unicode="&#xcf;" horiz-adv-x="657" d="M616 1251q-3 25 -17.5 40.5t-55.5 15.5h-2q-9 0 -42 -0.5t-77.5 -1t-94 -1t-92 -1.5t-72 -1.5t-32.5 -1.5q-28 0 -37.5 -16t-11.5 -41v-29q0 -34 0.5 -100t0.5 -152t1 -184.5t1.5 -196.5t1 -188.5t1.5 -161t1.5 -114.5t0.5 -47q5 -25 15.5 -39t41.5 -19q4 0 30.5 -2.5 t64.5 -5.5t81 -6t80.5 -5.5t63.5 -4.5t29 -2h6q60 0 63 53q0 2 1.5 36.5t4 92.5t5.5 135t7 163.5t7.5 178t7.5 178t7 163.5t5.5 135.5t4 93t1.5 36.5zM802 1532l-4 194q-1 15 -7 29.5t-16.5 25t-25.5 16.5t-33 5h-231q-16 -1 -31 -6t-27 -14.5t-19.5 -23t-8.5 -30.5l-2 -194 q0 -31 22.5 -51.5t56.5 -20.5l230 -4h2q43 0 68.5 23t25.5 51zM270 1532l-4 194q-1 15 -7 29.5t-16.5 25t-25.5 16.5t-33 5h-232q-16 -1 -31 -6t-27 -14.5t-19.5 -23t-8.5 -30.5l-2 -194q0 -31 23 -51.5t57 -20.5l229 -4h2q44 0 69.5 23t25.5 51z" />
<glyph unicode="&#xd0;" horiz-adv-x="2003" d="M1962 397v47.5t-0.5 95t-0.5 119t-0.5 119t-0.5 95v47.5q0 66 -24 123t-64.5 104t-95.5 83.5t-118 61.5t-131.5 39t-135.5 15l-1567 28h-2q-34 2 -50 -17t-16 -42l-2 -62v-4q0 -35 20 -48t60 -13l168 -4q32 -1 58.5 -9t45.5 -25t30 -43.5t11 -62.5v-12q0 -6 -1 -53 t-1 -119q-54 2 -100.5 4.5t-82 4t-58 2t-27.5 -0.5h-2q-23 0 -35 -13t-12 -48v-2q-1 -8 -0.5 -34t1 -60t1 -72t1 -70.5t1 -55t0.5 -26.5q2 -23 16 -33t35 -10h6q22 -2 90 -1t164 1q-1 -80 -1.5 -153.5t-0.5 -130t-0.5 -91.5t-1.5 -38q0 -18 3.5 -33.5t13.5 -27t27.5 -17.5 t45.5 -6h13h81t140.5 0.5t178.5 1t195.5 0.5t191.5 0.5t166.5 1t120 0.5h52.5q125 2 233 38.5t188.5 97.5t126.5 140.5t46 167.5zM1421 504v-29q-1 -45 -19.5 -91t-51.5 -83.5t-80.5 -61.5t-108.5 -24h-481l-2 238q96 0 157 1t66 1q22 3 33 13t16 38q1 3 2.5 22.5t4.5 47.5 t5.5 61t5.5 61t4.5 47.5t2.5 22.5v6q2 25 -12 39t-35 14l-254 11l-2 297l504 -9q44 -1 83.5 -15t70 -38t49 -56t20.5 -67q1 -5 2.5 -31.5t4 -66t5 -87l5 -95t4 -91.5t1.5 -75z" />
<glyph unicode="&#xd1;" horiz-adv-x="2013" d="M1952 37q0 4 -1 43.5t-2.5 101.5t-4 139.5t-5 158.5t-5 158.5t-5 138.5t-3.5 99.5t-1 41.5q0 53 -57 59q-5 1 -30 2.5t-61 4t-77 5t-77 5t-62 4t-31 1.5q-20 0 -38.5 -14t-18.5 -39v-465l-799 779q-9 8 -17 10t-22 2l-799 -2q-32 0 -46.5 -18t-14.5 -40v-63v-21 q2 -29 20.5 -42t57.5 -13l122 -2q31 -1 56 -12t43 -30t27.5 -43t9.5 -50q0 -4 -0.5 -40t-1.5 -92t-2 -127.5t-2.5 -146t-2.5 -147t-2 -131.5t-1.5 -98t-0.5 -48v-2q0 -31 16 -46t44 -15l397 -6q29 0 46 16.5t17 50.5q0 3 -1.5 27t-4 61t-6 83.5t-7.5 94.5q-9 113 -19 253 l798 -641q13 -10 20 -13.5t27 -3.5h30t65 -0.5t86 -0.5t93.5 -0.5t87.5 -0.5h68h39q28 3 43 18t15 56zM1469 1732q0 11 -7 16.5t-13 8.5l-45 18q-14 7 -19 7q-14 0 -24 -19l-23 -49q-15 -35 -44 -55.5t-60 -20.5q-15 0 -49.5 14.5t-79 35.5t-96 46.5t-101.5 46.5t-95 35.5 t-77 14.5q-43 0 -78 -15t-64 -40t-52.5 -57.5t-43 -68t-36 -71.5t-31.5 -68q-6 -12 -6 -22q0 -11 7 -16.5t13 -8.5l47 -18q11 -6 19 -6q13 0 22 18l23 49q15 35 44 55.5t60 20.5q15 0 49 -14t79 -35.5t97.5 -46t103 -46t95.5 -35.5t76 -14q64 0 111 31.5t82.5 78.5t62 103 t47.5 105q6 15 6 22z" />
<glyph unicode="&#xd2;" horiz-adv-x="2056" d="M1974 614v83t-2 46q-4 88 -39 168t-95 141t-140 98t-174 38q-8 0 -48 0.5t-101.5 1t-138.5 1t-158 1.5t-159.5 2t-144 1.5t-112 1.5t-62.5 1h-10q-108 0 -197.5 -39t-155.5 -100.5t-105 -137.5t-44 -151q-1 -18 -2.5 -66t-2 -109t-1 -125.5t-0.5 -115.5v-80 q3 -81 42 -149.5t100 -120.5t135.5 -85t148.5 -42q11 -2 54.5 -3t107 -2.5t141 -2.5t158.5 -2t159 -2t142 -2t108 -1.5t56 -0.5h12q108 0 204 27t168 77.5t113.5 121.5t40.5 159v8q0 18 0.5 58t0.5 90.5t0.5 106.5t0.5 105zM1448 291q0 -34 -14 -66.5t-39.5 -58t-60.5 -41 t-77 -14.5l-464 6q-34 1 -63 14t-50 36t-32.5 55t-10.5 71v473q1 40 16.5 71.5t39.5 54t54.5 34.5t61.5 12l467 2q37 1 67 -13.5t51 -40t33 -58.5t13 -70zM1247 1403q0 -14 -10 -24.5t-25 -12.5q-3 0 -30 -0.5t-59 -0.5t-59 -0.5t-30 -0.5h-5q-23 0 -48.5 10t-39.5 27 q-5 6 -30 35.5t-60 71t-75.5 89t-75.5 88.5t-59 70t-27 33q-6 9 -6 19q0 14 9.5 25t29.5 11h2q6 0 25.5 -0.5t45 -0.5t54 -1t53 -1t42 -0.5t19.5 -0.5q19 -2 41.5 -11.5t36.5 -29.5q4 -6 24.5 -34.5t49 -68t62 -84t62.5 -84.5t50 -68.5t26 -36.5q7 -10 7 -19z" />
<glyph unicode="&#xd3;" horiz-adv-x="2056" d="M1974 614v83t-2 46q-4 88 -39 168t-95 141t-140 98t-174 38q-8 0 -48 0.5t-101.5 1t-138.5 1t-158 1.5t-159.5 2t-144 1.5t-112 1.5t-62.5 1h-10q-108 0 -197.5 -39t-155.5 -100.5t-105 -137.5t-44 -151q-1 -18 -2.5 -66t-2 -109t-1 -125.5t-0.5 -115.5v-80 q3 -81 42 -149.5t100 -120.5t135.5 -85t148.5 -42q11 -2 54.5 -3t107 -2.5t141 -2.5t158.5 -2t159 -2t142 -2t108 -1.5t56 -0.5h12q108 0 204 27t168 77.5t113.5 121.5t40.5 159v8q0 18 0.5 58t0.5 90.5t0.5 106.5t0.5 105zM1448 291q0 -34 -14 -66.5t-39.5 -58t-60.5 -41 t-77 -14.5l-464 6q-34 1 -63 14t-50 36t-32.5 55t-10.5 71v473q1 40 16.5 71.5t39.5 54t54.5 34.5t61.5 12l467 2q37 1 67 -13.5t51 -40t33 -58.5t13 -70zM1409 1786q0 -11 -7 -19q-3 -4 -27 -33t-59 -70t-75.5 -88.5t-75.5 -89t-60 -71t-30 -35.5q-14 -17 -39.5 -27 t-48.5 -10h-4q-3 0 -30.5 0.5t-59 0.5t-59 0.5t-30.5 0.5q-15 2 -24.5 12.5t-9.5 24.5q0 9 6 19q5 8 26 36.5t50 68.5t62.5 84.5t62 84t49 68t24.5 34.5q14 20 36.5 29.5t41.5 11.5q2 0 19.5 0.5t42 0.5t53 1t54.5 1t45.5 0.5t25.5 0.5h2q20 0 29.5 -11t9.5 -25z" />
<glyph unicode="&#xd4;" horiz-adv-x="2056" d="M1974 614v83t-2 46q-4 88 -39 168t-95 141t-140 98t-174 38q-8 0 -48 0.5t-101.5 1t-138.5 1t-158 1.5t-159.5 2t-144 1.5t-112 1.5t-62.5 1h-10q-108 0 -197.5 -39t-155.5 -100.5t-105 -137.5t-44 -151q-1 -18 -2.5 -66t-2 -109t-1 -125.5t-0.5 -115.5v-80 q3 -81 42 -149.5t100 -120.5t135.5 -85t148.5 -42q11 -2 54.5 -3t107 -2.5t141 -2.5t158.5 -2t159 -2t142 -2t108 -1.5t56 -0.5h12q108 0 204 27t168 77.5t113.5 121.5t40.5 159v8q0 18 0.5 58t0.5 90.5t0.5 106.5t0.5 105zM1448 291q0 -34 -14 -66.5t-39.5 -58t-60.5 -41 t-77 -14.5l-464 6q-34 1 -63 14t-50 36t-32.5 55t-10.5 71v473q1 40 16.5 71.5t39.5 54t54.5 34.5t61.5 12l467 2q37 1 67 -13.5t51 -40t33 -58.5t13 -70zM1503 1407q0 -12 -9 -22.5t-24 -10.5q-3 -1 -28 -1.5t-55 -1t-55 -1t-28 -0.5q-20 0 -45 8.5t-39 26.5q-4 4 -20 23 l-40 47.5t-53.5 63.5t-58.5 69q-29 -34 -58.5 -69t-53.5 -63.5t-40.5 -47.5t-19.5 -23q-14 -18 -39 -26.5t-47 -8.5q-2 0 -27 0.5t-54.5 1t-55 1t-29.5 1.5q-14 0 -22.5 10.5t-8.5 22.5q0 7 5 15q5 7 24.5 34.5t46.5 64.5t57.5 79t57.5 78.5t46.5 63t23.5 32.5 q12 18 33 27.5t38 9.5h244q17 0 37.5 -7t36.5 -30q4 -6 23 -32.5t46 -63t58 -78.5t58 -79t46.5 -64t24.5 -35q4 -10 4 -15z" />
<glyph unicode="&#xd5;" horiz-adv-x="2056" d="M1974 614v83t-2 46q-4 88 -39 168t-95 141t-140 98t-174 38q-8 0 -48 0.5t-101.5 1t-138.5 1t-158 1.5t-159.5 2t-144 1.5t-112 1.5t-62.5 1h-10q-108 0 -197.5 -39t-155.5 -100.5t-105 -137.5t-44 -151q-1 -18 -2.5 -66t-2 -109t-1 -125.5t-0.5 -115.5v-80 q3 -81 42 -149.5t100 -120.5t135.5 -85t148.5 -42q11 -2 54.5 -3t107 -2.5t141 -2.5t158.5 -2t159 -2t142 -2t108 -1.5t56 -0.5h12q108 0 204 27t168 77.5t113.5 121.5t40.5 159v8q0 18 0.5 58t0.5 90.5t0.5 106.5t0.5 105zM1448 291q0 -34 -14 -66.5t-39.5 -58t-60.5 -41 t-77 -14.5l-464 6q-34 1 -63 14t-50 36t-32.5 55t-10.5 71v473q1 40 16.5 71.5t39.5 54t54.5 34.5t61.5 12l467 2q37 1 67 -13.5t51 -40t33 -58.5t13 -70zM1531 1671q0 11 -7 16.5t-13 8.5l-45 18q-14 7 -19 7q-14 0 -24 -19l-23 -49q-15 -35 -44 -55.5t-60 -20.5 q-15 0 -49.5 14.5t-79 35.5t-96 46.5t-101.5 46.5t-95 35.5t-77 14.5q-43 0 -78 -15t-64 -40t-52.5 -57.5t-43 -68t-36 -71.5t-31.5 -68q-6 -12 -6 -22q0 -11 7 -16.5t13 -8.5l47 -18q11 -6 19 -6q13 0 22 18l23 49q15 35 44 55.5t60 20.5q15 0 49 -14t79 -35.5t97.5 -46 t103 -46t95.5 -35.5t76 -14q64 0 111 31.5t82.5 78.5t62 103t47.5 105q6 15 6 22z" />
<glyph unicode="&#xd6;" horiz-adv-x="2056" d="M1974 614v83t-2 46q-4 88 -39 168t-95 141t-140 98t-174 38q-8 0 -48 0.5t-101.5 1t-138.5 1t-158 1.5t-159.5 2t-144 1.5t-112 1.5t-62.5 1h-10q-108 0 -197.5 -39t-155.5 -100.5t-105 -137.5t-44 -151q-1 -18 -2.5 -66t-2 -109t-1 -125.5t-0.5 -115.5v-80 q3 -81 42 -149.5t100 -120.5t135.5 -85t148.5 -42q11 -2 54.5 -3t107 -2.5t141 -2.5t158.5 -2t159 -2t142 -2t108 -1.5t56 -0.5h12q108 0 204 27t168 77.5t113.5 121.5t40.5 159v8q0 18 0.5 58t0.5 90.5t0.5 106.5t0.5 105zM1448 291q0 -34 -14 -66.5t-39.5 -58t-60.5 -41 t-77 -14.5l-464 6q-34 1 -63 14t-50 36t-32.5 55t-10.5 71v473q1 40 16.5 71.5t39.5 54t54.5 34.5t61.5 12l467 2q37 1 67 -13.5t51 -40t33 -58.5t13 -70zM1517 1409l-4 194q-1 15 -7 29.5t-16.5 25t-25.5 16.5t-33 5h-231q-16 -1 -31 -6t-27 -14.5t-19.5 -23t-8.5 -30.5 l-2 -194q0 -31 22.5 -51.5t56.5 -20.5l230 -4h2q43 0 68.5 23t25.5 51zM985 1409l-4 194q-1 15 -7 29.5t-16.5 25t-25.5 16.5t-33 5h-232q-16 -1 -31 -6t-27 -14.5t-19.5 -23t-8.5 -30.5l-2 -194q0 -31 23 -51.5t57 -20.5l229 -4h2q44 0 69.5 23t25.5 51z" />
<glyph unicode="&#xd7;" horiz-adv-x="1233" d="M1151 846q0 -9 -4 -17t-10 -16q-1 -1 -21 -20t-54.5 -50.5t-80.5 -74t-98 -90.5l223 -242q14 -14 14 -33q0 -21 -22 -43q-2 -2 -17 -15t-37 -31.5t-46.5 -39.5t-46.5 -39t-37 -30.5t-17 -14.5q-20 -14 -37 -14t-35 14q-1 2 -19.5 20t-49.5 48t-71.5 70t-86.5 85 l-236 -217q-14 -14 -32 -14q-21 0 -43 22q-2 2 -15 17.5t-31 37.5t-39 47t-39 47t-30 37t-14 17q-15 23 -15 37q0 8 4.5 17t10.5 18q2 2 18 18.5t43 44.5t63.5 65.5t78.5 80.5q-45 45 -85 84t-70 68.5t-47.5 47.5t-19.5 19q-9 9 -13.5 19.5t-4.5 19.5q0 13 12 28 q2 2 18.5 19.5t40.5 42t51.5 53t51.5 53.5t40.5 42.5t18.5 19.5q29 24 45 24q10 0 18 -4t17 -12q1 -1 18 -19t46 -49t67.5 -73.5t81.5 -91.5q46 47 86 88t70.5 72t48.5 49.5t21 19.5q18 18 36 18q14 0 29 -12q2 -2 19.5 -18.5t42 -40.5t52.5 -51.5t52.5 -52t41.5 -41 t19 -19.5q25 -28 25 -45z" />
<glyph unicode="&#xd8;" horiz-adv-x="2056" d="M1974 614v83t-2 46q-4 85 -37 162.5t-89 137.5t-131.5 98.5t-164.5 44.5l70 149q2 8 3 14.5t1 12.5q0 14 -11 22.5t-40 8.5h-2q-10 0 -40 -0.5t-70 -1.5t-84.5 -1.5t-82.5 -1.5t-64.5 -1.5t-29.5 -0.5q-28 -2 -45.5 -17t-30.5 -40q-1 -1 -6 -13.5t-12.5 -31t-17.5 -42.5 t-21 -50q-80 2 -157 3t-141 1.5t-109 1t-60 0.5h-10q-72 1 -136 -16.5t-118.5 -48.5t-99 -73t-76 -90t-50.5 -99t-22 -101q-1 -18 -2.5 -66t-2 -109t-1 -125.5t-0.5 -115.5v-80q3 -81 42 -149.5t100 -120.5t135.5 -85t148.5 -42q-13 -31 -25.5 -60t-22 -51.5t-15 -36 t-5.5 -14.5q-6 -15 -6 -26q0 -13 8.5 -20.5t28.5 -10.5q3 -1 25.5 -3t54.5 -5t68.5 -6.5t68.5 -6t54 -4.5t24 -2h4q31 -2 53.5 12.5t34.5 39.5q0 1 7.5 17.5t19.5 43t27 59t30 64.5q84 -1 166.5 -2t150.5 -2t115 -1.5t60 -0.5h12q108 -1 204 26.5t168 77.5t113.5 121.5 t40.5 159.5v8q0 18 0.5 58t0.5 90.5t0.5 106.5t0.5 105zM1448 291q0 -34 -14 -66.5t-39.5 -58t-60.5 -41t-77 -14.5l-464 6q-34 1 -63 14t-50 36t-32.5 55t-10.5 71v473q1 40 16.5 71.5t39.5 54t54.5 34.5t61.5 12l467 2q37 1 67 -13.5t51 -40t33 -58.5t13 -70z" />
<glyph unicode="&#xd9;" horiz-adv-x="1964" d="M1905 373l-4 577q0 29 -15.5 40t-46.5 11q-4 0 -35 0.5t-75.5 1.5t-96 2.5t-96 2.5t-76 1.5t-35.5 0.5q-6 0 -14.5 -2.5t-17 -8.5t-14 -17t-5.5 -28q1 -87 2 -170q0 -35 0.5 -73t1 -75.5t0.5 -72v-63.5v-82q-2 -33 -16.5 -65t-39 -57.5t-58.5 -41.5t-76 -16h-2l-393 8 q-33 0 -61 13t-49 36t-33.5 55t-14.5 70v20q0 25 0.5 71.5t1.5 105t2 124.5l2 132q3 154 6 333q0 62 -72 62h-29.5t-66 0.5t-86.5 0.5t-91.5 0.5t-82 0.5h-57.5h-19q-26 -2 -42.5 -14.5t-16.5 -49.5l-2 -805q0 -54 18 -102.5t49 -90t73 -76t89 -60.5t97.5 -43t99.5 -23 q11 -1 51.5 -2.5t99 -3t130 -3t146 -2.5t146.5 -2t131 -1.5t100 -1t54 -0.5h12q108 0 203.5 27t167.5 77.5t114 121t42 157.5zM1185 1403q0 -14 -10 -24.5t-25 -12.5q-3 0 -30 -0.5t-59 -0.5t-59 -0.5t-30 -0.5h-5q-23 0 -48.5 10t-39.5 27q-5 6 -30 35.5t-60 71t-75.5 89 t-75.5 88.5t-59 70t-27 33q-6 9 -6 19q0 14 9.5 25t29.5 11h2q6 0 25.5 -0.5t45 -0.5t54 -1t53 -1t42 -0.5t19.5 -0.5q19 -2 41.5 -11.5t36.5 -29.5q4 -6 24.5 -34.5t49 -68t62 -84t62.5 -84.5t50 -68.5t26 -36.5q7 -10 7 -19z" />
<glyph unicode="&#xda;" horiz-adv-x="1964" d="M1905 373l-4 577q0 29 -15.5 40t-46.5 11q-4 0 -35 0.5t-75.5 1.5t-96 2.5t-96 2.5t-76 1.5t-35.5 0.5q-6 0 -14.5 -2.5t-17 -8.5t-14 -17t-5.5 -28q1 -87 2 -170q0 -35 0.5 -73t1 -75.5t0.5 -72v-63.5v-82q-2 -33 -16.5 -65t-39 -57.5t-58.5 -41.5t-76 -16h-2l-393 8 q-33 0 -61 13t-49 36t-33.5 55t-14.5 70v20q0 25 0.5 71.5t1.5 105t2 124.5l2 132q3 154 6 333q0 62 -72 62h-29.5t-66 0.5t-86.5 0.5t-91.5 0.5t-82 0.5h-57.5h-19q-26 -2 -42.5 -14.5t-16.5 -49.5l-2 -805q0 -54 18 -102.5t49 -90t73 -76t89 -60.5t97.5 -43t99.5 -23 q11 -1 51.5 -2.5t99 -3t130 -3t146 -2.5t146.5 -2t131 -1.5t100 -1t54 -0.5h12q108 0 203.5 27t167.5 77.5t114 121t42 157.5zM1491 1848q0 -11 -7 -19q-3 -4 -27 -33t-59 -70t-75.5 -88.5t-75.5 -89t-60 -71t-30 -35.5q-14 -17 -39.5 -27t-48.5 -10h-4q-3 0 -30.5 0.5 t-59 0.5t-59 0.5t-30.5 0.5q-15 2 -24.5 12.5t-9.5 24.5q0 9 6 19q5 8 26 36.5t50 68.5t62.5 84.5t62 84t49 68t24.5 34.5q14 20 36.5 29.5t41.5 11.5q2 0 19.5 0.5t42 0.5t53 1t54.5 1t45.5 0.5t25.5 0.5h2q20 0 29.5 -11t9.5 -25z" />
<glyph unicode="&#xdb;" horiz-adv-x="1964" d="M1905 373l-4 577q0 29 -15.5 40t-46.5 11q-4 0 -35 0.5t-75.5 1.5t-96 2.5t-96 2.5t-76 1.5t-35.5 0.5q-6 0 -14.5 -2.5t-17 -8.5t-14 -17t-5.5 -28q1 -87 2 -170q0 -35 0.5 -73t1 -75.5t0.5 -72v-63.5v-82q-2 -33 -16.5 -65t-39 -57.5t-58.5 -41.5t-76 -16h-2l-393 8 q-33 0 -61 13t-49 36t-33.5 55t-14.5 70v20q0 25 0.5 71.5t1.5 105t2 124.5l2 132q3 154 6 333q0 62 -72 62h-29.5t-66 0.5t-86.5 0.5t-91.5 0.5t-82 0.5h-57.5h-19q-26 -2 -42.5 -14.5t-16.5 -49.5l-2 -805q0 -54 18 -102.5t49 -90t73 -76t89 -60.5t97.5 -43t99.5 -23 q11 -1 51.5 -2.5t99 -3t130 -3t146 -2.5t146.5 -2t131 -1.5t100 -1t54 -0.5h12q108 0 203.5 27t167.5 77.5t114 121t42 157.5zM1464 1448q0 -12 -9 -22.5t-24 -10.5q-3 -1 -28 -1.5t-55 -1t-55 -1t-28 -0.5q-20 0 -45 8.5t-39 26.5q-4 4 -20 23l-40 47.5t-53.5 63.5 t-58.5 69q-29 -34 -58.5 -69t-53.5 -63.5t-40.5 -47.5t-19.5 -23q-14 -18 -39 -26.5t-47 -8.5q-2 0 -27 0.5t-54.5 1t-55 1t-29.5 1.5q-14 0 -22.5 10.5t-8.5 22.5q0 7 5 15q5 7 24.5 34.5t46.5 64.5t57.5 79t57.5 78.5t46.5 63t23.5 32.5q12 18 33 27.5t38 9.5h244 q17 0 37.5 -7t36.5 -30q4 -6 23 -32.5t46 -63t58 -78.5t58 -79t46.5 -64t24.5 -35q4 -10 4 -15z" />
<glyph unicode="&#xdc;" horiz-adv-x="1964" d="M1905 373l-4 577q0 29 -15.5 40t-46.5 11q-4 0 -35 0.5t-75.5 1.5t-96 2.5t-96 2.5t-76 1.5t-35.5 0.5q-6 0 -14.5 -2.5t-17 -8.5t-14 -17t-5.5 -28q1 -87 2 -170q0 -35 0.5 -73t1 -75.5t0.5 -72v-63.5v-82q-2 -33 -16.5 -65t-39 -57.5t-58.5 -41.5t-76 -16h-2l-393 8 q-33 0 -61 13t-49 36t-33.5 55t-14.5 70v20q0 25 0.5 71.5t1.5 105t2 124.5l2 132q3 154 6 333q0 62 -72 62h-29.5t-66 0.5t-86.5 0.5t-91.5 0.5t-82 0.5h-57.5h-19q-26 -2 -42.5 -14.5t-16.5 -49.5l-2 -805q0 -54 18 -102.5t49 -90t73 -76t89 -60.5t97.5 -43t99.5 -23 q11 -1 51.5 -2.5t99 -3t130 -3t146 -2.5t146.5 -2t131 -1.5t100 -1t54 -0.5h12q108 0 203.5 27t167.5 77.5t114 121t42 157.5zM1497 1491l-4 194q-1 15 -7 29.5t-16.5 25t-25.5 16.5t-33 5h-231q-16 -1 -31 -6t-27 -14.5t-19.5 -23t-8.5 -30.5l-2 -194q0 -31 22.5 -51.5 t56.5 -20.5l230 -4h2q43 0 68.5 23t25.5 51zM965 1491l-4 194q-1 15 -7 29.5t-16.5 25t-25.5 16.5t-33 5h-232q-16 -1 -31 -6t-27 -14.5t-19.5 -23t-8.5 -30.5l-2 -194q0 -31 23 -51.5t57 -20.5l229 -4h2q44 0 69.5 23t25.5 51z" />
<glyph unicode="&#xdd;" horiz-adv-x="1679" d="M1720 1165q0 20 -17 32.5t-48 12.5h-457q-26 0 -50 -8t-50 -39q-6 -7 -21.5 -26.5t-36.5 -46t-46 -57.5t-49 -63q-57 -74 -126 -163q-79 97 -143 176q-27 34 -54.5 67l-50 60t-38.5 46t-21 24q-19 21 -47 33t-64 12h-29.5t-49 -0.5t-62 -1t-66.5 -1.5q-78 -2 -171 -3 q-28 -4 -46 -19t-18 -37q0 -12 6 -25.5t19 -27.5l577 -651q1 -48 1.5 -100.5t1.5 -104t2 -99t2 -84t1.5 -59.5t1.5 -26q3 -26 14 -39.5t42 -18.5q3 -1 29.5 -3t64 -5t81.5 -6t81.5 -5.5t64 -4.5t29.5 -2h4q60 0 63 51l37 493l621 680q18 23 18 39zM1308 1725q0 -11 -7 -19 q-3 -4 -27 -33t-59 -70t-75.5 -88.5t-75.5 -89t-60 -71t-30 -35.5q-14 -17 -39.5 -27t-48.5 -10h-4q-3 0 -30.5 0.5t-59 0.5t-59 0.5t-30.5 0.5q-15 2 -24.5 12.5t-9.5 24.5q0 9 6 19q5 8 26 36.5t50 68.5t62.5 84.5t62 84t49 68t24.5 34.5q14 20 36.5 29.5t41.5 11.5 q2 0 19.5 0.5t42 0.5t53 1t54.5 1t45.5 0.5t25.5 0.5h2q20 0 29.5 -11t9.5 -25z" />
<glyph unicode="&#xde;" horiz-adv-x="1898" d="M1858 737q0 28 -7 64t-23 74t-42 75.5t-65 68t-91.5 52t-120.5 27.5q-17 2 -69 4t-126.5 5t-165 6t-185 6.5t-186 7t-167.5 6.5q-2 102 -2 165t-2 68q-3 26 -14.5 40t-40.5 17q-3 1 -29.5 3t-64.5 4.5t-82 6t-81.5 6t-64 5t-28.5 2.5h-4q-31 0 -47.5 -15.5t-16.5 -39.5 q0 -2 -2 -40.5t-4.5 -103.5t-5.5 -151t-6.5 -182.5t-7.5 -198.5t-7.5 -198.5t-7 -182.5t-5.5 -150.5t-3.5 -103t-1.5 -39.5q3 -28 17 -41.5t55 -13.5h4q10 0 43 0.5t77.5 0.5t93.5 1t91.5 1t71.5 0.5t32 0.5q26 3 37.5 18.5t11.5 40.5v15v86t-2 149l766 -4q110 -1 197.5 29 t149.5 86.5t95.5 137.5t35.5 181v4zM1276 721v-4q-2 -78 -36.5 -122.5t-106.5 -53.5q-6 -1 -28 -1.5t-55 -0.5h-75h-90h-271l-2 352l492 -6q38 0 70 -12t54.5 -34t35 -52t12.5 -66z" />
<glyph unicode="&#xdf;" horiz-adv-x="3451" d="M1751 797l-6 131q-4 57 -46 110.5t-112 95t-162 67t-196 26.5l-594 2q-50 1 -112 -6.5t-126.5 -24t-126 -43.5t-109.5 -65.5t-77 -89.5t-29 -117t33 -116.5t84 -87.5t112.5 -59.5t118.5 -33.5q28 -5 70 -12t92.5 -14.5t107.5 -16t114 -16t112 -15t102 -12.5q26 -3 53 -10 t49 -20.5t36 -34.5t14 -52t-12.5 -51t-31.5 -32t-41.5 -16.5t-41.5 -4.5l-330 -7q-33 -1 -60 8.5t-46.5 25.5t-30.5 37t-12 42l-2 64q0 24 -14.5 37.5t-45.5 13.5l-401 4h-2q-22 0 -31.5 -9t-9.5 -38q0 -32 1.5 -64.5t6.5 -64.5q7 -61 42.5 -115.5t94 -95t137.5 -64 t173 -24.5l737 -2q38 0 85 6.5t95.5 22t94 40t81 59.5t57 80.5t21.5 102.5q0 67 -24.5 119.5t-74.5 92t-127.5 66.5t-183.5 43q-22 3 -60 9t-85 13.5t-100.5 16t-107.5 17t-106.5 16t-97.5 14.5q-24 3 -48 11.5t-43 23.5t-30.5 37t-11.5 53q0 32 13.5 52.5t33 33t42 17.5 t40.5 6l330 4q34 0 61.5 -9t47 -24.5t30.5 -35.5t11 -42l2 -63q2 -26 16 -38.5t45 -12.5l471 -6q22 0 32.5 8.5t8.5 36.5zM3471 797l-6 131q-4 57 -46 110.5t-112 95t-162 67t-196 26.5l-594 2q-50 1 -112 -6.5t-126.5 -24t-126 -43.5t-109.5 -65.5t-77 -89.5t-29 -117 t33 -116.5t84 -87.5t112.5 -59.5t118.5 -33.5q28 -5 70 -12t92.5 -14.5t107.5 -16t114 -16t112 -15t102 -12.5q26 -3 53 -10t49 -20.5t36 -34.5t14 -52t-12.5 -51t-31.5 -32t-41.5 -16.5t-41.5 -4.5l-330 -7q-33 -1 -60 8.5t-46.5 25.5t-30.5 37t-12 42l-2 64 q0 24 -14.5 37.5t-45.5 13.5l-401 4h-2q-22 0 -31.5 -9t-9.5 -38q0 -32 1.5 -64.5t6.5 -64.5q7 -61 42.5 -115.5t94 -95t137.5 -64t173 -24.5l737 -2q38 0 85 6.5t95.5 22t94 40t81 59.5t57 80.5t21.5 102.5q0 67 -24.5 119.5t-74.5 92t-127.5 66.5t-183.5 43q-22 3 -60 9 t-85 13.5t-100.5 16t-107.5 17t-106.5 16t-97.5 14.5q-24 3 -48 11.5t-43 23.5t-30.5 37t-11.5 53q0 32 13.5 52.5t33 33t42 17.5t40.5 6l330 4q34 0 61.5 -9t47 -24.5t30.5 -35.5t11 -42l2 -63q2 -26 16 -38.5t45 -12.5l471 -6q22 0 32.5 8.5t8.5 36.5z" />
<glyph unicode="&#xe0;" horiz-adv-x="1751" d="M1751 29q0 14 -6 32q-1 3 -21 56t-52 137.5t-72 191.5t-82 218.5t-82.5 218.5t-72 191l-51 136t-20.5 54q-9 23 -20.5 32t-42.5 9l-1069 -5q-23 0 -36 -11t-18 -29q-1 -5 -3 -16.5t-4.5 -25t-4.5 -26.5t-2 -21q0 -24 10 -35t29 -14l236 -26q34 -5 53.5 -24.5t19.5 -51.5 q0 -12 -2 -25.5t-8 -27.5q-1 -3 -18.5 -39t-45 -93t-63 -129.5t-73 -147.5t-73 -147t-63 -128t-45 -91t-18.5 -36q-5 -11 -8 -20t-3 -17q0 -20 14 -32.5t40 -14.5l346 -17h4q12 0 22.5 6.5t18.5 20.5q1 2 7.5 15.5t16.5 34t22 46t25 52.5q30 62 66 141l522 6l142 -326 q11 -25 31.5 -40t48.5 -15q3 0 27.5 -1t61.5 -2t80 -3t82 -3t68.5 -2t38.5 -1h2q23 0 34 12.5t11 32.5zM1059 600l-373 16l209 406zM1042 1464q0 -14 -10 -24.5t-25 -12.5q-3 0 -30 -0.5t-59 -0.5t-59 -0.5t-30 -0.5h-5q-23 0 -48.5 10t-39.5 27q-5 6 -30 35.5t-60 71 t-75.5 89t-75.5 88.5t-59 70t-27 33q-6 9 -6 19q0 14 9.5 25t29.5 11h2q6 0 25.5 -0.5t45 -0.5t54 -1t53 -1t42 -0.5t19.5 -0.5q19 -2 41.5 -11.5t36.5 -29.5q4 -6 24.5 -34.5t49 -68t62 -84t62.5 -84.5t50 -68.5t26 -36.5q7 -10 7 -19z" />
<glyph unicode="&#xe1;" horiz-adv-x="1751" d="M1751 29q0 14 -6 32q-1 3 -21 56t-52 137.5t-72 191.5t-82 218.5t-82.5 218.5t-72 191l-51 136t-20.5 54q-9 23 -20.5 32t-42.5 9l-1069 -5q-23 0 -36 -11t-18 -29q-1 -5 -3 -16.5t-4.5 -25t-4.5 -26.5t-2 -21q0 -24 10 -35t29 -14l236 -26q34 -5 53.5 -24.5t19.5 -51.5 q0 -12 -2 -25.5t-8 -27.5q-1 -3 -18.5 -39t-45 -93t-63 -129.5t-73 -147.5t-73 -147t-63 -128t-45 -91t-18.5 -36q-5 -11 -8 -20t-3 -17q0 -20 14 -32.5t40 -14.5l346 -17h4q12 0 22.5 6.5t18.5 20.5q1 2 7.5 15.5t16.5 34t22 46t25 52.5q30 62 66 141l522 6l142 -326 q11 -25 31.5 -40t48.5 -15q3 0 27.5 -1t61.5 -2t80 -3t82 -3t68.5 -2t38.5 -1h2q23 0 34 12.5t11 32.5zM1059 600l-373 16l209 406zM1288 1889q0 -11 -7 -19q-3 -4 -27 -33t-59 -70t-75.5 -88.5t-75.5 -89t-60 -71t-30 -35.5q-14 -17 -39.5 -27t-48.5 -10h-4q-3 0 -30.5 0.5 t-59 0.5t-59 0.5t-30.5 0.5q-15 2 -24.5 12.5t-9.5 24.5q0 9 6 19q5 8 26 36.5t50 68.5t62.5 84.5t62 84t49 68t24.5 34.5q14 20 36.5 29.5t41.5 11.5q2 0 19.5 0.5t42 0.5t53 1t54.5 1t45.5 0.5t25.5 0.5h2q20 0 29.5 -11t9.5 -25z" />
<glyph unicode="&#xe2;" horiz-adv-x="1751" d="M1751 29q0 14 -6 32q-1 3 -21 56t-52 137.5t-72 191.5t-82 218.5t-82.5 218.5t-72 191l-51 136t-20.5 54q-9 23 -20.5 32t-42.5 9l-1069 -5q-23 0 -36 -11t-18 -29q-1 -5 -3 -16.5t-4.5 -25t-4.5 -26.5t-2 -21q0 -24 10 -35t29 -14l236 -26q34 -5 53.5 -24.5t19.5 -51.5 q0 -12 -2 -25.5t-8 -27.5q-1 -3 -18.5 -39t-45 -93t-63 -129.5t-73 -147.5t-73 -147t-63 -128t-45 -91t-18.5 -36q-5 -11 -8 -20t-3 -17q0 -20 14 -32.5t40 -14.5l346 -17h4q12 0 22.5 6.5t18.5 20.5q1 2 7.5 15.5t16.5 34t22 46t25 52.5q30 62 66 141l522 6l142 -326 q11 -25 31.5 -40t48.5 -15q3 0 27.5 -1t61.5 -2t80 -3t82 -3t68.5 -2t38.5 -1h2q23 0 34 12.5t11 32.5zM1059 600l-373 16l209 406zM1341 1509q0 -12 -9 -22.5t-24 -10.5q-3 -1 -28 -1.5t-55 -1t-55 -1t-28 -0.5q-20 0 -45 8.5t-39 26.5q-4 4 -20 23l-40 47.5t-53.5 63.5 t-58.5 69q-29 -34 -58.5 -69t-53.5 -63.5t-40.5 -47.5t-19.5 -23q-14 -18 -39 -26.5t-47 -8.5q-2 0 -27 0.5t-54.5 1t-55 1t-29.5 1.5q-14 0 -22.5 10.5t-8.5 22.5q0 7 5 15q5 7 24.5 34.5t46.5 64.5t57.5 79t57.5 78.5t46.5 63t23.5 32.5q12 18 33 27.5t38 9.5h244 q17 0 37.5 -7t36.5 -30q4 -6 23 -32.5t46 -63t58 -78.5t58 -79t46.5 -64t24.5 -35q4 -10 4 -15z" />
<glyph unicode="&#xe3;" horiz-adv-x="1751" d="M1751 29q0 14 -6 32q-1 3 -21 56t-52 137.5t-72 191.5t-82 218.5t-82.5 218.5t-72 191l-51 136t-20.5 54q-9 23 -20.5 32t-42.5 9l-1069 -5q-23 0 -36 -11t-18 -29q-1 -5 -3 -16.5t-4.5 -25t-4.5 -26.5t-2 -21q0 -24 10 -35t29 -14l236 -26q34 -5 53.5 -24.5t19.5 -51.5 q0 -12 -2 -25.5t-8 -27.5q-1 -3 -18.5 -39t-45 -93t-63 -129.5t-73 -147.5t-73 -147t-63 -128t-45 -91t-18.5 -36q-5 -11 -8 -20t-3 -17q0 -20 14 -32.5t40 -14.5l346 -17h4q12 0 22.5 6.5t18.5 20.5q1 2 7.5 15.5t16.5 34t22 46t25 52.5q30 62 66 141l522 6l142 -326 q11 -25 31.5 -40t48.5 -15q3 0 27.5 -1t61.5 -2t80 -3t82 -3t68.5 -2t38.5 -1h2q23 0 34 12.5t11 32.5zM1059 600l-373 16l209 406zM1387 1794q0 11 -7 16.5t-13 8.5l-45 18q-14 7 -19 7q-14 0 -24 -19l-23 -49q-15 -35 -44 -55.5t-60 -20.5q-15 0 -49.5 14.5t-79 35.5 t-96 46.5t-101.5 46.5t-95 35.5t-77 14.5q-43 0 -78 -15t-64 -40t-52.5 -57.5t-43 -68t-36 -71.5t-31.5 -68q-6 -12 -6 -22q0 -11 7 -16.5t13 -8.5l47 -18q11 -6 19 -6q13 0 22 18l23 49q15 35 44 55.5t60 20.5q15 0 49 -14t79 -35.5t97.5 -46t103 -46t95.5 -35.5t76 -14 q64 0 111 31.5t82.5 78.5t62 103t47.5 105q6 15 6 22z" />
<glyph unicode="&#xe4;" horiz-adv-x="1751" d="M1751 29q0 14 -6 32q-1 3 -21 56t-52 137.5t-72 191.5t-82 218.5t-82.5 218.5t-72 191l-51 136t-20.5 54q-9 23 -20.5 32t-42.5 9l-1069 -5q-23 0 -36 -11t-18 -29q-1 -5 -3 -16.5t-4.5 -25t-4.5 -26.5t-2 -21q0 -24 10 -35t29 -14l236 -26q34 -5 53.5 -24.5t19.5 -51.5 q0 -12 -2 -25.5t-8 -27.5q-1 -3 -18.5 -39t-45 -93t-63 -129.5t-73 -147.5t-73 -147t-63 -128t-45 -91t-18.5 -36q-5 -11 -8 -20t-3 -17q0 -20 14 -32.5t40 -14.5l346 -17h4q12 0 22.5 6.5t18.5 20.5q1 2 7.5 15.5t16.5 34t22 46t25 52.5q30 62 66 141l522 6l142 -326 q11 -25 31.5 -40t48.5 -15q3 0 27.5 -1t61.5 -2t80 -3t82 -3t68.5 -2t38.5 -1h2q23 0 34 12.5t11 32.5zM1059 600l-373 16l209 406zM1334 1516l-4 194q-1 15 -7 29.5t-16.5 25t-25.5 16.5t-33 5h-231q-16 -1 -31 -6t-27 -14.5t-19.5 -23t-8.5 -30.5l-2 -194 q0 -31 22.5 -51.5t56.5 -20.5l230 -4h2q43 0 68.5 23t25.5 51zM802 1516l-4 194q-1 15 -7 29.5t-16.5 25t-25.5 16.5t-33 5h-232q-16 -1 -31 -6t-27 -14.5t-19.5 -23t-8.5 -30.5l-2 -194q0 -31 23 -51.5t57 -20.5l229 -4h2q44 0 69.5 23t25.5 51z" />
<glyph unicode="&#xe5;" horiz-adv-x="1751" d="M1751 29q0 14 -6 32q-1 3 -21 56t-52 137.5t-72 191.5t-82 218.5t-82.5 218.5t-72 191l-51 136t-20.5 54q-9 23 -20.5 32t-42.5 9h-92q6 18 6 38v168q0 35 -14.5 65t-39 52.5t-57 35.5t-67.5 13l-332 4q-43 0 -80 -14t-64 -36.5t-42 -51t-15 -57.5l-2 -168 q0 -14 2.5 -26.5t7.5 -24.5l-280 -3q-23 0 -36 -11t-18 -29q-1 -5 -3 -16.5t-4.5 -25t-4.5 -26.5t-2 -21q0 -24 10 -35t29 -14l236 -26q34 -5 53.5 -24.5t19.5 -51.5q0 -12 -2 -25.5t-8 -27.5q-1 -3 -18.5 -39t-45 -93t-63 -129.5t-73 -147.5t-73 -147t-63 -128t-45 -91 t-18.5 -36q-5 -11 -8 -20t-3 -17q0 -20 14 -32.5t40 -14.5l346 -17h4q12 0 22.5 6.5t18.5 20.5q1 2 7.5 15.5t16.5 34t22 46t25 52.5q30 62 66 141l522 6l142 -326q11 -25 31.5 -40t48.5 -15q3 0 27.5 -1t61.5 -2t80 -3t82 -3t68.5 -2t38.5 -1h2q23 0 34 12.5t11 32.5z M918 1360q0 -16 -14 -28.5t-36 -12.5l-166 2q-17 0 -27.5 11t-10.5 30l2 158q0 20 14.5 28t28.5 8l165 3q20 0 29.5 -14t9.5 -29zM1059 600l-373 16l209 406z" />
<glyph unicode="&#xe6;" horiz-adv-x="2859" d="M2859 225q0 -28 -18 -43.5t-58 -17.5q-2 0 -44.5 -0.5t-114 -1t-166.5 -1t-201.5 -1t-218.5 -1.5t-219 -1.5t-202 -1t-167.5 -1t-116.5 -1t-47 -0.5q-51 0 -69.5 23t-18.5 67v143l-512 -4q-62 -85 -111 -154q-21 -29 -41.5 -57t-36.5 -50.5t-26.5 -37t-11.5 -16.5 q-13 -16 -26 -22.5t-27 -6.5h-3l-374 16q-25 2 -37 12t-12 27q0 22 22 53q1 1 19.5 26t50 67.5t73 98.5t88.5 119t96 129.5t95.5 129.5t88.5 119.5t73.5 99.5t50.5 68.5t20 27.5q16 25 22.5 45t6.5 37q0 26 -17 42t-48 20q-4 1 -27.5 3t-56.5 5t-71 6t-71.5 6t-57.5 5.5 t-28 2.5q-20 2 -32.5 14.5t-14.5 38.5v5q0 9 0.5 22.5t2 27.5t3 25.5t2.5 16.5q6 44 56 47q2 0 66 -3t173 -8.5t254 -13t307.5 -15.5t334 -16.5t334.5 -17t307.5 -16t254 -13t174 -9t66.5 -3.5q63 -3 69 -53q0 -4 0.5 -21t1 -38.5t1 -42.5t0.5 -33v-11q-2 -27 -20 -44 t-44 -17h-4h-6h-64t-115 -0.5t-147.5 -1t-161.5 -1.5q-191 -2 -424 -3l-8 -141q215 -9 385 -16q72 -3 142 -6t125 -5.5t90 -4t37 -1.5q21 -2 34 -8t21 -13.5t12 -16.5t6 -17q3 -9 6 -29t5.5 -43t4 -44t1.5 -30v-2q-2 -32 -19.5 -46t-42.5 -17q-3 0 -35.5 -1t-83.5 -2 t-115.5 -2t-130.5 -2q-156 -3 -352 -6l-4 -143l1026 -21q42 0 56 -14.5t14 -42.5q0 -5 0.5 -22t0.5 -36t0.5 -36t0.5 -23v-4v0zM1200 1108l-358 -455l358 -14v469z" />
<glyph unicode="&#xe7;" horiz-adv-x="1726" d="M1665 465v8q0 19 -14.5 37t-46.5 20q-11 0 -41 0.5t-68 1.5t-80 2.5t-78 2.5t-61 1.5t-29 0.5q-12 0 -29 -13t-20 -39q-2 -21 -3.5 -50t-4.5 -46t-11 -36t-23.5 -35.5t-38.5 -27.5t-56 -11l-334 2q-33 0 -61 13t-48 35t-30.5 51t-9.5 60l4 486q1 38 15 66t34.5 47.5 t44 30t41.5 11.5q10 1 35.5 1.5t59 1.5t70.5 2t70.5 1.5t59 0.5h35.5h2q33 0 59 -11.5t44.5 -30.5t28 -43.5t9.5 -50.5v-45q0 -31 13 -45t44 -16l365 -6h2q25 0 34.5 13t10.5 54v62v51q-3 58 -35 121.5t-85 117.5t-123 89t-150 36l-738 5q-39 1 -83 -11t-88 -35.5 t-85.5 -56.5t-75 -75.5t-56.5 -93t-31 -107.5q-2 -10 -6 -48.5t-9.5 -93.5t-11.5 -119.5t-11 -126.5t-8 -115.5t-2 -86.5v-8q1 -38 13 -82.5t35 -88.5t56 -85.5t75 -74t92.5 -52t107.5 -21.5l275 -6q-20 -38 -35.5 -78t-15.5 -69q0 -47 35.5 -75t115.5 -28q18 0 49.5 -1.5 t62 -8t54.5 -20.5t27 -39q4 -28 -20 -44t-57.5 -24.5t-67.5 -11t-50 -2.5q-36 0 -65.5 1t-58 3.5t-57.5 6.5t-65 11q-4 2 -14 2q-12 0 -25.5 -4t-26 -14t-23 -27.5t-15.5 -44.5q-2 -8 -2 -14v-12q0 -24 7.5 -40.5t20 -27t28.5 -17t32 -10.5q37 -8 66 -12.5t59.5 -7t68 -3.5 t91.5 -1q36 0 85.5 6t102 19t104 34t92.5 50.5t66 68.5t25 88q0 55 -17 95t-45.5 68t-66 46.5t-78.5 31.5t-83.5 22t-80.5 18q2 12 5.5 27t6.5 34l277 -8q68 -2 139 26.5t132 76.5t104 109.5t55 125.5q2 13 4 31.5t3 38t1.5 37t-0.5 28.5z" />
<glyph unicode="&#xe8;" horiz-adv-x="1851" d="M1913 -41l-2 111q0 26 -13.5 38.5t-50.5 12.5l-1112 18l6 131q228 3 408 7q77 2 151 3t133 2t96 2t40 1q21 2 37 14t16 43v6q0 10 -1.5 28.5t-3 38.5t-3.5 37.5t-4 24.5q-3 7 -7 15t-11.5 15t-19.5 11.5t-30 5.5q-2 0 -43 1.5t-106.5 4t-148.5 5t-170 5.5q-203 7 -460 15 l11 133q256 0 470 1q91 0 182 0.5t168.5 0.5h134.5h81h16h2q26 0 43 16t15 42v133q-2 26 -20 36t-46 13q-2 0 -45 1.5t-115 3.5t-167 5t-202 6.5t-220 7t-220.5 7t-203.5 6.5t-169 5t-117 3.5t-48 1.5q-32 0 -50 -13t-18 -49q0 -5 -0.5 -46.5t-1 -106.5t-0.5 -146.5 t-0.5 -167t-0.5 -167.5t-0.5 -148t-0.5 -108.5v-49.5v-4q0 -37 18 -57t64 -20h4h68.5t138 0.5t190.5 1t224.5 1.5t240 1.5t238 1t217.5 1.5t179 1.5t122 1t47 0.5q35 3 52.5 16t17.5 39zM1185 1116q0 -14 -10 -24.5t-25 -12.5q-3 0 -30 -0.5t-59 -0.5t-59 -0.5t-30 -0.5h-5 q-23 0 -48.5 10t-39.5 27q-5 6 -30 35.5t-60 71t-75.5 89t-75.5 88.5t-59 70t-27 33q-6 9 -6 19q0 14 9.5 25t29.5 11h2q6 0 25.5 -0.5t45 -0.5t54 -1t53 -1t42 -0.5t19.5 -0.5q19 -2 41.5 -11.5t36.5 -29.5q4 -6 24.5 -34.5t49 -68t62 -84t62.5 -84.5t50 -68.5t26 -36.5 q7 -10 7 -19z" />
<glyph unicode="&#xe9;" horiz-adv-x="1851" d="M1913 -41l-2 111q0 26 -13.5 38.5t-50.5 12.5l-1112 18l6 131q228 3 408 7q77 2 151 3t133 2t96 2t40 1q21 2 37 14t16 43v6q0 10 -1.5 28.5t-3 38.5t-3.5 37.5t-4 24.5q-3 7 -7 15t-11.5 15t-19.5 11.5t-30 5.5q-2 0 -43 1.5t-106.5 4t-148.5 5t-170 5.5q-203 7 -460 15 l11 133q256 0 470 1q91 0 182 0.5t168.5 0.5h134.5h81h16h2q26 0 43 16t15 42v133q-2 26 -20 36t-46 13q-2 0 -45 1.5t-115 3.5t-167 5t-202 6.5t-220 7t-220.5 7t-203.5 6.5t-169 5t-117 3.5t-48 1.5q-32 0 -50 -13t-18 -49q0 -5 -0.5 -46.5t-1 -106.5t-0.5 -146.5 t-0.5 -167t-0.5 -167.5t-0.5 -148t-0.5 -108.5v-49.5v-4q0 -37 18 -57t64 -20h4h68.5t138 0.5t190.5 1t224.5 1.5t240 1.5t238 1t217.5 1.5t179 1.5t122 1t47 0.5q35 3 52.5 16t17.5 39zM1308 1520q0 -11 -7 -19q-3 -4 -27 -33t-59 -70t-75.5 -88.5t-75.5 -89t-60 -71 t-30 -35.5q-14 -17 -39.5 -27t-48.5 -10h-4q-3 0 -30.5 0.5t-59 0.5t-59 0.5t-30.5 0.5q-15 2 -24.5 12.5t-9.5 24.5q0 9 6 19q5 8 26 36.5t50 68.5t62.5 84.5t62 84t49 68t24.5 34.5q14 20 36.5 29.5t41.5 11.5q2 0 19.5 0.5t42 0.5t53 1t54.5 1t45.5 0.5t25.5 0.5h2 q20 0 29.5 -11t9.5 -25z" />
<glyph unicode="&#xea;" horiz-adv-x="1851" d="M1913 -41l-2 111q0 26 -13.5 38.5t-50.5 12.5l-1112 18l6 131q228 3 408 7q77 2 151 3t133 2t96 2t40 1q21 2 37 14t16 43v6q0 10 -1.5 28.5t-3 38.5t-3.5 37.5t-4 24.5q-3 7 -7 15t-11.5 15t-19.5 11.5t-30 5.5q-2 0 -43 1.5t-106.5 4t-148.5 5t-170 5.5q-203 7 -460 15 l11 133q256 0 470 1q91 0 182 0.5t168.5 0.5h134.5h81h16h2q26 0 43 16t15 42v133q-2 26 -20 36t-46 13q-2 0 -45 1.5t-115 3.5t-167 5t-202 6.5t-220 7t-220.5 7t-203.5 6.5t-169 5t-117 3.5t-48 1.5q-32 0 -50 -13t-18 -49q0 -5 -0.5 -46.5t-1 -106.5t-0.5 -146.5 t-0.5 -167t-0.5 -167.5t-0.5 -148t-0.5 -108.5v-49.5v-4q0 -37 18 -57t64 -20h4h68.5t138 0.5t190.5 1t224.5 1.5t240 1.5t238 1t217.5 1.5t179 1.5t122 1t47 0.5q35 3 52.5 16t17.5 39zM1361 1161q0 -12 -9 -22.5t-24 -10.5q-3 -1 -28 -1.5t-55 -1t-55 -1t-28 -0.5 q-20 0 -45 8.5t-39 26.5q-4 4 -20 23l-40 47.5t-53.5 63.5t-58.5 69q-29 -34 -58.5 -69t-53.5 -63.5t-40.5 -47.5t-19.5 -23q-14 -18 -39 -26.5t-47 -8.5q-2 0 -27 0.5t-54.5 1t-55 1t-29.5 1.5q-14 0 -22.5 10.5t-8.5 22.5q0 7 5 15q5 7 24.5 34.5t46.5 64.5t57.5 79 t57.5 78.5t46.5 63t23.5 32.5q12 18 33 27.5t38 9.5h244q17 0 37.5 -7t36.5 -30q4 -6 23 -32.5t46 -63t58 -78.5t58 -79t46.5 -64t24.5 -35q4 -10 4 -15z" />
<glyph unicode="&#xeb;" horiz-adv-x="1851" d="M1913 -41l-2 111q0 26 -13.5 38.5t-50.5 12.5l-1112 18l6 131q228 3 408 7q77 2 151 3t133 2t96 2t40 1q21 2 37 14t16 43v6q0 10 -1.5 28.5t-3 38.5t-3.5 37.5t-4 24.5q-3 7 -7 15t-11.5 15t-19.5 11.5t-30 5.5q-2 0 -43 1.5t-106.5 4t-148.5 5t-170 5.5q-203 7 -460 15 l11 133q256 0 470 1q91 0 182 0.5t168.5 0.5h134.5h81h16h2q26 0 43 16t15 42v133q-2 26 -20 36t-46 13q-2 0 -45 1.5t-115 3.5t-167 5t-202 6.5t-220 7t-220.5 7t-203.5 6.5t-169 5t-117 3.5t-48 1.5q-32 0 -50 -13t-18 -49q0 -5 -0.5 -46.5t-1 -106.5t-0.5 -146.5 t-0.5 -167t-0.5 -167.5t-0.5 -148t-0.5 -108.5v-49.5v-4q0 -37 18 -57t64 -20h4h68.5t138 0.5t190.5 1t224.5 1.5t240 1.5t238 1t217.5 1.5t179 1.5t122 1t47 0.5q35 3 52.5 16t17.5 39zM1396 1185l-4 194q-1 15 -7 29.5t-16.5 25t-25.5 16.5t-33 5h-231q-16 -1 -31 -6 t-27 -14.5t-19.5 -23t-8.5 -30.5l-2 -194q0 -31 22.5 -51.5t56.5 -20.5l230 -4h2q43 0 68.5 23t25.5 51zM864 1185l-4 194q-1 15 -7 29.5t-16.5 25t-25.5 16.5t-33 5h-232q-16 -1 -31 -6t-27 -14.5t-19.5 -23t-8.5 -30.5l-2 -194q0 -31 23 -51.5t57 -20.5l229 -4h2 q44 0 69.5 23t25.5 51z" />
<glyph unicode="&#xec;" horiz-adv-x="692" d="M631 1204q0 60 -76 60q-3 1 -30.5 1.5t-67.5 1t-87 1t-90.5 1t-77.5 1t-48 0.5h-7q-27 -2 -44 -17t-17 -53l-4 -883q0 -32 16 -44.5t52 -12.5q4 0 34 -1.5t73.5 -2.5t94 -2.5t94.5 -2.5t74.5 -2t34.5 -1q7 0 16 2.5t17.5 9t15.5 18t8 29.5q0 4 1 44t2.5 102.5t3.5 141.5 t3.5 160.5t3 160t3 140.5t2 101.5t0.5 42.5v4zM489 1464q0 -14 -10 -24.5t-25 -12.5q-3 0 -30 -0.5t-59 -0.5t-59 -0.5t-30 -0.5h-5q-23 0 -48.5 10t-39.5 27q-5 6 -30 35.5t-60 71t-75.5 89t-75.5 88.5t-59 70t-27 33q-6 9 -6 19q0 14 9.5 25t29.5 11h2q6 0 25.5 -0.5 t45 -0.5t54 -1t53 -1t42 -0.5t19.5 -0.5q19 -2 41.5 -11.5t36.5 -29.5q4 -6 24.5 -34.5t49 -68t62 -84t62.5 -84.5t50 -68.5t26 -36.5q7 -10 7 -19z" />
<glyph unicode="&#xed;" horiz-adv-x="692" d="M631 1204q0 60 -76 60q-3 1 -30.5 1.5t-67.5 1t-87 1t-90.5 1t-77.5 1t-48 0.5h-7q-27 -2 -44 -17t-17 -53l-4 -883q0 -32 16 -44.5t52 -12.5q4 0 34 -1.5t73.5 -2.5t94 -2.5t94.5 -2.5t74.5 -2t34.5 -1q7 0 16 2.5t17.5 9t15.5 18t8 29.5q0 4 1 44t2.5 102.5t3.5 141.5 t3.5 160.5t3 160t3 140.5t2 101.5t0.5 42.5v4zM837 1868q0 -11 -7 -19q-3 -4 -27 -33t-59 -70t-75.5 -88.5t-75.5 -89t-60 -71t-30 -35.5q-14 -17 -39.5 -27t-48.5 -10h-4q-3 0 -30.5 0.5t-59 0.5t-59 0.5t-30.5 0.5q-15 2 -24.5 12.5t-9.5 24.5q0 9 6 19q5 8 26 36.5 t50 68.5t62.5 84.5t62 84t49 68t24.5 34.5q14 20 36.5 29.5t41.5 11.5q2 0 19.5 0.5t42 0.5t53 1t54.5 1t45.5 0.5t25.5 0.5h2q20 0 29.5 -11t9.5 -25z" />
<glyph unicode="&#xee;" horiz-adv-x="692" d="M631 1204q0 60 -76 60q-3 1 -30.5 1.5t-67.5 1t-87 1t-90.5 1t-77.5 1t-48 0.5h-7q-27 -2 -44 -17t-17 -53l-4 -883q0 -32 16 -44.5t52 -12.5q4 0 34 -1.5t73.5 -2.5t94 -2.5t94.5 -2.5t74.5 -2t34.5 -1q7 0 16 2.5t17.5 9t15.5 18t8 29.5q0 4 1 44t2.5 102.5t3.5 141.5 t3.5 160.5t3 160t3 140.5t2 101.5t0.5 42.5v4zM829 1468q0 -12 -9 -22.5t-24 -10.5q-3 -1 -28 -1.5t-55 -1t-55 -1t-28 -0.5q-20 0 -45 8.5t-39 26.5q-4 4 -20 23l-40 47.5t-53.5 63.5t-58.5 69q-29 -34 -58.5 -69t-53.5 -63.5t-40.5 -47.5t-19.5 -23q-14 -18 -39 -26.5 t-47 -8.5q-2 0 -27 0.5t-54.5 1t-55 1t-29.5 1.5q-14 0 -22.5 10.5t-8.5 22.5q0 7 5 15q5 7 24.5 34.5t46.5 64.5t57.5 79t57.5 78.5t46.5 63t23.5 32.5q12 18 33 27.5t38 9.5h244q17 0 37.5 -7t36.5 -30q4 -6 23 -32.5t46 -63t58 -78.5t58 -79t46.5 -64t24.5 -35 q4 -10 4 -15z" />
<glyph unicode="&#xef;" horiz-adv-x="692" d="M631 1204q0 60 -76 60q-3 1 -30.5 1.5t-67.5 1t-87 1t-90.5 1t-77.5 1t-48 0.5h-7q-27 -2 -44 -17t-17 -53l-4 -883q0 -32 16 -44.5t52 -12.5q4 0 34 -1.5t73.5 -2.5t94 -2.5t94.5 -2.5t74.5 -2t34.5 -1q7 0 16 2.5t17.5 9t15.5 18t8 29.5q0 4 1 44t2.5 102.5t3.5 141.5 t3.5 160.5t3 160t3 140.5t2 101.5t0.5 42.5v4zM843 1491l-4 194q-1 15 -7 29.5t-16.5 25t-25.5 16.5t-33 5h-231q-16 -1 -31 -6t-27 -14.5t-19.5 -23t-8.5 -30.5l-2 -194q0 -31 22.5 -51.5t56.5 -20.5l230 -4h2q43 0 68.5 23t25.5 51zM311 1491l-4 194q-1 15 -7 29.5 t-16.5 25t-25.5 16.5t-33 5h-232q-16 -1 -31 -6t-27 -14.5t-19.5 -23t-8.5 -30.5l-2 -194q0 -31 23 -51.5t57 -20.5l229 -4h2q44 0 69.5 23t25.5 51z" />
<glyph unicode="&#xf0;" horiz-adv-x="2003" d="M1962 397v47.5t-0.5 95t-0.5 119t-0.5 119t-0.5 95v47.5q0 66 -24 123t-64.5 104t-95.5 83.5t-118 61.5t-131.5 39t-135.5 15l-1567 28h-2q-34 2 -50 -17t-16 -42l-2 -62v-4q0 -35 20 -48t60 -13l168 -4q32 -1 58.5 -9t45.5 -25t30 -43.5t11 -62.5v-12q0 -6 -1 -53 t-1 -119q-54 2 -100.5 4.5t-82 4t-58 2t-27.5 -0.5h-2q-23 0 -35 -13t-12 -48v-2q-1 -8 -0.5 -34t1 -60t1 -72t1 -70.5t1 -55t0.5 -26.5q2 -23 16 -33t35 -10h6q22 -2 90 -1t164 1q-1 -80 -1.5 -153.5t-0.5 -130t-0.5 -91.5t-1.5 -38q0 -18 3.5 -33.5t13.5 -27t27.5 -17.5 t45.5 -6h13h81t140.5 0.5t178.5 1t195.5 0.5t191.5 0.5t166.5 1t120 0.5h52.5q125 2 233 38.5t188.5 97.5t126.5 140.5t46 167.5zM1421 504v-29q-1 -45 -19.5 -91t-51.5 -83.5t-80.5 -61.5t-108.5 -24h-481l-2 238q96 0 157 1t66 1q22 3 33 13t16 38q1 3 2.5 22.5t4.5 47.5 t5.5 61t5.5 61t4.5 47.5t2.5 22.5v6q2 25 -12 39t-35 14l-254 11l-2 297l504 -9q44 -1 83.5 -15t70 -38t49 -56t20.5 -67q1 -5 2.5 -31.5t4 -66t5 -87l5 -95t4 -91.5t1.5 -75z" />
<glyph unicode="&#xf1;" horiz-adv-x="1872" d="M1810 96v4q0 6 -2 42.5t-4.5 95t-6 135t-7.5 162t-8.5 175t-8.5 174.5t-7.5 160.5t-6 133.5t-4.5 93.5t-2 39.5q-2 23 -14 39t-47 22q-10 2 -37.5 4.5t-64 6t-77 7.5t-77 7.5t-65 6t-40.5 3.5q-2 0 -4.5 1t-5.5 1q-26 0 -42.5 -14.5t-18.5 -42.5q0 -8 -1.5 -47t-4 -97 t-5 -129.5t-5.5 -144.5q-6 -172 -13 -385l-486 463q-3 3 -9 5.5t-17 2.5l-561 4q-34 0 -48 -17.5t-16 -43.5q0 -5 -2 -45.5t-4 -103.5t-5 -141.5t-6 -161t-6 -161.5t-5 -143t-3.5 -106t-1.5 -50q0 -32 13 -45.5t47 -15.5q11 -1 42.5 -2t72.5 -2.5t86.5 -3t86 -2.5t70.5 -2 t39 -1h2q28 0 47 13.5t19 44.5q0 8 -0.5 37t-1 71.5t-1.5 94t-2 103.5q-3 123 -6 275q167 -161 300 -289q57 -55 111.5 -108t98.5 -95t72.5 -69t32.5 -30q12 -10 18 -12.5t17 -2.5q7 0 45 1.5t93 3t118 4t119.5 4.5t98 4t52.5 2q29 2 44 17t15 50zM1162 1589q0 11 -7 16.5 t-13 8.5l-45 18q-14 7 -19 7q-14 0 -24 -19l-23 -49q-15 -35 -44 -55.5t-60 -20.5q-15 0 -49.5 14.5t-79 35.5t-96 46.5t-101.5 46.5t-95 35.5t-77 14.5q-43 0 -78 -15t-64 -40t-52.5 -57.5t-43 -68t-36 -71.5t-31.5 -68q-6 -12 -6 -22q0 -11 7 -16.5t13 -8.5l47 -18 q11 -6 19 -6q13 0 22 18l23 49q15 35 44 55.5t60 20.5q15 0 49 -14t79 -35.5t97.5 -46t103 -46t95.5 -35.5t76 -14q64 0 111 31.5t82.5 78.5t62 103t47.5 105q6 15 6 22z" />
<glyph unicode="&#xf2;" horiz-adv-x="2028" d="M1987 457v379q0 74 -31 139.5t-87.5 115t-134.5 79t-171 30.5l-1112 23h-9q-77 0 -142 -28t-112 -70.5t-73.5 -92t-28.5 -92.5l-14 -467q-2 -67 27.5 -123.5t80.5 -99.5t118.5 -70t141.5 -35q11 -1 64 -3.5t133 -5.5t178.5 -6t201 -6.5t201.5 -6.5t179 -5.5t134 -4 t66 -1.5h7q76 0 145 26.5t122 73.5t84.5 111.5t31.5 139.5zM1436 469q0 -19 -8 -40.5t-23 -40t-37 -30.5t-51 -12h-4l-541 12q-35 1 -58.5 13.5t-38 31t-20.5 40t-6 40.5v406q0 27 10.5 48.5t27 37t36.5 23.5t39 8l538 2q26 0 50 -11.5t43.5 -30t31 -42.5t11.5 -50v-405z M1206 1403q0 -14 -10 -24.5t-25 -12.5q-3 0 -30 -0.5t-59 -0.5t-59 -0.5t-30 -0.5h-5q-23 0 -48.5 10t-39.5 27q-5 6 -30 35.5t-60 71t-75.5 89t-75.5 88.5t-59 70t-27 33q-6 9 -6 19q0 14 9.5 25t29.5 11h2q6 0 25.5 -0.5t45 -0.5t54 -1t53 -1t42 -0.5t19.5 -0.5 q19 -2 41.5 -11.5t36.5 -29.5q4 -6 24.5 -34.5t49 -68t62 -84t62.5 -84.5t50 -68.5t26 -36.5q7 -10 7 -19z" />
<glyph unicode="&#xf3;" horiz-adv-x="2028" d="M1987 457v379q0 74 -31 139.5t-87.5 115t-134.5 79t-171 30.5l-1112 23h-9q-77 0 -142 -28t-112 -70.5t-73.5 -92t-28.5 -92.5l-14 -467q-2 -67 27.5 -123.5t80.5 -99.5t118.5 -70t141.5 -35q11 -1 64 -3.5t133 -5.5t178.5 -6t201 -6.5t201.5 -6.5t179 -5.5t134 -4 t66 -1.5h7q76 0 145 26.5t122 73.5t84.5 111.5t31.5 139.5zM1436 469q0 -19 -8 -40.5t-23 -40t-37 -30.5t-51 -12h-4l-541 12q-35 1 -58.5 13.5t-38 31t-20.5 40t-6 40.5v406q0 27 10.5 48.5t27 37t36.5 23.5t39 8l538 2q26 0 50 -11.5t43.5 -30t31 -42.5t11.5 -50v-405z M1430 1807q0 -11 -7 -19q-3 -4 -27 -33t-59 -70t-75.5 -88.5t-75.5 -89t-60 -71t-30 -35.5q-14 -17 -39.5 -27t-48.5 -10h-4q-3 0 -30.5 0.5t-59 0.5t-59 0.5t-30.5 0.5q-15 2 -24.5 12.5t-9.5 24.5q0 9 6 19q5 8 26 36.5t50 68.5t62.5 84.5t62 84t49 68t24.5 34.5 q14 20 36.5 29.5t41.5 11.5q2 0 19.5 0.5t42 0.5t53 1t54.5 1t45.5 0.5t25.5 0.5h2q20 0 29.5 -11t9.5 -25z" />
<glyph unicode="&#xf4;" horiz-adv-x="2028" d="M1987 457v379q0 74 -31 139.5t-87.5 115t-134.5 79t-171 30.5l-1112 23h-9q-77 0 -142 -28t-112 -70.5t-73.5 -92t-28.5 -92.5l-14 -467q-2 -67 27.5 -123.5t80.5 -99.5t118.5 -70t141.5 -35q11 -1 64 -3.5t133 -5.5t178.5 -6t201 -6.5t201.5 -6.5t179 -5.5t134 -4 t66 -1.5h7q76 0 145 26.5t122 73.5t84.5 111.5t31.5 139.5zM1436 469q0 -19 -8 -40.5t-23 -40t-37 -30.5t-51 -12h-4l-541 12q-35 1 -58.5 13.5t-38 31t-20.5 40t-6 40.5v406q0 27 10.5 48.5t27 37t36.5 23.5t39 8l538 2q26 0 50 -11.5t43.5 -30t31 -42.5t11.5 -50v-405z M1503 1407q0 -12 -9 -22.5t-24 -10.5q-3 -1 -28 -1.5t-55 -1t-55 -1t-28 -0.5q-20 0 -45 8.5t-39 26.5q-4 4 -20 23l-40 47.5t-53.5 63.5t-58.5 69q-29 -34 -58.5 -69t-53.5 -63.5t-40.5 -47.5t-19.5 -23q-14 -18 -39 -26.5t-47 -8.5q-2 0 -27 0.5t-54.5 1t-55 1t-29.5 1.5 q-14 0 -22.5 10.5t-8.5 22.5q0 7 5 15q5 7 24.5 34.5t46.5 64.5t57.5 79t57.5 78.5t46.5 63t23.5 32.5q12 18 33 27.5t38 9.5h244q17 0 37.5 -7t36.5 -30q4 -6 23 -32.5t46 -63t58 -78.5t58 -79t46.5 -64t24.5 -35q4 -10 4 -15z" />
<glyph unicode="&#xf5;" horiz-adv-x="2028" d="M1987 457v379q0 74 -31 139.5t-87.5 115t-134.5 79t-171 30.5l-1112 23h-9q-77 0 -142 -28t-112 -70.5t-73.5 -92t-28.5 -92.5l-14 -467q-2 -67 27.5 -123.5t80.5 -99.5t118.5 -70t141.5 -35q11 -1 64 -3.5t133 -5.5t178.5 -6t201 -6.5t201.5 -6.5t179 -5.5t134 -4 t66 -1.5h7q76 0 145 26.5t122 73.5t84.5 111.5t31.5 139.5zM1436 469q0 -19 -8 -40.5t-23 -40t-37 -30.5t-51 -12h-4l-541 12q-35 1 -58.5 13.5t-38 31t-20.5 40t-6 40.5v406q0 27 10.5 48.5t27 37t36.5 23.5t39 8l538 2q26 0 50 -11.5t43.5 -30t31 -42.5t11.5 -50v-405z M1591 1691q0 11 -7 16.5t-13 8.5l-45 18q-14 7 -19 7q-14 0 -24 -19l-23 -49q-15 -35 -44 -55.5t-60 -20.5q-15 0 -49.5 14.5t-79 35.5t-96 46.5t-101.5 46.5t-95 35.5t-77 14.5q-43 0 -78 -15t-64 -40t-52.5 -57.5t-43 -68t-36 -71.5t-31.5 -68q-6 -12 -6 -22 q0 -11 7 -16.5t13 -8.5l47 -18q11 -6 19 -6q13 0 22 18l23 49q15 35 44 55.5t60 20.5q15 0 49 -14t79 -35.5t97.5 -46t103 -46t95.5 -35.5t76 -14q64 0 111 31.5t82.5 78.5t62 103t47.5 105q6 15 6 22z" />
<glyph unicode="&#xf6;" horiz-adv-x="2028" d="M1987 457v379q0 74 -31 139.5t-87.5 115t-134.5 79t-171 30.5l-1112 23h-9q-77 0 -142 -28t-112 -70.5t-73.5 -92t-28.5 -92.5l-14 -467q-2 -67 27.5 -123.5t80.5 -99.5t118.5 -70t141.5 -35q11 -1 64 -3.5t133 -5.5t178.5 -6t201 -6.5t201.5 -6.5t179 -5.5t134 -4 t66 -1.5h7q76 0 145 26.5t122 73.5t84.5 111.5t31.5 139.5zM1436 469q0 -19 -8 -40.5t-23 -40t-37 -30.5t-51 -12h-4l-541 12q-35 1 -58.5 13.5t-38 31t-20.5 40t-6 40.5v406q0 27 10.5 48.5t27 37t36.5 23.5t39 8l538 2q26 0 50 -11.5t43.5 -30t31 -42.5t11.5 -50v-405z M1517 1430l-4 194q-1 15 -7 29.5t-16.5 25t-25.5 16.5t-33 5h-231q-16 -1 -31 -6t-27 -14.5t-19.5 -23t-8.5 -30.5l-2 -194q0 -31 22.5 -51.5t56.5 -20.5l230 -4h2q43 0 68.5 23t25.5 51zM985 1430l-4 194q-1 15 -7 29.5t-16.5 25t-25.5 16.5t-33 5h-232q-16 -1 -31 -6 t-27 -14.5t-19.5 -23t-8.5 -30.5l-2 -194q0 -31 23 -51.5t57 -20.5l229 -4h2q44 0 69.5 23t25.5 51z" />
<glyph unicode="&#xf7;" horiz-adv-x="1395" d="M901 969l-4 194q-2 31 -24 53.5t-60 22.5h-229q-16 0 -32 -5t-28.5 -15t-20 -23.5t-7.5 -30.5v-194q0 -32 21.5 -52t55.5 -20l232 -4h2q42 0 68 23t26 51zM1313 717q0 48 -49 51q-2 0 -51.5 2t-128.5 5.5t-180 7t-206 7.5t-205.5 8t-179.5 6.5t-127.5 4.5t-50.5 2 q-25 -3 -38 -14.5t-15 -46.5v-2q0 -6 0.5 -27.5t1 -50t1 -60.5t1 -59.5t1.5 -47t1 -22.5q2 -21 16 -31t37 -10h9q19 0 74.5 0.5t134.5 0.5t173.5 1t190.5 1.5t186.5 1.5t161.5 1.5t115 1t47 1.5q25 3 37.5 12t17.5 35q1 3 3 19t4.5 39t5.5 49.5t6 49.5t4.5 40t1.5 20v4z M901 66l-4 194q-2 29 -24 52.5t-60 23.5q-2 2 -12.5 3t-27 1h-37t-41.5 -1q-49 -2 -111 -5q-16 0 -32 -5t-28.5 -14t-20 -22.5t-7.5 -30.5v-194q0 -32 21.5 -52t55.5 -22l232 -2h2q42 0 68 23t26 51z" />
<glyph unicode="&#xf8;" horiz-adv-x="2028" d="M1987 457v379q0 74 -31 139.5t-87.5 115t-134.5 79t-171 30.5l-52 2q9 19 21 45t25.5 54.5t26.5 56.5t23 50.5t16.5 37l6.5 14.5q6 15 6 25q0 15 -12 23t-41 8h-2q-9 0 -39 -0.5t-70 -1t-84.5 -1t-83 -1t-64.5 -1t-30 -0.5q-26 -3 -44.5 -18.5t-30.5 -40.5 q-1 -1 -12.5 -28.5t-27.5 -65t-33.5 -78.5t-29.5 -70l-581 13h-9q-77 1 -142 -27t-112 -70.5t-73.5 -92.5t-28.5 -93l-14 -467q-2 -67 27.5 -123.5t80.5 -99.5t118.5 -70t141.5 -35q10 0 46 -1.5t92 -4.5q-10 -24 -23.5 -55.5t-27.5 -64.5t-27.5 -64.5t-24 -57t-17.5 -41 t-7 -16.5q-2 -8 -3.5 -14.5t-1.5 -11.5q0 -25 35 -31q3 -1 25.5 -3t54.5 -5t69 -6.5t68.5 -6.5t54 -5t25.5 -3h4q29 0 51.5 14.5t36.5 38.5q0 1 9 21t23 50.5t31 67.5t33 72t29.5 64t20.5 43q103 -4 202 -7.5t179.5 -6t134 -4t65.5 -1.5h7q76 -1 145 25.5t122 74t84.5 112 t31.5 139.5zM1436 469q0 -19 -8 -40.5t-23 -40t-37 -30.5t-51 -12h-4l-541 12q-35 1 -58.5 13.5t-38 31t-20.5 40t-6 40.5v406q0 27 10.5 48.5t27 37t36.5 23.5t39 8l538 2q26 0 50 -11.5t43.5 -30t31 -42.5t11.5 -50v-405z" />
<glyph unicode="&#xf9;" horiz-adv-x="1964" d="M1915 449l-6 835q0 31 -15.5 42t-46.5 11l-411 6q-7 0 -16.5 -2.5t-17.5 -8.5t-14 -16.5t-6 -27.5l4 -796q0 -32 -13.5 -64.5t-38 -58.5t-58.5 -42t-76 -16h-4l-393 11q-68 2 -111.5 49t-46.5 125v18q0 20 0.5 51t1 69t1.5 80t2 82q3 95 5 203v2q3 58 -71 58 q-3 0 -29.5 0.5t-65.5 0.5t-86 1t-92 1t-83 0.5t-58 0.5h-18q-25 -2 -41.5 -15t-16.5 -49l-2 -524q0 -53 18 -101.5t49 -90.5t72.5 -77t89 -61t98 -43t99.5 -22q12 -1 52 -3t98.5 -3.5t130.5 -2.5t146 -2.5t146 -2.5t130.5 -1.5t99.5 -1t53 -0.5h17q107 -1 202.5 26t167 78 t113 122.5t41.5 159.5zM1165 1444q0 -14 -10 -24.5t-25 -12.5q-3 0 -30 -0.5t-59 -0.5t-59 -0.5t-30 -0.5h-5q-23 0 -48.5 10t-39.5 27q-5 6 -30 35.5t-60 71t-75.5 89t-75.5 88.5t-59 70t-27 33q-6 9 -6 19q0 14 9.5 25t29.5 11h2q6 0 25.5 -0.5t45 -0.5t54 -1t53 -1 t42 -0.5t19.5 -0.5q19 -2 41.5 -11.5t36.5 -29.5q4 -6 24.5 -34.5t49 -68t62 -84t62.5 -84.5t50 -68.5t26 -36.5q7 -10 7 -19z" />
<glyph unicode="&#xfa;" horiz-adv-x="1964" d="M1915 449l-6 835q0 31 -15.5 42t-46.5 11l-411 6q-7 0 -16.5 -2.5t-17.5 -8.5t-14 -16.5t-6 -27.5l4 -796q0 -32 -13.5 -64.5t-38 -58.5t-58.5 -42t-76 -16h-4l-393 11q-68 2 -111.5 49t-46.5 125v18q0 20 0.5 51t1 69t1.5 80t2 82q3 95 5 203v2q3 58 -71 58 q-3 0 -29.5 0.5t-65.5 0.5t-86 1t-92 1t-83 0.5t-58 0.5h-18q-25 -2 -41.5 -15t-16.5 -49l-2 -524q0 -53 18 -101.5t49 -90.5t72.5 -77t89 -61t98 -43t99.5 -22q12 -1 52 -3t98.5 -3.5t130.5 -2.5t146 -2.5t146 -2.5t130.5 -1.5t99.5 -1t53 -0.5h17q107 -1 202.5 26t167 78 t113 122.5t41.5 159.5zM1471 1889q0 -11 -7 -19q-3 -4 -27 -33t-59 -70t-75.5 -88.5t-75.5 -89t-60 -71t-30 -35.5q-14 -17 -39.5 -27t-48.5 -10h-4q-3 0 -30.5 0.5t-59 0.5t-59 0.5t-30.5 0.5q-15 2 -24.5 12.5t-9.5 24.5q0 9 6 19q5 8 26 36.5t50 68.5t62.5 84.5t62 84 t49 68t24.5 34.5q14 20 36.5 29.5t41.5 11.5q2 0 19.5 0.5t42 0.5t53 1t54.5 1t45.5 0.5t25.5 0.5h2q20 0 29.5 -11t9.5 -25z" />
<glyph unicode="&#xfb;" horiz-adv-x="1964" d="M1915 449l-6 835q0 31 -15.5 42t-46.5 11l-411 6q-7 0 -16.5 -2.5t-17.5 -8.5t-14 -16.5t-6 -27.5l4 -796q0 -32 -13.5 -64.5t-38 -58.5t-58.5 -42t-76 -16h-4l-393 11q-68 2 -111.5 49t-46.5 125v18q0 20 0.5 51t1 69t1.5 80t2 82q3 95 5 203v2q3 58 -71 58 q-3 0 -29.5 0.5t-65.5 0.5t-86 1t-92 1t-83 0.5t-58 0.5h-18q-25 -2 -41.5 -15t-16.5 -49l-2 -524q0 -53 18 -101.5t49 -90.5t72.5 -77t89 -61t98 -43t99.5 -22q12 -1 52 -3t98.5 -3.5t130.5 -2.5t146 -2.5t146 -2.5t130.5 -1.5t99.5 -1t53 -0.5h17q107 -1 202.5 26t167 78 t113 122.5t41.5 159.5zM1443 1509q0 -12 -9 -22.5t-24 -10.5q-3 -1 -28 -1.5t-55 -1t-55 -1t-28 -0.5q-20 0 -45 8.5t-39 26.5q-4 4 -20 23l-40 47.5t-53.5 63.5t-58.5 69q-29 -34 -58.5 -69t-53.5 -63.5t-40.5 -47.5t-19.5 -23q-14 -18 -39 -26.5t-47 -8.5q-2 0 -27 0.5 t-54.5 1t-55 1t-29.5 1.5q-14 0 -22.5 10.5t-8.5 22.5q0 7 5 15q5 7 24.5 34.5t46.5 64.5t57.5 79t57.5 78.5t46.5 63t23.5 32.5q12 18 33 27.5t38 9.5h244q17 0 37.5 -7t36.5 -30q4 -6 23 -32.5t46 -63t58 -78.5t58 -79t46.5 -64t24.5 -35q4 -10 4 -15z" />
<glyph unicode="&#xfc;" horiz-adv-x="1964" d="M1915 449l-6 835q0 31 -15.5 42t-46.5 11l-411 6q-7 0 -16.5 -2.5t-17.5 -8.5t-14 -16.5t-6 -27.5l4 -796q0 -32 -13.5 -64.5t-38 -58.5t-58.5 -42t-76 -16h-4l-393 11q-68 2 -111.5 49t-46.5 125v18q0 20 0.5 51t1 69t1.5 80t2 82q3 95 5 203v2q3 58 -71 58 q-3 0 -29.5 0.5t-65.5 0.5t-86 1t-92 1t-83 0.5t-58 0.5h-18q-25 -2 -41.5 -15t-16.5 -49l-2 -524q0 -53 18 -101.5t49 -90.5t72.5 -77t89 -61t98 -43t99.5 -22q12 -1 52 -3t98.5 -3.5t130.5 -2.5t146 -2.5t146 -2.5t130.5 -1.5t99.5 -1t53 -0.5h17q107 -1 202.5 26t167 78 t113 122.5t41.5 159.5zM1478 1532l-4 194q-1 15 -7 29.5t-16.5 25t-25.5 16.5t-33 5h-231q-16 -1 -31 -6t-27 -14.5t-19.5 -23t-8.5 -30.5l-2 -194q0 -31 22.5 -51.5t56.5 -20.5l230 -4h2q43 0 68.5 23t25.5 51zM946 1532l-4 194q-1 15 -7 29.5t-16.5 25t-25.5 16.5t-33 5 h-232q-16 -1 -31 -6t-27 -14.5t-19.5 -23t-8.5 -30.5l-2 -194q0 -31 23 -51.5t57 -20.5l229 -4h2q44 0 69.5 23t25.5 51z" />
<glyph unicode="&#xfd;" horiz-adv-x="1679" d="M1720 1165q0 20 -17 32.5t-48 12.5h-457q-26 0 -50 -8t-50 -39q-6 -7 -21.5 -26.5t-36.5 -46t-46 -57.5t-49 -63q-57 -74 -126 -163q-79 97 -143 176q-27 34 -54.5 67l-50 60t-38.5 46t-21 24q-19 21 -47 33t-64 12h-29.5t-49 -0.5t-62 -1t-66.5 -1.5q-78 -2 -171 -3 q-28 -4 -46 -19t-18 -37q0 -12 6 -25.5t19 -27.5l577 -651q1 -48 1.5 -100.5t1.5 -104t2 -99t2 -84t1.5 -59.5t1.5 -26q3 -26 14 -39.5t42 -18.5q3 -1 29.5 -3t64 -5t81.5 -6t81.5 -5.5t64 -4.5t29.5 -2h4q60 0 63 51l37 493l621 680q18 23 18 39zM1308 1725q0 -11 -7 -19 q-3 -4 -27 -33t-59 -70t-75.5 -88.5t-75.5 -89t-60 -71t-30 -35.5q-14 -17 -39.5 -27t-48.5 -10h-4q-3 0 -30.5 0.5t-59 0.5t-59 0.5t-30.5 0.5q-15 2 -24.5 12.5t-9.5 24.5q0 9 6 19q5 8 26 36.5t50 68.5t62.5 84.5t62 84t49 68t24.5 34.5q14 20 36.5 29.5t41.5 11.5 q2 0 19.5 0.5t42 0.5t53 1t54.5 1t45.5 0.5t25.5 0.5h2q20 0 29.5 -11t9.5 -25z" />
<glyph unicode="&#xfe;" horiz-adv-x="1898" d="M1858 733q-2 -100 -35.5 -181t-95.5 -137.5t-149.5 -86.5t-197.5 -29l-766 4q2 -87 2 -149v-86v-15q0 -25 -11.5 -40.5t-37.5 -18.5q-3 0 -32 -0.5t-71.5 -0.5t-91.5 -1t-93.5 -1t-77.5 -0.5t-43 -0.5h-4q-41 0 -55 13.5t-17 41.5q0 1 1.5 39.5t3.5 103t5.5 150.5 t7 182.5t7.5 198.5t7.5 198.5t6.5 182.5t5.5 151t4.5 103.5t2 40.5q0 24 16.5 39.5t47.5 15.5h4q2 0 28.5 -2.5t64 -5t81.5 -6t82 -6t64.5 -4.5t29.5 -3q29 -3 40.5 -17t14.5 -40q2 -5 2 -68t2 -165q76 -3 167.5 -6.5t186 -7t185 -6.5t165 -6t126.5 -5t69 -4 q68 -6 120.5 -27.5t91.5 -52t65 -68t42 -75.5t23 -74t7 -64v-4zM1276 721q0 36 -12.5 66t-35 52t-54.5 34t-70 12l-492 6l2 -352h271h90h75t55 0.5t28 1.5q72 9 106.5 53.5t36.5 122.5v4v0z" />
<glyph unicode="&#xff;" horiz-adv-x="1679" d="M1720 1165q0 20 -17 32.5t-48 12.5h-457q-26 0 -50 -8t-50 -39q-6 -7 -21.5 -26.5t-36.5 -46t-46 -57.5t-49 -63q-57 -74 -126 -163q-79 97 -143 176q-27 34 -54.5 67l-50 60t-38.5 46t-21 24q-19 21 -47 33t-64 12h-29.5t-49 -0.5t-62 -1t-66.5 -1.5q-78 -2 -171 -3 q-28 -4 -46 -19t-18 -37q0 -12 6 -25.5t19 -27.5l577 -651q1 -48 1.5 -100.5t1.5 -104t2 -99t2 -84t1.5 -59.5t1.5 -26q3 -26 14 -39.5t42 -18.5q3 -1 29.5 -3t64 -5t81.5 -6t81.5 -5.5t64 -4.5t29.5 -2h4q60 0 63 51l37 493l621 680q18 23 18 39zM1293 1409l-4 194 q-1 15 -7 29.5t-16.5 25t-25.5 16.5t-33 5h-231q-16 -1 -31 -6t-27 -14.5t-19.5 -23t-8.5 -30.5l-2 -194q0 -31 22.5 -51.5t56.5 -20.5l230 -4h2q43 0 68.5 23t25.5 51zM761 1409l-4 194q-1 15 -7 29.5t-16.5 25t-25.5 16.5t-33 5h-232q-16 -1 -31 -6t-27 -14.5t-19.5 -23 t-8.5 -30.5l-2 -194q0 -31 23 -51.5t57 -20.5l229 -4h2q44 0 69.5 23t25.5 51z" />
<glyph unicode="&#x131;" horiz-adv-x="692" d="M631 1204q0 60 -76 60q-3 1 -30.5 1.5t-67.5 1t-87 1t-90.5 1t-77.5 1t-48 0.5h-7q-27 -2 -44 -17t-17 -53l-4 -883q0 -32 16 -44.5t52 -12.5q4 0 34 -1.5t73.5 -2.5t94 -2.5t94.5 -2.5t74.5 -2t34.5 -1q7 0 16 2.5t17.5 9t15.5 18t8 29.5q0 4 1 44t2.5 102.5t3.5 141.5 t3.5 160.5t3 160t3 140.5t2 101.5t0.5 42.5v4z" />
<glyph unicode="&#x141;" horiz-adv-x="797" d="M2107 -197q2 26 -13.5 42t-43.5 16l-1384 43l18 508q71 32 133 60l108.5 49t74 34t28.5 14q20 11 26.5 25.5t-1.5 40.5q0 3 -6.5 21.5t-15.5 45.5t-20 58t-20 58l-15.5 46.5t-6.5 22.5l-2 4q-10 25 -27 32t-39 -1l-201 -82q3 71 5 132t4 106.5t3 72.5t1 29v10 q0 37 -20 57.5t-62 22.5q-7 0 -42 1t-83.5 2.5t-105 3.5t-105 3.5t-83.5 2.5t-42 1h-2q-28 -1 -45 -5t-26 -13t-12 -23.5t-3 -34.5v-4q0 -15 0.5 -70t1 -137.5t2 -186.5t2.5 -218q-70 -28 -131.5 -52.5t-108 -43.5t-76 -31t-34.5 -14l-2 -2q-22 -10 -28.5 -27t7.5 -49l2 -2 q3 -7 14 -30.5t25 -54.5t30.5 -65.5t30.5 -64.5t24 -50.5t12 -23.5q20 -38 63 -19l6 5q14 6 59 26t111 49l4 -485q0 -68 64 -68l1876 -4q35 0 49 11.5t16 42.5z" />
<glyph unicode="&#x142;" horiz-adv-x="1591" d="M1591 184v15q-2 26 -16.5 40.5t-42.5 16.5q-7 0 -48.5 2t-104 5t-139.5 7t-156 8q-186 10 -418 21l16 377q72 32 135 60.5t110.5 50t75.5 34.5t29 15q20 11 26.5 25t-1.5 40q0 3 -6.5 21.5t-15.5 45.5t-20 58t-20 58.5t-15.5 46.5t-6.5 22l-2 4q-10 25 -27 32t-39 -1 l-203 -82l11 227v8q3 77 -82 80q-7 1 -42.5 2t-85.5 2.5t-107 3.5t-106 3.5t-83 2.5t-39 1q-28 0 -45 -4t-26 -12.5t-12 -22t-3 -33.5q0 -5 0.5 -48t1 -112t2 -158.5t2.5 -187.5q-69 -28 -129.5 -53t-107 -43.5t-75.5 -30.5t-34 -14l-2 -2q-22 -10 -28.5 -27t7.5 -49l2 -2 q3 -7 14 -30.5t25 -54.5t30.5 -65.5t30.5 -64.5t24 -50.5t12 -23.5q11 -20 27 -24t36 6l6 4q14 6 57.5 25.5t108.5 48.5l4 -355q0 -65 64 -65l1356 -8h2q35 0 47.5 12t15.5 43q3 29 6.5 70t3.5 79z" />
<glyph unicode="&#x152;" horiz-adv-x="3217" d="M3197 137q0 6 -0.5 25t-1 40.5t-1 40.5t-1.5 25q-1 31 -13 47t-51 17l-1110 22l6 160q227 3 407 6q77 1 151 2.5t133 2.5t96.5 2t40.5 1q22 2 37.5 18t15.5 54q0 8 -1 31t-3 49.5t-4.5 49.5t-5.5 32q-3 20 -16.5 38t-51.5 23q-2 0 -41 2t-101.5 4.5t-141.5 6t-161 6.5 q-193 8 -437 18l8 160l1054 4q25 0 41.5 19.5t18.5 50.5v30q0 16 -0.5 37.5t-0.5 41t-0.5 34.5t-0.5 18q-3 31 -19 44.5t-45 15.5q-2 0 -68 2t-178.5 5.5t-261.5 7.5t-317 9t-346.5 10.5t-349 10.5t-323.5 9.5t-271.5 8t-193 6t-87.5 2.5h-8q-73 1 -137.5 -16.5t-119.5 -49 t-99.5 -73t-76 -90t-50 -100t-21.5 -101.5q-1 -12 -2 -41t-2 -67.5t-1.5 -83.5l-1 -90t-1 -86.5t-0.5 -73.5v-55q3 -79 42 -151t99.5 -126.5t135 -86.5t149.5 -32l2619 3q37 0 53.5 18.5t16.5 52.5zM1446 475q1 -32 -13 -64t-39 -57.5t-60 -41.5t-77 -15l-464 8 q-34 0 -63 13t-50 36t-33 55t-12 70l4 473q1 37 14.5 68.5t36.5 54.5t54 36t67 13l465 4q38 0 68 -15t51 -40.5t32.5 -58.5t12.5 -70z" />
<glyph unicode="&#x153;" horiz-adv-x="3217" d="M3197 137q0 -34 -16.5 -52.5t-53.5 -18.5l-2619 -3q-75 0 -149.5 32t-135 86.5t-99.5 126.5t-42 151v55q0 32 0.5 73.5t1 86.5l1 90t1.5 83.5t2 67.5t2 41q3 50 21.5 101.5t50 100t76 90t99.5 73t119.5 49t137.5 16.5h8q13 0 87.5 -2.5t193 -6t271.5 -8t323.5 -9.5 t349 -10.5t346.5 -10.5t317 -9t261.5 -7.5t178.5 -5.5t68 -2q29 -2 45 -15.5t19 -44.5q0 -3 0.5 -18t0.5 -34.5t0.5 -41t0.5 -37.5v-30q-2 -31 -18.5 -50.5t-41.5 -19.5l-1054 -4l-8 -160q244 -10 437 -18q82 -3 161 -6.5t141.5 -6t101.5 -4.5t41 -2q38 -5 51.5 -23 t16.5 -38q3 -9 5.5 -32t4.5 -49.5t3 -49.5t1 -31q0 -38 -15.5 -54t-37.5 -18q-3 0 -40.5 -1t-96.5 -2t-133 -2.5t-151 -2.5q-180 -3 -407 -6l-6 -160l1110 -22q39 -1 51 -17t13 -47q1 -6 1.5 -25t1 -40.5t1 -40.5t0.5 -25zM1440 944q-1 37 -12.5 70t-32.5 58.5t-51 40.5 t-68 15l-465 -4q-36 0 -67 -13t-54 -36t-36.5 -54.5t-14.5 -68.5l-4 -473q0 -38 12 -70t33 -55t50 -36t63 -13l464 -8q42 -1 77 15t60 41.5t39 57.5t13 64z" />
<glyph unicode="&#x160;" horiz-adv-x="1782" d="M1761 895l-6 149q-3 53 -38.5 111.5t-101 108t-160 81.5t-216.5 33l-594 6q-57 1 -122.5 -8.5t-129.5 -30t-123.5 -52t-104.5 -75.5t-72 -100.5t-27 -126.5q0 -73 32.5 -130t83.5 -98t112.5 -66.5t119.5 -37.5q42 -8 114.5 -20.5t156.5 -26t170.5 -27t156.5 -22.5 q26 -4 53 -12t48.5 -23.5t35.5 -39.5t14 -60q0 -34 -12.5 -56t-31.5 -35.5t-41.5 -19t-41.5 -6.5l-329 -4q-33 -1 -60.5 9.5t-47 27.5t-30.5 39.5t-12 46.5l-2 74q0 54 -59 57l-402 4h-2q-22 0 -31.5 -10.5t-9.5 -42.5v-6q0 -11 0.5 -27.5t1.5 -35t2.5 -38t3.5 -36.5 q7 -65 42.5 -126t94 -107.5t137.5 -74.5t173 -28l737 -4q39 0 86 8t95 25.5t93.5 45.5t81 66.5t57 89.5t21.5 115q0 149 -98.5 237.5t-310.5 122.5q-34 6 -100 18t-145.5 26t-162 28.5t-149.5 24.5q-25 4 -48.5 13.5t-42.5 26.5t-30.5 42.5t-11.5 60.5t13 58t32.5 36.5 t42 19.5t41.5 7q10 1 34.5 1t57 0.5t68.5 1t69 1t59 0.5h37h4q33 0 60.5 -10.5t47 -27.5t30.5 -39t12 -46q1 -5 1 -15v-20.5v-20.5t1 -16q0 -56 61 -59l469 -4q28 0 36.5 12t6.5 37zM1402 1897q0 -5 -1 -8.5t-3 -8.5q-5 -7 -24.5 -34.5t-46.5 -64t-58 -78.5t-58 -78.5 t-46 -63t-23 -33.5q-13 -18 -34 -26.5t-38 -8.5h-244q-17 0 -37.5 7t-35.5 28q-4 7 -23.5 33.5t-46.5 63t-57.5 78.5t-57.5 78.5t-46.5 64t-24.5 34.5q-2 5 -3.5 8.5t-1.5 8.5q0 12 9 21.5t24 11.5q3 1 28 1.5t55 1t55 1t28 0.5q20 0 45 -9t39 -26q4 -4 20.5 -23.5 t40.5 -48.5t53 -63.5t58 -69.5q29 35 58.5 69.5t53.5 63t40.5 48.5t19.5 24q14 17 39 26t47 9q2 0 27 -0.5t54.5 -1t55 -1t29.5 -1.5q14 -2 22.5 -11.5t8.5 -21.5z" />
<glyph unicode="&#x161;" horiz-adv-x="1731" d="M1751 797l-6 131q-4 57 -46 110.5t-112 95t-162 67t-196 26.5l-594 2q-50 1 -112 -6.5t-126.5 -24t-126 -43.5t-109.5 -65.5t-77 -89.5t-29 -117t33 -116.5t84 -87.5t112.5 -59.5t118.5 -33.5q28 -5 70 -12t92.5 -14.5t107.5 -16t114 -16t112 -15t102 -12.5q26 -3 53 -10 t49 -20.5t36 -34.5t14 -52t-12.5 -51t-31.5 -32t-41.5 -16.5t-41.5 -4.5l-330 -7q-33 -1 -60 8.5t-46.5 25.5t-30.5 37t-12 42l-2 64q0 24 -14.5 37.5t-45.5 13.5l-401 4h-2q-22 0 -31.5 -9t-9.5 -38q0 -32 1.5 -64.5t6.5 -64.5q7 -61 42.5 -115.5t94 -95t137.5 -64 t173 -24.5l737 -2q38 0 85 6.5t95.5 22t94 40t81 59.5t57 80.5t21.5 102.5q0 67 -24.5 119.5t-74.5 92t-127.5 66.5t-183.5 43q-22 3 -60 9t-85 13.5t-100.5 16t-107.5 17t-106.5 16t-97.5 14.5q-24 3 -48 11.5t-43 23.5t-30.5 37t-11.5 53q0 32 13.5 52.5t33 33t42 17.5 t40.5 6l330 4q34 0 61.5 -9t47 -24.5t30.5 -35.5t11 -42l2 -63q2 -26 16 -38.5t45 -12.5l471 -6q22 0 32.5 8.5t8.5 36.5zM1382 1753q0 -5 -1 -8.5t-3 -8.5q-5 -7 -24.5 -34.5t-46.5 -64t-58 -78.5t-58 -78.5t-46 -63t-23 -33.5q-13 -18 -34 -26.5t-38 -8.5h-244 q-17 0 -37.5 7t-35.5 28q-4 7 -23.5 33.5t-46.5 63t-57.5 78.5t-57.5 78.5t-46.5 64t-24.5 34.5q-2 5 -3.5 8.5t-1.5 8.5q0 12 9 21.5t24 11.5q3 1 28 1.5t55 1t55 1t28 0.5q20 0 45 -9t39 -26q4 -4 20.5 -23.5t40.5 -48.5t53 -63.5t58 -69.5q29 35 58.5 69.5t53.5 63 t40.5 48.5t19.5 24q14 17 39 26t47 9q2 0 27 -0.5t54.5 -1t55 -1t29.5 -1.5q14 -2 22.5 -11.5t8.5 -21.5z" />
<glyph unicode="&#x178;" horiz-adv-x="1679" d="M1720 1165q0 20 -17 32.5t-48 12.5h-457q-26 0 -50 -8t-50 -39q-6 -7 -21.5 -26.5t-36.5 -46t-46 -57.5t-49 -63q-57 -74 -126 -163q-79 97 -143 176q-27 34 -54.5 67l-50 60t-38.5 46t-21 24q-19 21 -47 33t-64 12h-29.5t-49 -0.5t-62 -1t-66.5 -1.5q-78 -2 -171 -3 q-28 -4 -46 -19t-18 -37q0 -12 6 -25.5t19 -27.5l577 -651q1 -48 1.5 -100.5t1.5 -104t2 -99t2 -84t1.5 -59.5t1.5 -26q3 -26 14 -39.5t42 -18.5q3 -1 29.5 -3t64 -5t81.5 -6t81.5 -5.5t64 -4.5t29.5 -2h4q60 0 63 51l37 493l621 680q18 23 18 39zM1293 1409l-4 194 q-1 15 -7 29.5t-16.5 25t-25.5 16.5t-33 5h-231q-16 -1 -31 -6t-27 -14.5t-19.5 -23t-8.5 -30.5l-2 -194q0 -31 22.5 -51.5t56.5 -20.5l230 -4h2q43 0 68.5 23t25.5 51zM761 1409l-4 194q-1 15 -7 29.5t-16.5 25t-25.5 16.5t-33 5h-232q-16 -1 -31 -6t-27 -14.5t-19.5 -23 t-8.5 -30.5l-2 -194q0 -31 23 -51.5t57 -20.5l229 -4h2q44 0 69.5 23t25.5 51z" />
<glyph unicode="&#x17d;" horiz-adv-x="1739" d="M1759 1106q0 28 -17 51t-59 23h-2q-433 -10 -774 -18q-97 -2 -192.5 -4.5t-182.5 -4.5t-161.5 -4t-130 -3.5t-88 -3t-35.5 -1.5q-25 -5 -41.5 -18t-16.5 -38l7 -131q2 -21 16 -32t45 -13q5 0 40.5 -0.5t89.5 -2t121.5 -2.5t137.5 -3q164 -4 369 -8l-832 -717 q-33 -30 -33 -65q0 -18 7 -34.5t18.5 -29t26.5 -20t30 -7.5h2l1383 52q37 2 50 13t15 42l9 166q0 52 -58 55h-20h-66t-98 -0.5t-117 -1t-124 -0.5q-144 -1 -312 -2l971 709q11 8 16.5 22.5t5.5 30.5zM1382 1712q0 -5 -1 -8.5t-3 -8.5q-5 -7 -24.5 -34.5t-46.5 -64t-58 -78.5 t-58 -78.5t-46 -63t-23 -33.5q-13 -18 -34 -26.5t-38 -8.5h-244q-17 0 -37.5 7t-35.5 28q-4 7 -23.5 33.5t-46.5 63t-57.5 78.5t-57.5 78.5t-46.5 64t-24.5 34.5q-2 5 -3.5 8.5t-1.5 8.5q0 12 9 21.5t24 11.5q3 1 28 1.5t55 1t55 1t28 0.5q20 0 45 -9t39 -26 q4 -4 20.5 -23.5t40.5 -48.5t53 -63.5t58 -69.5q29 35 58.5 69.5t53.5 63t40.5 48.5t19.5 24q14 17 39 26t47 9q2 0 27 -0.5t54.5 -1t55 -1t29.5 -1.5q14 -2 22.5 -11.5t8.5 -21.5z" />
<glyph unicode="&#x17e;" horiz-adv-x="1739" d="M1759 1106q0 28 -17 51t-59 23h-2q-433 -10 -774 -18q-97 -2 -192.5 -4.5t-182.5 -4.5t-161.5 -4t-130 -3.5t-88 -3t-35.5 -1.5q-25 -5 -41.5 -18t-16.5 -38l7 -131q2 -21 16 -32t45 -13q5 0 40.5 -0.5t89.5 -2t121.5 -2.5t137.5 -3q164 -4 369 -8l-832 -717 q-33 -30 -33 -65q0 -18 7 -34.5t18.5 -29t26.5 -20t30 -7.5h2l1383 52q37 2 50 13t15 42l9 166q0 52 -58 55h-20h-66t-98 -0.5t-117 -1t-124 -0.5q-144 -1 -312 -2l971 709q11 8 16.5 22.5t5.5 30.5zM1361 1712q0 -5 -1 -8.5t-3 -8.5q-5 -7 -24.5 -34.5t-46.5 -64t-58 -78.5 t-58 -78.5t-46 -63t-23 -33.5q-13 -18 -34 -26.5t-38 -8.5h-244q-17 0 -37.5 7t-35.5 28q-4 7 -23.5 33.5t-46.5 63t-57.5 78.5t-57.5 78.5t-46.5 64t-24.5 34.5q-2 5 -3.5 8.5t-1.5 8.5q0 12 9 21.5t24 11.5q3 1 28 1.5t55 1t55 1t28 0.5q20 0 45 -9t39 -26 q4 -4 20.5 -23.5t40.5 -48.5t53 -63.5t58 -69.5q29 35 58.5 69.5t53.5 63t40.5 48.5t19.5 24q14 17 39 26t47 9q2 0 27 -0.5t54.5 -1t55 -1t29.5 -1.5q14 -2 22.5 -11.5t8.5 -21.5z" />
<glyph unicode="&#x192;" horiz-adv-x="1087" d="M1151 1417q0 13 -9 23t-40 10h-4q-103 -3 -153 -3.5t-58 -0.5q-82 -1 -167.5 -25t-158.5 -68.5t-124 -107.5t-64 -143l-39 -232l-232 9q-17 -4 -24.5 -12.5t-9.5 -32.5v-3q0 -8 0.5 -34.5t1 -55.5t1 -52.5t1.5 -26.5q0 -17 9 -23t23 -8q5 0 58 1.5t133 4.5l-29.5 -177 t-26 -155.5t-18.5 -111.5t-8 -46q-7 -29 -26 -54.5t-46.5 -44.5t-61 -30t-69.5 -12l-88 -2q-25 -2 -36.5 -15t-14.5 -36l-12 -80q-2 -3 -2 -7v-9q0 -13 9 -23t40 -10h2q105 2 155 3t56 1q83 1 169 25t159 68.5t124 107.5t64 143l80 475l172 6q15 0 24.5 3t18.5 22 q1 2 8.5 21t16 41.5t16 41.5t8.5 21q2 5 2 9v9q0 13 -7 21t-24 8l-200 8q8 56 16 104l14 84t10 57t5 23q6 29 24.5 55.5t45.5 46t61 31t71 11.5h88q25 0 36 13t16 38l12 80q0 3 1 7t1 9z" />
<glyph unicode="&#x2c6;" horiz-adv-x="2056" d="M1483 1120q0 -12 -9 -22.5t-24 -10.5q-3 -1 -28 -1.5t-55 -1t-55 -1t-28 -0.5q-20 0 -45 8.5t-39 26.5q-4 4 -20 23l-40 47.5t-53.5 63.5t-58.5 69q-29 -34 -58.5 -69t-53.5 -63.5t-40.5 -47.5t-19.5 -23q-14 -18 -39 -26.5t-47 -8.5q-2 0 -27 0.5t-54.5 1t-55 1 t-29.5 1.5q-14 0 -22.5 10.5t-8.5 22.5q0 7 5 15q5 7 24.5 34.5t46.5 64.5t57.5 79t57.5 78.5t46.5 63t23.5 32.5q12 18 33 27.5t38 9.5h244q17 0 37.5 -7t36.5 -30q4 -6 23 -32.5t46 -63t58 -78.5t58 -79t46.5 -64t24.5 -35q4 -10 4 -15z" />
<glyph unicode="&#x2c7;" horiz-adv-x="2056" d="M1483 1487q0 -5 -1 -8.5t-3 -8.5q-5 -7 -24.5 -34.5t-46.5 -64t-58 -78.5t-58 -78.5t-46 -63t-23 -33.5q-13 -18 -34 -26.5t-38 -8.5h-244q-17 0 -37.5 7t-35.5 28q-4 7 -23.5 33.5t-46.5 63t-57.5 78.5t-57.5 78.5t-46.5 64t-24.5 34.5q-2 5 -3.5 8.5t-1.5 8.5 q0 12 9 21.5t24 11.5q3 1 28 1.5t55 1t55 1t28 0.5q20 0 45 -9t39 -26q4 -4 20.5 -23.5t40.5 -48.5t53 -63.5t58 -69.5q29 35 58.5 69.5t53.5 63t40.5 48.5t19.5 24q14 17 39 26t47 9q2 0 27 -0.5t54.5 -1t55 -1t29.5 -1.5q14 -2 22.5 -11.5t8.5 -21.5z" />
<glyph unicode="&#x2d8;" horiz-adv-x="2056" d="M1458 1446q0 17 -11 29t-28 12l-112 4q-42 2 -57.5 -7.5t-24.5 -31.5q-4 -12 -16.5 -35t-35.5 -46t-58.5 -40.5t-86.5 -17.5q-50 0 -85.5 17.5t-58.5 41t-35 46.5t-15 34q-4 22 -26.5 31.5t-57.5 7.5l-113 -4q-39 0 -39 -39q0 -5 1 -8t1 -8q2 -10 11.5 -40.5t30.5 -70 t53.5 -82.5t79.5 -79t109 -59.5t142 -23.5q76 0 137 24.5t107.5 61.5t80 81t56 83.5t33.5 68.5t14 36q4 8 4 14z" />
<glyph unicode="&#x2d9;" horiz-adv-x="2056" d="M1231 1225l-4 194q-1 15 -7 29.5t-16.5 25t-25.5 16.5t-33 5h-232q-16 -1 -31 -6t-27 -14.5t-19.5 -23t-8.5 -30.5l-2 -194q0 -31 23 -51.5t57 -20.5l230 -4h2q43 0 68.5 23t25.5 51z" />
<glyph unicode="&#x2da;" horiz-adv-x="2056" d="M1384 1231v168q0 35 -14.5 64.5t-39 52t-57 35.5t-67.5 14l-332 4q-43 0 -79.5 -14t-63.5 -37t-42 -52t-15 -59l-2 -168q-1 -30 14.5 -56.5t39.5 -47t54.5 -32.5t59.5 -13l334 -5q35 -1 72 6.5t67.5 25t50.5 45.5t20 69zM1159 1247q0 -17 -13.5 -29t-35.5 -12l-166 2 q-17 0 -28 10.5t-11 30.5l2 156q0 22 14.5 30.5t28.5 8.5l166 2q20 0 29.5 -14.5t9.5 -28.5z" />
<glyph unicode="&#x2db;" horiz-adv-x="2056" d="M1452 -408q0 13 -2 26.5t-8 29.5q-7 24 -18 39t-24 23.5t-26.5 12t-25.5 3.5q-25 0 -39 -7q-25 -8 -55.5 -16t-62.5 -14.5t-65 -10.5t-65 -4q-34 0 -66 5t-57 18.5t-40 38t-15 63.5q0 43 14.5 93t32.5 92q21 49 47 98h-215q-44 -45 -79 -99q-30 -46 -54.5 -105.5 t-24.5 -125.5q0 -84 35 -143t92 -96.5t128.5 -54.5t144.5 -17q56 0 112 7t106.5 16.5t93.5 21t73 20.5q24 8 43.5 28t19.5 58z" />
<glyph unicode="&#x2dc;" horiz-adv-x="2056" d="M1550 1466q0 11 -7 16.5t-13 8.5l-45 18q-14 7 -19 7q-14 0 -24 -19l-23 -49q-15 -35 -44 -55.5t-60 -20.5q-15 0 -49.5 14.5t-79 35.5t-96 46.5t-101.5 46.5t-95 35.5t-77 14.5q-43 0 -78 -15t-64 -40t-52.5 -57.5t-43 -68t-36 -71.5t-31.5 -68q-6 -12 -6 -22 q0 -11 7 -16.5t13 -8.5l47 -18q11 -6 19 -6q13 0 22 18l23 49q15 35 44 55.5t60 20.5q15 0 49 -14t79 -35.5t97.5 -46t103 -46t95.5 -35.5t76 -14q64 0 111 31.5t82.5 78.5t62 103t47.5 105q6 15 6 22z" />
<glyph unicode="&#x2dd;" horiz-adv-x="2056" d="M1573 1520q0 14 -9.5 25t-29.5 11h-2q-6 0 -25.5 -0.5t-45.5 -0.5t-54.5 -1t-53 -1t-41.5 -0.5t-20 -0.5q-18 -2 -41 -11.5t-37 -29.5q-4 -6 -24.5 -34.5t-49 -68t-61.5 -84t-62 -84.5t-50.5 -68.5t-26.5 -36.5q-6 -10 -6 -19q0 -14 9.5 -24.5t25.5 -12.5q3 0 30 -0.5 t59 -0.5t59 -0.5t30 -0.5h4q23 0 48.5 10t39.5 27q3 4 18.5 22.5t38.5 45.5t51.5 60t57.5 67.5t57 67.5t50.5 59.5t37.5 44t17 20.5q6 9 6 19zM1122 1520q0 14 -9.5 25t-29.5 11h-2q-6 0 -25.5 -0.5t-45 -0.5t-54 -1t-53 -1t-42 -0.5t-19.5 -0.5q-19 -2 -41.5 -11.5 t-36.5 -29.5q-4 -6 -24.5 -34.5t-49.5 -68t-62 -84t-62 -84.5t-50.5 -68.5t-26.5 -36.5q-6 -10 -6 -19q0 -14 10 -24.5t25 -12.5q3 0 30 -0.5t59 -0.5t59 -0.5t30 -0.5h4q23 0 48.5 10t39.5 27q5 6 30 35.5t60.5 71t76 89t75.5 88.5t59 70t27 33q6 9 6 19z" />
<glyph unicode="&#x3c0;" />
<glyph unicode="&#x2013;" horiz-adv-x="1188" d="M1106 694q0 26 -13 40t-34 14q-1 0 -40 2t-101.5 5t-142.5 6.5t-164.5 8t-166 8t-148 6.5t-110.5 5t-53 2h-2q-23 -2 -35 -14.5t-14 -47.5v-2q0 -8 0.5 -34t1 -60t1 -71.5t1 -70t1.5 -55t1 -26.5q2 -23 15 -33t34 -10h8q18 0 64.5 0.5t111.5 0.5t142 1t154.5 1.5t151 1 t131 1.5t93.5 1.5t39 0.5q22 3 33 13t16 38q0 3 1.5 22.5t4.5 47.5t6 61t5.5 61t5 47.5t2.5 22.5v6z" />
<glyph unicode="&#x2014;" horiz-adv-x="2212" d="M2130 694q0 26 -13 40t-34 14q-1 0 -55 1t-146 3.5t-214.5 5t-260.5 5.5t-284 6.5t-285.5 6.5t-264 5.5t-220 5t-154.5 3.5t-66 1h-2q-23 -2 -35 -14.5t-14 -47.5v-2q0 -8 0.5 -34t1 -60t1 -71.5t1 -70t1.5 -55t1 -26.5q2 -23 15 -33t34 -10h8h76t157.5 0.5t218 1 t257.5 1t275.5 1t273.5 1t250.5 1t206 1t141 1t55.5 0.5q22 3 33 13t16 38q0 3 1.5 22.5t4.5 47.5t6 61t5.5 61t5 47.5t2.5 22.5v6z" />
<glyph unicode="&#x2018;" horiz-adv-x="649" d="M567 1069v14q-2 31 -24 51.5t-56 20.5l-168 2q-20 0 -20 33q0 17 4.5 39t11.5 47t15.5 50t15.5 48q6 15 6 25q0 17 -9.5 27t-25.5 10q-8 0 -16.5 -3.5t-17.5 -11.5q-33 -23 -69 -57.5t-65.5 -78t-48.5 -94t-18 -106.5l4 -194q0 -31 21.5 -53.5t58.5 -22.5l315 2 q15 0 30 5t27 14t19.5 22.5t7.5 30.5q0 4 0.5 26t0.5 50.5t0.5 57t0.5 46.5z" />
<glyph unicode="&#x2019;" horiz-adv-x="649" d="M567 1165l-4 195q0 29 -22 52.5t-60 23.5l-313 -2q-15 0 -30 -5t-27 -14t-19.5 -22.5t-7.5 -30.5q0 -4 -0.5 -26t-0.5 -50.5t-0.5 -57t-0.5 -46.5v-15q2 -31 24 -51t56 -20l168 -2q11 0 14.5 -10t3.5 -25q0 -16 -4 -38.5t-11 -47t-15 -50.5t-17 -49q-2 -6 -3 -12t-1 -12 q0 -17 9.5 -26t23.5 -9q18 0 37 12q33 24 68.5 59t65 78.5t48.5 94.5t18 106z" />
<glyph unicode="&#x201a;" horiz-adv-x="649" d="M567 66l-4 194q0 29 -22 52.5t-60 23.5l-313 -2q-15 0 -30 -5t-27 -14t-19.5 -22.5t-7.5 -30.5q0 -4 -0.5 -26t-0.5 -50.5t-0.5 -57t-0.5 -46.5v-14q2 -32 24 -52t56 -22l168 -2q11 0 14.5 -8.5t3.5 -24.5t-4 -38.5t-11 -47t-15 -50t-17 -48.5q-2 -6 -3 -12.5t-1 -12.5 q0 -17 9.5 -26t23.5 -9q18 0 37 13q33 24 68.5 59t65 78.5t48.5 94.5t18 106z" />
<glyph unicode="&#x201c;" horiz-adv-x="1202" d="M1120 1069v14q-2 31 -24 51.5t-56 20.5l-168 2q-20 0 -20 33q0 17 4.5 39t11.5 47t15.5 50t15.5 48q6 15 6 25q0 17 -9.5 27t-25.5 10q-8 0 -16.5 -3.5t-17.5 -11.5q-33 -23 -69 -57.5t-65.5 -78t-48.5 -94t-18 -106.5l4 -194q0 -31 21.5 -53.5t58.5 -22.5l315 2 q15 0 30 5t27 14t19.5 22.5t7.5 30.5q0 4 0.5 26t0.5 50.5t0.5 57t0.5 46.5zM567 1069v14q-2 31 -24 51.5t-56 20.5l-168 2q-20 0 -20 33q0 17 4.5 39t11.5 47t15.5 50t15.5 48q6 15 6 25q0 17 -9.5 27t-25.5 10q-8 0 -16.5 -3.5t-17.5 -11.5q-33 -23 -69 -57.5t-65.5 -78 t-48.5 -94t-18 -106.5l4 -194q0 -31 21.5 -53.5t58.5 -22.5l315 2q15 0 30 5t27 14t19.5 22.5t7.5 30.5q0 4 0.5 26t0.5 50.5t0.5 57t0.5 46.5z" />
<glyph unicode="&#x201d;" horiz-adv-x="1202" d="M1120 1165l-4 195q0 29 -22 52.5t-60 23.5l-313 -2q-15 0 -30 -5t-27 -14t-19.5 -22.5t-7.5 -30.5q0 -4 -0.5 -26t-0.5 -50.5t-0.5 -57t-0.5 -46.5v-15q2 -31 24 -51t56 -20l168 -2q11 0 14.5 -10t3.5 -25q0 -16 -4 -38.5t-11 -47t-15 -50.5t-17 -49q-2 -6 -3 -12t-1 -12 q0 -17 9.5 -26t23.5 -9q18 0 37 12q33 24 68.5 59t65 78.5t48.5 94.5t18 106zM567 1165l-4 195q0 29 -22 52.5t-60 23.5l-313 -2q-15 0 -30 -5t-27 -14t-19.5 -22.5t-7.5 -30.5q0 -4 -0.5 -26t-0.5 -50.5t-0.5 -57t-0.5 -46.5v-15q2 -31 24 -51t56 -20l168 -2q11 0 14.5 -10 t3.5 -25q0 -16 -4 -38.5t-11 -47t-15 -50.5t-17 -49q-2 -6 -3 -12t-1 -12q0 -17 9.5 -26t23.5 -9q18 0 37 12q33 24 68.5 59t65 78.5t48.5 94.5t18 106z" />
<glyph unicode="&#x201e;" horiz-adv-x="1202" d="M1120 66l-4 194q0 29 -22 52.5t-60 23.5l-313 -2q-15 0 -30 -5t-27 -14t-19.5 -22.5t-7.5 -30.5q0 -4 -0.5 -26t-0.5 -50.5t-0.5 -57t-0.5 -46.5v-14q2 -32 24 -52t56 -22l168 -2q11 0 14.5 -8.5t3.5 -24.5t-4 -38.5t-11 -47t-15 -50t-17 -48.5q-2 -6 -3 -12.5t-1 -12.5 q0 -17 9.5 -26t23.5 -9q18 0 37 13q33 24 68.5 59t65 78.5t48.5 94.5t18 106zM567 66l-4 194q0 29 -22 52.5t-60 23.5l-313 -2q-15 0 -30 -5t-27 -14t-19.5 -22.5t-7.5 -30.5q0 -4 -0.5 -26t-0.5 -50.5t-0.5 -57t-0.5 -46.5v-14q2 -32 24 -52t56 -22l168 -2q11 0 14.5 -8.5 t3.5 -24.5t-4 -38.5t-11 -47t-15 -50t-17 -48.5q-2 -6 -3 -12.5t-1 -12.5q0 -17 9.5 -26t23.5 -9q18 0 37 13q33 24 68.5 59t65 78.5t48.5 94.5t18 106z" />
<glyph unicode="&#x2020;" horiz-adv-x="1290" d="M1231 1028q0 52 -43 55l-334 13l12 305q-3 22 -13.5 32.5t-41.5 10.5l-326 -4q-21 0 -29 -13.5t-10 -31.5v-2q0 -5 0.5 -27.5t1.5 -59t1.5 -86.5t1.5 -110q-66 3 -123.5 5t-101 3t-70 1.5t-31.5 0.5q-20 0 -30.5 -11.5t-12.5 -43.5v-2q0 -7 0.5 -26.5t1 -45t1 -53.5 t1 -52.5t1.5 -41t1 -19.5q0 -40 43 -37h322q2 -120 3.5 -245.5t3 -244.5t3 -225t2.5 -186t1.5 -127.5t0.5 -50.5q3 -18 12 -29t31 -14q3 0 21 -1.5t43 -3.5t54 -5t54 -5t42 -3.5t19 -1.5h5q47 0 47 41l45 1104q67 1 125 1.5t101 1t69 1t28 0.5q20 3 30 11.5t15 31.5 q1 3 2.5 17t4 34.5t5 44t5 44t4.5 34.5t2 16z" />
<glyph unicode="&#x2021;" horiz-adv-x="1296" d="M1235 1034q0 46 -41 49l-334 13l10 305q0 22 -11 32.5t-42 10.5l-325 -4q-20 0 -28.5 -13.5t-10.5 -31.5v-2q0 -5 0.5 -27.5t1 -59t1 -86.5t1.5 -110q-66 3 -123.5 5t-101 3t-69.5 1.5t-30 0.5q-22 0 -32.5 -11.5t-10.5 -43.5v-2v-27t0.5 -45.5t0.5 -53.5t0.5 -52 t0.5 -40.5v-19.5q2 -20 14.5 -29.5t30.5 -7.5h324l2 -137q-65 -1 -122 -1.5t-99.5 -0.5t-67.5 -0.5t-27 -1.5q-20 -3 -31 -11.5t-14 -31.5q0 -2 -1.5 -16.5t-3.5 -35t-5 -44t-5 -44t-3.5 -34.5t-1.5 -16v-6q0 -45 39 -48l344 -14q2 -127 3 -241t2.5 -201t2.5 -139.5t2 -55.5 q3 -18 10.5 -29t32.5 -14q2 0 19.5 -1.5t42.5 -3.5t54 -5t54.5 -5t43 -3.5t20.5 -1.5h2q23 0 36 10.5t13 30.5l26 647q72 -3 135 -5t111 -3.5t77 -2.5t32 -1h2q20 0 30.5 11.5t12.5 43.5v2q0 7 -0.5 26.5t-1 45t-1 53.5t-1 52t-1.5 40.5t-1 19.5q0 20 -12.5 28.5t-30.5 8.5 h-338l6 138q66 1 124 1.5t101.5 1t69.5 1t28 0.5q19 3 29.5 11.5t13.5 31.5q0 3 1.5 17.5t4 35t5 44t5 43.5t4 34t1.5 16v6z" />
<glyph unicode="&#x2022;" horiz-adv-x="682" d="M600 537l-6 247q-2 39 -28.5 68t-76.5 29h-296q-20 0 -39.5 -6.5t-35 -18.5t-25 -29t-9.5 -39l-2 -249q0 -41 28.5 -66t71.5 -27l295 -4h2q27 0 49.5 8.5t38 22t24.5 30.5t9 34z" />
<glyph unicode="&#x2026;" horiz-adv-x="1960" d="M1878 88q0 43 -1 86t-3 86q-2 34 -26 55t-58 21l-311 -2q-15 0 -30.5 -5t-28 -14t-20 -22.5t-7.5 -30.5v-168q0 -21 3 -38.5t11.5 -31t23.5 -21.5t39 -9l312 -2q46 -2 71 24t25 72zM1223 88q0 43 -1 86t-3 86q-2 34 -26 55t-58 21l-312 -2q-15 0 -30.5 -5t-28 -14 t-20 -22.5t-7.5 -30.5v-168q0 -21 3.5 -38.5t12 -31t23.5 -21.5t39 -9l311 -2q47 -2 72 24t25 72zM567 88q0 43 -1 86t-3 86q-2 34 -26 55t-58 21l-311 -2q-15 0 -30.5 -5t-28 -14t-20 -22.5t-7.5 -30.5v-168q0 -42 15 -70t63 -30l311 -2q46 -2 71 24t25 72z" />
<glyph unicode="&#x2030;" horiz-adv-x="3373" d="M3312 225v232q0 48 -20.5 89.5t-54.5 72.5t-79 49t-94 18l-461 6h-4q-58 0 -108.5 -19t-87.5 -50.5t-58.5 -71t-22.5 -80.5l-4 -233q0 -42 21.5 -80t55.5 -66.5t76 -45t83 -17.5l465 -6q47 -1 98.5 9.5t95 34.5t71.5 63t28 95zM2263 225v232q0 48 -20.5 89.5t-54.5 72.5 t-79 49t-94 18l-461 6h-4q-58 0 -108 -19t-87 -50.5t-58.5 -71t-22.5 -80.5l-4 -233q0 -42 21.5 -80t55.5 -66.5t76 -45t82 -17.5l465 -6q47 -1 98.5 9.5t95 34.5t71.5 63t28 95zM1935 1348q0 13 -6 21.5t-15 13.5t-20 7t-22 1l-201 -2q-37 -2 -65 -21.5t-45 -38.5 l-1092 -1216q-18 -19 -18 -45q0 -22 16.5 -33.5t36.5 -11.5h139q21 0 36 2t27 7.5t23 14.5t25 23l1159 1230q6 8 14 21t8 27zM1055 924v231q0 48 -20.5 90t-55 73t-79.5 49t-95 19l-461 5h-4q-58 0 -107.5 -19.5t-86.5 -51t-58 -71t-22 -80.5l-5 -231q-1 -43 20.5 -81 t55.5 -66.5t76 -45t82 -16.5l465 -8q47 -1 99 9.5t95.5 35t72 63.5t28.5 95zM2998 248q0 -22 -18 -41.5t-49 -18.5l-232 5q-23 2 -38 16t-15 39l2 219q0 14 6 24t15 16.5t20 9.5t21 3l229 2q29 0 42 -19.5t13 -39.5zM1950 248q0 -22 -18.5 -41.5t-49.5 -18.5l-231 5 q-23 2 -38.5 16t-15.5 39l2 219q0 14 6 24t15 16.5t20 9.5t21 3l229 2q29 0 42.5 -19.5t13.5 -39.5zM741 946q0 -10 -5 -21t-14 -19.5t-22 -14t-28 -4.5l-230 6q-23 0 -39 14.5t-16 40.5l2 217q0 14 6 24.5t15.5 17.5t20.5 10.5t20 3.5l231 2q28 0 41.5 -20t13.5 -40z" />
<glyph unicode="&#x2039;" horiz-adv-x="631" d="M549 291v-16.5t-0.5 -35.5t-0.5 -44.5t-0.5 -44.5t-0.5 -35.5v-16.5q-2 -18 -13.5 -28.5t-25.5 -10.5q-9 0 -19 7q-8 5 -39.5 27.5t-74.5 54t-91.5 67.5t-91 67.5t-73 54.5t-37.5 28q-22 14 -31.5 38t-9.5 46v284q0 28 9.5 49.5t31.5 36.5q5 4 24 17.5t47 34t61.5 45.5 t69 51t69.5 51.5t62 46t48 35t26 18.5q5 2 9.5 3t9.5 1q14 0 25.5 -10t13.5 -27v-17.5t0.5 -35.5t0.5 -44.5t0.5 -44t0.5 -34.5v-16v-6q0 -23 -9 -51t-28 -43q-5 -4 -28 -23t-56 -47t-73.5 -62t-80.5 -69q40 -34 80.5 -68.5t73.5 -63t56 -47.5t28 -24q19 -15 28 -42t9 -52 v-4z" />
<glyph unicode="&#x203a;" horiz-adv-x="631" d="M590 449q0 -22 -9.5 -46t-31.5 -38q-7 -5 -37.5 -28t-73 -54.5t-91 -67.5t-91.5 -67.5t-74.5 -54t-40.5 -27.5q-8 -7 -18 -7q-14 0 -25.5 10.5t-13.5 28.5v16.5t-0.5 35.5t-0.5 44.5t-0.5 44.5t-0.5 35.5v16.5v4q0 25 10 52t29 42q5 5 27 24l55 47.5t73 63t80 68.5 q-40 35 -80 69t-73 62t-55 47t-27 23q-19 15 -29 43t-10 51v6v16t0.5 34.5t0.5 44t0.5 44.5t0.5 36v17q2 17 13.5 27t25.5 10q5 0 9 -1t9 -3q9 -6 40.5 -28.5t74.5 -54.5t91.5 -68t91 -67t73 -53.5t37.5 -27.5q22 -15 31.5 -36.5t9.5 -49.5v-284v0z" />
<glyph unicode="&#x2044;" horiz-adv-x="1366" d="M1284 1374q0 -14 -5.5 -25.5t-8.5 -17.5q-1 -2 -25.5 -35t-65 -89.5t-94.5 -131.5t-115.5 -160t-126.5 -175t-127.5 -177t-119.5 -166t-102 -141.5t-75 -104t-38 -53.5q-10 -14 -19 -23.5t-20.5 -15t-25.5 -8t-35 -2.5h-140q-24 0 -41.5 13.5t-17.5 39.5q0 17 10 37 q17 25 50.5 74.5t78 115t97 143.5t109 161.5t114 168t111 163.5t100.5 148.5t82.5 121.5t57 84t23.5 35q43 58 101 61l203 6q23 0 44 -10.5t21 -36.5z" />
<glyph unicode="&#x20ac;" horiz-adv-x="1655" d="M1567 430q-2 -52 -36 -101t-85 -87t-111.5 -61t-115.5 -23h-5q-11 0 -42 1t-75.5 2t-98 2t-108.5 2t-107.5 2t-95 2t-71.5 2t-36 1q-69 5 -125 39t-95.5 82t-62 102t-25.5 99l-161 -2q-24 0 -27 22q0 2 -0.5 22t-0.5 43.5t-0.5 43.5t-0.5 22q0 17 6 24t18 9l177 -4l6 90 l-183 4q-11 2 -17.5 8t-6.5 19v4q0 2 1.5 17t3.5 33t4 33.5t3 18.5q3 14 9.5 18.5t17.5 6.5q2 0 53 1t131 1l6 55q7 71 43.5 128t87 97.5t106.5 62.5t103 21l596 -6q65 0 123.5 -28t102 -71.5t69 -95.5t25.5 -100v-92q0 -32 -8.5 -42.5t-26.5 -10.5h-2l-297 4q-45 3 -45 51 v37q0 21 -8 40.5t-23 34.5t-36.5 24.5t-47.5 9.5h-4q-9 0 -29.5 -0.5t-47.5 -1t-56.5 -1t-56 -1t-46.5 -1t-28 -0.5q-15 -1 -32 -9t-33 -22.5t-28 -35t-16 -47.5h139.5h117.5t82 -0.5t32 -1.5q20 -7 20 -21v-4t-2 -4q-1 -2 -5.5 -21.5t-9.5 -42t-9.5 -41t-5.5 -20.5 q-5 -15 -10 -21t-13 -6h-10l-330 9v-88q62 -1 117.5 -3t97.5 -3t66.5 -2t25.5 -1q19 -6 19 -22q0 -8 -2 -12q-1 -3 -7 -17.5t-12.5 -31.5t-12.5 -31.5t-7 -16.5q-5 -11 -10 -14.5t-15 -3.5h-6q-1 0 -21 -0.5t-54.5 -1t-80.5 -1t-98 -1.5q11 -47 41 -79t78 -32l272 -2 q26 0 45 9t31.5 22t19.5 28.5t9 28.5q2 14 3 38t3 42q3 22 16.5 31.5t22.5 9.5l291 -6q24 -2 36.5 -17t12.5 -30z" />
<glyph unicode="&#x2122;" horiz-adv-x="2185" d="M2105 774q0 3 -1.5 28t-4.5 64.5t-6.5 89t-7 101t-7 101t-6.5 88.5t-4.5 63.5t-1.5 25.5q-2 19 -12.5 24t-19.5 7q-3 0 -23.5 0.5t-49.5 2t-62.5 2.5t-62.5 2.5t-49.5 2t-23.5 0.5q-11 0 -15.5 -3.5t-12.5 -12.5l-275 -354q-57 105 -103 188q-19 35 -38 69t-33.5 61 t-23.5 43.5l-9 16.5q-3 10 -10 13.5t-22 3.5l-1145 22h-2q-14 0 -22.5 -8t-8.5 -20q0 -3 -0.5 -15t-0.5 -25.5t-0.5 -25.5t-0.5 -16q2 -14 7 -22.5t18 -8.5q3 0 24 -1t51.5 -2.5t65 -2.5t65 -2.5t52.5 -2.5t26 -1q19 -1 35 -9t28 -20t18.5 -27.5t6.5 -31.5q0 -11 -1.5 -47 t-4 -83.5t-5 -101t-5 -98.5t-4.5 -75.5t-2 -33.5q0 -32 26 -32h20.5t42.5 0.5t53 0.5t52 0.5t41 0.5h19q17 0 25 7.5t10 27.5v26t0.5 61.5t1 85t0.5 96.5q1 115 2 261h155q15 -3 27 -11.5t20.5 -20t13 -24t5.5 -24.5v-8q0 -15 -0.5 -48.5t-1 -74t-1.5 -84.5t-1.5 -80.5 t-1 -60.5t-0.5 -27v-6q0 -39 34 -39l181 2q18 0 27.5 9.5t9.5 25.5l-2 342l176 -311q8 -14 14 -19.5t20 -7.5q2 0 15 -0.5t31.5 -1.5t39 -2t39 -2.5t31 -2t14.5 -1.5h7q22 0 30 14l221 315q3 -101 6 -182q1 -34 2 -67.5t2 -60.5t2 -44t1 -20q0 -11 6.5 -23t23.5 -12h5 q3 1 19.5 2t40 2.5t50 3t50 3t39.5 2.5t18 1q12 2 20 11.5t8 27.5z" />
<glyph unicode="&#x2126;" />
<glyph unicode="&#x2202;" />
<glyph unicode="&#x2206;" />
<glyph unicode="&#x220f;" />
<glyph unicode="&#x2211;" />
<glyph unicode="&#x2212;" horiz-adv-x="1313" d="M1231 694q0 26 -13 40t-34 14q-1 0 -30.5 1t-78.5 3.5t-114 5t-138 5.5t-150.5 6.5t-152 6.5t-141.5 5.5t-119.5 5t-86 3.5t-40.5 1h-2q-23 -2 -35 -14.5t-14 -47.5v-2q0 -8 0.5 -34t1 -60t1 -71.5t1 -70t1.5 -55t1 -26.5q2 -23 15 -33t34 -10h8q18 0 70 0.5t125.5 0.5 t161.5 1t177.5 1.5t174 1t150.5 1.5t107 1.5t44 0.5q23 3 34.5 13t14.5 38q1 3 3 22.5t4.5 47.5t6 61t6 61t5 47.5t2.5 22.5v6z" />
<glyph unicode="&#x221a;" />
<glyph unicode="&#x221e;" />
<glyph unicode="&#x222b;" />
<glyph unicode="&#x2248;" />
<glyph unicode="&#x2260;" />
<glyph unicode="&#x2264;" />
<glyph unicode="&#x2265;" />
<glyph unicode="&#x25ca;" />
<glyph unicode="&#x25fc;" horiz-adv-x="1165" d="M0 1165h1165v-1165h-1165v1165z" />
<glyph unicode="&#xf8ff;" />
<glyph unicode="&#xfb01;" horiz-adv-x="2126" d="M2095 1290l-10 166q-3 31 -17 42t-49 11l-1876 31h-2q-59 3 -59 -61q0 -358 1 -643q0 -81 0.5 -161t0.5 -153t0.5 -136t0.5 -110.5t0.5 -76t0.5 -33.5q0 -20 3 -34.5t12.5 -23.5t27 -13.5t45.5 -4.5h6h36.5t60 0.5t74 1t79.5 1.5q93 2 205 3q18 0 33.5 4.5t26.5 14.5 t17 26.5t5 40.5l-12 436l540 44q25 2 41 16t14 39l-8 131q0 22 -14.5 32.5t-46.5 12.5l-604 12l-6 314l1419 16q26 0 41.5 14.5t13.5 40.5zM2065 980q0 60 -76 60q-3 1 -30.5 1.5t-67.5 1t-87 1t-90.5 1t-77.5 1t-48 0.5h-7q-27 -2 -44 -17t-17 -53l-4 -883q0 -32 16 -44.5 t52 -12.5q4 0 34 -1.5t73.5 -2.5t94 -2.5t94.5 -2.5t74.5 -2t34.5 -1q7 0 16 2.5t17.5 9t15.5 18t8 29.5q0 4 1 44t2.5 102.5t3.5 141.5t3.5 160.5t3 160t3 140.5t2 101.5t0.5 42.5v4z" />
<glyph unicode="&#xfb02;" horiz-adv-x="3240" d="M1649 1251l-7 168q-2 34 -22 45t-51 13q-6 0 -45.5 1t-104 2.5t-148.5 3t-179 3.5t-195 4t-197 3.5t-185 3t-158.5 3t-118.5 2t-64 0.5h-6q-28 -1 -45 -5t-26 -13t-11.5 -22.5t-3.5 -32.5v-5v-44t0.5 -83t1.5 -114.5t1.5 -137t1.5 -151t2 -157.5q4 -278 7 -621 q0 -64 62 -64h2q107 0 194 1q37 0 73.5 0.5t67 1t52 1t28.5 0.5q28 2 40.5 17t15.5 47q1 5 1.5 41t0.5 86.5v108v106.5v117l606 10q58 0 61 43l7 129q0 25 -16.5 39.5t-41.5 17.5q-4 1 -30 3t-65 5.5t-87 7.5t-98 8q-117 10 -262 21l4 285q234 9 422 17q80 3 158 6.5 t141 5.5t104.5 4t48.5 2q38 3 51 19t13 48zM3240 184v15q-2 26 -16.5 40.5t-42.5 16.5q-7 0 -48.5 2t-104 5t-139.5 7t-156 8q-186 10 -418 21l47 1034v8q0 77 -82 80q-7 1 -42.5 2t-85.5 2.5t-107 3.5t-106 3.5t-83 2.5t-39 1q-28 0 -45 -4t-26 -12.5t-12 -22t-3 -33.5v-33 t0.5 -76.5t1.5 -110.5t1.5 -136t1.5 -152.5t2 -160.5q4 -284 7 -642q0 -65 64 -65l1356 -8h2q35 0 47.5 12t15.5 43q3 29 6.5 70t3.5 79z" />
<glyph />
<glyph horiz-adv-x="2048" />
<glyph />
<glyph />
<glyph />
<glyph />
<glyph />
<glyph />
<glyph />
<glyph />
<glyph />
</font>
</defs>
</svg>
